M48
; DRILL file {KiCad (5.1.12)-1} date 01/17/23 10:45:41
; FORMAT={-:-/ absolute / metric / decimal}
; #@! TF.CreationDate,2023-01-17T10:45:41+01:00
; #@! TF.GenerationSoftware,Kicad,Pcbnew,(5.1.12)-1
; #@! TF.FileFunction,Plated,1,4,PTH
FMAT,2
METRIC
T1C0.400
T2C0.600
T3C0.700
T4C0.800
T5C0.900
T6C1.000
%
G90
G05
T1
X30.05Y-71.54
X30.09Y-107.36
X32.49Y-79.18
X32.72Y-96.97
X35.26Y-88.34
X35.28Y-76.71
X35.29Y-109.9
X35.29Y-112.49
X35.3Y-99.61
X37.47Y-88.33
X37.64Y-25.37
X37.83Y-99.62
X40.29Y-104.79
X40.32Y-89.55
X40.34Y-58.62
X40.34Y-86.88
X40.36Y-79.23
X40.37Y-84.33
X40.38Y-25.4
X42.85Y-96.97
X42.907Y-76.517
X42.91Y-79.23
X42.93Y-143.11
X45.34Y-104.72
X45.44Y-66.36
X45.45Y-138.03
X45.47Y-155.9
X45.48Y-96.98
X47.81Y-86.89
X47.82Y-79.23
X47.97Y-58.62
X47.97Y-99.67
X47.98Y-122.7
X47.99Y-68.9
X48.02Y-155.9
X50.47Y-58.58
X50.49Y-97.06
X50.53Y-25.34
X50.54Y-38.26
X50.54Y-99.62
X50.54Y-143.18
X50.55Y-68.92
X50.57Y-122.71
X50.57Y-155.88
X52.95Y-71.55
X52.97Y-45.77
X53.02Y-40.8
X53.04Y-145.65
X53.09Y-122.68
X53.13Y-84.26
X55.48Y-76.6
X55.52Y-132.93
X55.55Y-145.63
X55.56Y-84.15
X57.01Y-74.05
X57.9Y-27.88
X58.06Y-76.51
X58.06Y-132.93
X58.2Y-145.63
X59.19Y-38.0
X59.19Y-43.33
X60.57Y-74.06
X60.6Y-68.93
X60.66Y-120.04
X60.68Y-58.66
X60.76Y-109.86
X60.77Y-130.32
X60.78Y-153.3
X63.12Y-156.04
X63.18Y-76.51
X63.23Y-145.66
X63.25Y-58.78
X63.25Y-63.79
X63.26Y-27.99
X63.31Y-91.96
X63.31Y-132.98
X65.72Y-122.68
X65.82Y-74.11
X65.82Y-155.93
X65.85Y-132.98
X65.93Y-61.27
X68.22Y-79.16
X68.24Y-53.67
X68.26Y-40.85
X68.26Y-63.97
X68.28Y-122.74
X68.37Y-81.76
X68.37Y-145.68
X68.38Y-97.16
X68.43Y-25.93
X68.47Y-155.93
X70.798Y-48.382
X70.81Y-99.69
X70.88Y-30.52
X70.9Y-138.03
X70.93Y-122.66
X70.94Y-130.41
X70.98Y-145.69
X70.98Y-155.98
X71.02Y-97.14
X73.35Y-99.73
X73.41Y-58.75
X73.47Y-35.62
X73.5Y-130.41
X73.51Y-76.53
X75.9Y-76.55
X75.93Y-38.15
X75.95Y-58.67
X75.96Y-51.13
X76.01Y-135.65
X76.04Y-28.04
X76.09Y-151.0
X76.12Y-102.32
X76.14Y-158.48
X76.87Y-78.71
X78.49Y-35.6
X78.5Y-68.95
X78.51Y-75.68
X78.56Y-28.02
X78.58Y-99.77
X79.69Y-145.545
X80.9Y-68.98
X80.96Y-99.8
X81.01Y-91.97
X81.03Y-25.67
X81.03Y-38.23
X81.06Y-132.94
X81.17Y-104.87
X83.55Y-28.06
X83.58Y-25.64
X83.59Y-38.33
X83.59Y-143.07
X83.59Y-145.67
X86.12Y-38.23
X86.13Y-69.01
X86.14Y-130.52
X86.16Y-99.79
X86.16Y-109.88
X86.23Y-143.19
X86.365Y-105.165
X88.68Y-66.44
X88.76Y-122.25
X88.76Y-130.52
X88.78Y-38.22
X91.18Y-112.52
X91.25Y-58.72
X91.25Y-143.2
X91.27Y-28.08
X91.27Y-53.48
X91.27Y-63.91
X91.32Y-122.26
X91.41Y-130.54
X93.76Y-43.46
X93.8Y-92.04
X93.85Y-74.12
X93.87Y-112.44
X93.92Y-96.96
X96.35Y-96.93
X96.39Y-104.9
X96.42Y-62.58
X97.86Y-66.51
X98.84Y-28.08
X98.87Y-35.57
X99.02Y-110.0
X99.05Y-76.68
X99.19Y-145.77
X100.42Y-61.33
X101.39Y-99.72
X101.47Y-71.5
X101.54Y-110.01
X101.58Y-86.97
X101.59Y-145.74
X101.67Y-130.43
X103.92Y-28.02
X103.95Y-35.68
X104.0Y-65.44
X104.03Y-71.66
X104.04Y-86.96
X104.07Y-94.8
X104.08Y-99.78
X104.17Y-104.89
X106.44Y-38.195
X106.61Y-84.29
X106.65Y-27.99
X106.82Y-109.87
X108.95Y-89.57
X108.99Y-99.65
X109.09Y-56.22
X109.1Y-104.92
X109.14Y-63.85
X109.16Y-38.33
X109.25Y-86.95
X109.31Y-143.18
X109.37Y-148.29
X109.37Y-151.12
X111.5Y-109.98
X111.65Y-74.12
X111.68Y-76.72
X111.7Y-132.96
X111.73Y-99.66
X111.75Y-65.96
X111.85Y-148.34
X111.99Y-120.18
X114.14Y-22.94
X114.235Y-81.815
X114.31Y-30.51
X114.34Y-109.99
X114.37Y-89.63
X114.47Y-143.31
X116.88Y-51.17
X116.89Y-104.91
X116.9Y-132.98
X116.91Y-36.2
X116.93Y-63.9
X116.98Y-143.25
X119.4Y-36.29
X119.54Y-143.29
X119.58Y-110.0
X121.66Y-48.48
X121.7Y-76.71
X121.87Y-61.35
X121.89Y-43.42
X121.91Y-69.09
X122.03Y-85.45
X122.09Y-138.07
X124.23Y-76.7
X124.23Y-86.99
X124.54Y-69.1
X124.55Y-74.07
X124.57Y-51.11
X124.69Y-61.22
X124.69Y-143.17
X124.71Y-35.68
X126.75Y-25.52
X126.77Y-76.68
X126.99Y-84.88
X126.99Y-107.41
X127.02Y-102.31
X127.07Y-69.62
X127.07Y-74.15
X127.1Y-87.5
X127.15Y-121.29
X127.17Y-117.65
X127.2Y-94.59
X129.32Y-86.76
X129.355Y-76.74
X129.5Y-61.35
X129.63Y-43.41
X129.71Y-74.18
X129.84Y-121.29
X131.83Y-28.08
X131.83Y-35.75
X132.04Y-143.27
X132.06Y-96.79
X132.09Y-25.43
X132.32Y-61.32
X132.41Y-91.56
X132.44Y-154.08
X134.54Y-22.89
X134.62Y-51.11
X134.7Y-66.56
X134.78Y-25.41
X134.79Y-30.54
X134.88Y-53.81
X134.94Y-84.16
X137.11Y-150.89
X137.25Y-25.44
X137.33Y-97.9
X137.38Y-43.39
X137.54Y-84.45
X139.5Y-97.86
X139.78Y-86.36
X139.83Y-66.52
X139.84Y-28.11
X139.85Y-148.92
X139.91Y-61.42
X139.92Y-136.17
X142.2Y-130.16
X142.29Y-76.77
X142.29Y-136.66
X142.32Y-112.66
X142.32Y-139.05
X142.33Y-38.38
X142.33Y-61.22
X142.38Y-25.43
X142.39Y-56.26
X142.49Y-145.83
X142.58Y-92.12
X142.69Y-97.17
X144.8Y-25.85
X144.89Y-74.21
X144.92Y-92.11
X145.03Y-50.12
X145.05Y-127.88
X145.05Y-140.76
X145.65Y-132.47
X147.06Y-92.13
X147.27Y-109.99
X147.49Y-51.12
X147.57Y-61.38
X148.62Y-142.26
X149.85Y-109.97
X150.11Y-133.07
X150.14Y-130.44
X150.27Y-138.54
X152.51Y-48.56
X152.58Y-69.66
X152.66Y-133.1
X152.74Y-135.65
X152.78Y-145.75
X152.79Y-138.68
X155.0Y-76.24
X155.14Y-64.01
X155.18Y-46.02
X155.32Y-33.33
X155.34Y-117.7
X155.35Y-107.48
X155.36Y-102.25
X155.37Y-97.69
X157.74Y-61.38
X157.83Y-30.63
X157.86Y-130.53
X157.88Y-145.66
X157.95Y-89.57
X157.95Y-107.5
X157.96Y-92.5
X158.19Y-76.22
X158.33Y-115.1
X160.18Y-33.32
X160.18Y-35.55
X160.26Y-30.72
X160.31Y-53.64
X160.4Y-104.95
X160.47Y-84.98
X160.5Y-121.74
X161.78Y-76.81
X162.26Y-66.51
X162.3Y-58.86
X162.97Y-84.47
X163.04Y-121.77
X165.57Y-121.77
X167.93Y-77.26
X168.08Y-84.47
X168.09Y-38.37
X168.09Y-121.73
X168.12Y-156.11
X168.13Y-92.13
X170.45Y-50.14
X170.46Y-28.13
X170.52Y-83.96
X170.59Y-122.86
X170.77Y-153.54
X173.06Y-77.24
X173.06Y-110.58
X173.17Y-92.13
X173.32Y-97.66
X175.57Y-28.19
X175.59Y-77.23
X175.69Y-110.04
X175.76Y-156.13
X178.09Y-76.07
X178.24Y-38.36
X178.24Y-120.32
X180.77Y-123.0
X180.86Y-100.87
X180.87Y-115.16
X180.93Y-48.54
X180.98Y-110.99
X180.98Y-156.12
X181.09Y-28.07
X181.09Y-33.21
X181.86Y-38.43
X183.27Y-33.65
X183.28Y-22.95
X183.37Y-110.46
X183.39Y-127.89
X183.41Y-123.0
X183.43Y-76.07
X183.57Y-97.25
X185.89Y-128.02
X185.98Y-110.5
X187.42Y-99.81
X188.36Y-51.31
X188.36Y-58.86
X188.38Y-64.49
X188.39Y-71.6
X188.42Y-79.32
X190.07Y-110.01
X190.98Y-112.56
X191.06Y-71.62
X191.6Y-99.81
X193.44Y-28.17
X193.47Y-92.62
X193.47Y-113.08
X193.52Y-48.56
X196.04Y-122.9
X196.06Y-110.48
X196.07Y-51.26
X196.09Y-99.79
X196.13Y-35.85
X196.14Y-61.39
X196.26Y-84.57
X198.62Y-122.84
X198.66Y-51.25
X198.69Y-35.85
X201.12Y-121.41
X201.24Y-89.63
X201.25Y-84.9
X201.26Y-71.63
X201.26Y-107.48
X201.28Y-81.96
X201.28Y-115.23
X201.34Y-94.43
X201.4Y-102.29
X203.72Y-51.13
X203.75Y-27.68
X203.8Y-127.99
X206.2Y-64.01
X206.25Y-61.38
X206.38Y-128.02
X206.46Y-92.13
X206.49Y-122.93
X208.85Y-79.34
X208.88Y-71.6
X208.93Y-100.27
X211.36Y-69.1
X211.39Y-25.51
X211.65Y-86.5
X211.67Y-125.23
X211.74Y-140.9
X213.93Y-63.95
X213.94Y-56.28
X214.04Y-92.17
X214.23Y-158.69
X214.25Y-160.93
X216.47Y-92.17
X216.52Y-64.0
X216.66Y-110.97
X216.77Y-71.92
X219.058Y-56.022
X219.06Y-36.88
X219.06Y-86.49
X219.09Y-47.13
X219.16Y-83.86
X219.18Y-75.69
X219.21Y-104.92
X219.21Y-110.98
X219.25Y-118.62
X219.32Y-97.23
X219.33Y-158.73
X219.39Y-140.89
X219.4Y-151.11
X219.42Y-148.41
X221.58Y-41.0
X221.6Y-43.4
X221.64Y-51.13
X221.74Y-23.09
X224.17Y-58.87
X224.2Y-66.57
X224.23Y-76.74
X224.53Y-145.83
X224.67Y-153.56
X225.78Y-112.15
X226.76Y-58.88
X226.82Y-99.88
X226.85Y-89.59
X226.85Y-104.85
X226.9Y-143.4
X226.95Y-153.63
X226.99Y-156.24
X227.08Y-145.85
X229.26Y-28.13
X229.32Y-46.04
X229.32Y-88.61
X229.33Y-66.59
X229.39Y-153.58
X229.47Y-138.25
X229.59Y-143.31
X231.86Y-35.75
X231.87Y-89.68
X231.959Y-79.299
X231.97Y-112.6
X232.13Y-153.64
X232.15Y-138.23
X232.18Y-120.34
X232.18Y-143.28
X234.41Y-99.83
X234.55Y-110.0
X234.61Y-112.63
X234.62Y-120.38
X234.69Y-138.71
X236.9Y-104.88
X236.94Y-89.68
X236.97Y-96.77
X237.24Y-153.58
X239.68Y-120.83
X242.0Y-48.62
X242.03Y-38.37
X242.08Y-74.22
X242.17Y-120.82
X242.17Y-90.17
X242.19Y-96.6
X242.2Y-115.21
X242.28Y-86.9
X242.33Y-144.43
X243.69Y-112.67
X243.7Y-110.13
X244.15Y-81.82
X244.61Y-58.97
X244.63Y-41.01
X244.72Y-92.15
X244.73Y-97.29
X244.75Y-66.45
X244.81Y-120.95
X244.92Y-128.04
X244.94Y-143.42
X246.95Y-23.03
X247.17Y-89.1
X247.2Y-47.17
X247.34Y-78.76
X247.43Y-125.63
X247.54Y-158.71
X249.67Y-25.68
X249.77Y-48.7
X249.77Y-51.24
X249.78Y-40.99
X249.79Y-58.93
X249.96Y-128.03
X250.0Y-112.63
X250.02Y-151.05
X250.07Y-143.6
X252.2Y-87.08
X252.32Y-25.66
X252.33Y-69.12
X252.45Y-66.55
X252.49Y-104.98
X252.53Y-120.35
X252.55Y-97.16
X252.57Y-110.03
X252.64Y-153.58
X254.94Y-76.64
X255.02Y-66.57
X255.02Y-89.66
X255.04Y-97.37
X257.52Y-110.04
X257.55Y-56.78
X257.58Y-46.25
X257.58Y-89.66
X257.59Y-35.81
X257.59Y-66.59
X257.6Y-78.79
X257.61Y-112.73
X257.66Y-143.42
X257.77Y-156.11
X260.02Y-120.33
X260.03Y-105.03
X260.04Y-69.16
X260.1Y-66.59
X260.12Y-97.83
X260.12Y-122.86
X260.14Y-89.66
X260.14Y-131.11
X262.1Y-87.1
X262.43Y-66.57
X262.65Y-76.64
X262.66Y-120.38
X262.68Y-143.41
X262.7Y-89.66
X262.7Y-99.68
X262.84Y-156.08
X265.1Y-66.58
X265.16Y-78.91
X265.41Y-153.56
X267.75Y-120.4
X267.82Y-97.36
X267.92Y-143.44
X270.21Y-74.28
X270.22Y-78.93
X270.25Y-81.98
X270.31Y-112.61
X270.44Y-120.41
X272.67Y-33.32
X272.97Y-127.99
T2
X157.86Y-143.41
X160.3Y-133.11
X162.42Y-139.26
X162.86Y-135.63
X165.54Y-133.09
X168.0Y-133.11
X168.04Y-135.65
X170.66Y-135.67
X173.18Y-138.2
X173.19Y-135.66
X175.74Y-135.63
X178.28Y-135.475
X180.79Y-133.06
X180.83Y-138.21
X183.37Y-138.27
X188.43Y-140.79
X190.99Y-140.82
X193.63Y-140.76
X196.12Y-140.79
X198.71Y-140.82
X201.31Y-140.82
X203.77Y-140.82
X206.35Y-140.87
T3
X63.2Y-74.02
X63.2Y-79.1
X68.24Y-76.56
X86.11Y-74.12
X86.11Y-79.2
X91.15Y-76.66
X104.1Y-74.12
X104.1Y-79.2
X109.14Y-76.66
T4
X27.45Y-43.225
X27.45Y-50.725
X27.475Y-33.075
X27.475Y-40.575
X27.475Y-53.55
X27.475Y-61.05
X27.475Y-63.75
X27.475Y-71.25
X27.475Y-74.075
X27.475Y-81.575
X27.5Y-94.5
X27.5Y-102.0
X27.5Y-107.25
X27.5Y-114.75
X27.5Y-117.75
X27.5Y-125.25
X27.5Y-127.75
X27.5Y-135.25
X27.5Y-140.5
X27.5Y-148.0
X32.73Y-53.65
X32.73Y-61.27
X32.74Y-43.44
X32.74Y-51.06
X32.75Y-22.82
X32.75Y-30.44
X32.75Y-63.92
X32.75Y-71.54
X32.75Y-74.16
X32.75Y-81.78
X32.75Y-94.65
X32.75Y-102.27
X32.75Y-107.38
X32.75Y-115.0
X32.75Y-128.15
X32.75Y-135.77
X32.76Y-33.16
X32.76Y-40.78
X32.78Y-117.84
X32.78Y-125.46
X32.78Y-140.62
X32.78Y-148.24
X32.78Y-151.09
X32.78Y-158.71
X35.27Y-53.65
X35.27Y-61.27
X35.28Y-43.44
X35.28Y-51.06
X35.29Y-22.82
X35.29Y-30.44
X35.29Y-63.92
X35.29Y-71.54
X35.29Y-74.16
X35.29Y-81.78
X35.29Y-84.47
X35.29Y-91.97
X35.29Y-94.65
X35.29Y-102.27
X35.29Y-107.38
X35.29Y-115.0
X35.29Y-128.15
X35.29Y-135.77
X35.3Y-33.16
X35.3Y-40.78
X35.32Y-117.84
X35.32Y-125.46
X35.32Y-140.62
X35.32Y-148.24
X35.32Y-151.09
X35.32Y-158.71
X37.81Y-53.65
X37.81Y-61.27
X37.82Y-43.44
X37.82Y-51.06
X37.83Y-22.82
X37.83Y-30.44
X37.83Y-63.92
X37.83Y-71.54
X37.83Y-74.16
X37.83Y-81.78
X37.83Y-94.65
X37.83Y-102.27
X37.83Y-107.38
X37.83Y-115.0
X37.83Y-128.15
X37.83Y-135.77
X37.84Y-33.16
X37.84Y-40.78
X37.84Y-84.46
X37.84Y-91.96
X37.86Y-117.84
X37.86Y-125.46
X37.86Y-140.62
X37.86Y-148.24
X37.86Y-151.09
X37.86Y-158.71
X40.35Y-53.65
X40.35Y-61.27
X40.36Y-43.44
X40.36Y-51.06
X40.37Y-22.82
X40.37Y-30.44
X40.37Y-63.92
X40.37Y-71.54
X40.37Y-74.16
X40.37Y-81.78
X40.37Y-94.65
X40.37Y-102.27
X40.37Y-107.38
X40.37Y-115.0
X40.37Y-128.15
X40.37Y-135.77
X40.38Y-33.16
X40.38Y-40.78
X40.4Y-117.84
X40.4Y-125.46
X40.4Y-140.62
X40.4Y-148.24
X40.4Y-151.09
X40.4Y-158.71
X42.89Y-53.65
X42.89Y-61.27
X42.9Y-43.44
X42.9Y-51.06
X42.91Y-22.82
X42.91Y-30.44
X42.91Y-63.92
X42.91Y-71.54
X42.91Y-74.16
X42.91Y-81.78
X42.91Y-94.65
X42.91Y-102.27
X42.91Y-107.38
X42.91Y-115.0
X42.91Y-128.15
X42.91Y-135.77
X42.92Y-33.16
X42.92Y-40.78
X42.94Y-117.84
X42.94Y-125.46
X42.94Y-140.62
X42.94Y-148.24
X42.94Y-151.09
X42.94Y-158.71
X45.43Y-53.65
X45.43Y-61.27
X45.44Y-43.44
X45.44Y-51.06
X45.45Y-22.82
X45.45Y-30.44
X45.45Y-63.92
X45.45Y-71.54
X45.45Y-74.16
X45.45Y-81.78
X45.45Y-94.65
X45.45Y-102.27
X45.45Y-107.38
X45.45Y-115.0
X45.45Y-128.15
X45.45Y-135.77
X45.46Y-33.16
X45.46Y-40.78
X45.48Y-117.84
X45.48Y-125.46
X45.48Y-140.62
X45.48Y-148.24
X45.48Y-151.09
X45.48Y-158.71
X47.97Y-53.65
X47.97Y-61.27
X47.98Y-43.44
X47.98Y-51.06
X47.99Y-22.82
X47.99Y-30.44
X47.99Y-63.92
X47.99Y-71.54
X47.99Y-74.16
X47.99Y-81.78
X47.99Y-94.65
X47.99Y-102.27
X47.99Y-107.38
X47.99Y-115.0
X47.99Y-128.15
X47.99Y-135.77
X48.0Y-33.16
X48.0Y-40.78
X48.02Y-117.84
X48.02Y-125.46
X48.02Y-140.62
X48.02Y-148.24
X48.02Y-151.09
X48.02Y-158.71
X50.51Y-53.65
X50.51Y-61.27
X50.52Y-43.44
X50.52Y-51.06
X50.53Y-22.82
X50.53Y-30.44
X50.53Y-63.92
X50.53Y-71.54
X50.53Y-74.16
X50.53Y-81.78
X50.53Y-94.65
X50.53Y-102.27
X50.54Y-33.16
X50.54Y-40.78
X50.56Y-117.84
X50.56Y-125.46
X50.56Y-140.62
X50.56Y-148.24
X50.56Y-151.09
X50.56Y-158.71
X55.3Y-22.94
X55.3Y-33.1
X55.3Y-35.84
X55.3Y-46.0
X55.3Y-53.64
X55.3Y-63.8
X55.32Y-71.45
X55.32Y-81.61
X55.69Y-128.17
X55.69Y-135.79
X55.69Y-151.09
X55.69Y-158.71
X55.7Y-94.65
X55.7Y-102.27
X55.7Y-107.38
X55.7Y-115.0
X55.7Y-117.85
X55.7Y-125.47
X55.7Y-140.63
X55.7Y-148.25
X57.9Y-22.94
X57.9Y-33.1
X57.9Y-35.84
X57.9Y-46.0
X57.9Y-53.64
X57.9Y-63.8
X58.17Y-71.61
X58.17Y-81.61
X58.23Y-128.17
X58.23Y-135.79
X58.23Y-151.09
X58.23Y-158.71
X58.24Y-94.65
X58.24Y-102.27
X58.24Y-107.38
X58.24Y-115.0
X58.24Y-117.85
X58.24Y-125.47
X58.24Y-140.63
X58.24Y-148.25
X60.5Y-22.94
X60.5Y-33.1
X60.51Y-35.84
X60.51Y-46.0
X60.56Y-53.64
X60.56Y-63.8
X60.77Y-128.17
X60.77Y-135.79
X60.77Y-151.09
X60.77Y-158.71
X60.78Y-94.65
X60.78Y-102.27
X60.78Y-107.38
X60.78Y-115.0
X60.78Y-117.85
X60.78Y-125.47
X60.78Y-140.63
X60.78Y-148.25
X63.09Y-22.94
X63.09Y-33.1
X63.17Y-35.84
X63.17Y-46.0
X63.31Y-128.17
X63.31Y-135.79
X63.31Y-151.09
X63.31Y-158.71
X63.32Y-94.65
X63.32Y-102.27
X63.32Y-107.38
X63.32Y-115.0
X63.32Y-117.85
X63.32Y-125.47
X63.32Y-140.63
X63.32Y-148.25
X65.7Y-22.94
X65.7Y-33.1
X65.7Y-35.84
X65.7Y-46.0
X65.85Y-128.17
X65.85Y-135.79
X65.85Y-151.09
X65.85Y-158.71
X65.86Y-94.65
X65.86Y-102.27
X65.86Y-107.38
X65.86Y-115.0
X65.86Y-117.85
X65.86Y-125.47
X65.86Y-140.63
X65.86Y-148.25
X68.3Y-22.9
X68.3Y-30.4
X68.39Y-128.17
X68.39Y-135.79
X68.39Y-151.09
X68.39Y-158.71
X68.4Y-94.65
X68.4Y-102.27
X68.4Y-107.38
X68.4Y-115.0
X68.4Y-117.85
X68.4Y-125.47
X68.4Y-140.63
X68.4Y-148.25
X70.87Y-56.4
X70.87Y-64.02
X70.88Y-33.28
X70.88Y-40.9
X70.88Y-46.08
X70.88Y-53.7
X70.93Y-128.17
X70.93Y-135.79
X70.93Y-151.09
X70.93Y-158.71
X70.94Y-94.65
X70.94Y-102.27
X70.94Y-107.38
X70.94Y-115.0
X70.94Y-117.85
X70.94Y-125.47
X70.94Y-140.63
X70.94Y-148.25
X73.41Y-56.4
X73.41Y-64.02
X73.42Y-22.88
X73.42Y-30.5
X73.42Y-33.28
X73.42Y-40.9
X73.42Y-46.08
X73.42Y-53.7
X73.47Y-128.17
X73.47Y-135.79
X73.47Y-151.09
X73.47Y-158.71
X73.48Y-94.65
X73.48Y-102.27
X73.48Y-117.85
X73.48Y-125.47
X73.48Y-140.63
X73.48Y-148.25
X73.51Y-71.61
X73.51Y-81.61
X75.95Y-56.4
X75.95Y-64.02
X75.96Y-22.88
X75.96Y-30.5
X75.96Y-33.28
X75.96Y-40.9
X75.96Y-46.08
X75.96Y-53.7
X76.02Y-71.55
X76.02Y-81.71
X78.3Y-71.54
X78.3Y-81.7
X78.49Y-56.4
X78.49Y-64.02
X78.5Y-22.88
X78.5Y-30.5
X78.5Y-33.28
X78.5Y-40.9
X78.5Y-46.08
X78.5Y-53.7
X78.52Y-94.68
X78.52Y-102.3
X78.52Y-107.48
X78.52Y-115.1
X78.52Y-117.86
X78.52Y-125.48
X78.52Y-128.18
X78.52Y-135.8
X78.55Y-151.1
X78.55Y-158.72
X78.6Y-140.81
X78.6Y-148.31
X80.91Y-71.59
X80.91Y-81.59
X81.03Y-56.4
X81.03Y-64.02
X81.04Y-22.88
X81.04Y-30.5
X81.04Y-33.28
X81.04Y-40.9
X81.04Y-46.08
X81.04Y-53.7
X81.06Y-94.68
X81.06Y-102.3
X81.06Y-107.48
X81.06Y-115.1
X81.06Y-117.86
X81.06Y-125.48
X81.06Y-128.18
X81.06Y-135.8
X81.09Y-151.1
X81.09Y-158.72
X83.57Y-56.4
X83.57Y-64.02
X83.58Y-22.88
X83.58Y-30.5
X83.58Y-33.28
X83.58Y-40.9
X83.58Y-46.08
X83.58Y-53.7
X83.6Y-94.68
X83.6Y-102.3
X83.6Y-107.48
X83.6Y-115.1
X83.6Y-117.86
X83.6Y-125.48
X83.6Y-128.18
X83.6Y-135.8
X83.63Y-140.68
X83.63Y-148.3
X83.63Y-151.1
X83.63Y-158.72
X86.11Y-56.4
X86.11Y-64.02
X86.12Y-22.88
X86.12Y-30.5
X86.12Y-33.28
X86.12Y-40.9
X86.12Y-46.08
X86.12Y-53.7
X86.14Y-94.68
X86.14Y-102.3
X86.14Y-107.48
X86.14Y-115.1
X86.14Y-117.86
X86.14Y-125.48
X86.14Y-128.18
X86.14Y-135.8
X86.17Y-140.68
X86.17Y-148.3
X86.17Y-151.1
X86.17Y-158.72
X88.65Y-56.4
X88.65Y-64.02
X88.66Y-22.88
X88.66Y-30.5
X88.66Y-33.28
X88.66Y-40.9
X88.66Y-46.08
X88.66Y-53.7
X88.68Y-94.68
X88.68Y-102.3
X88.68Y-107.48
X88.68Y-115.1
X88.68Y-117.86
X88.68Y-125.48
X88.68Y-128.18
X88.68Y-135.8
X88.71Y-140.68
X88.71Y-148.3
X88.71Y-151.1
X88.71Y-158.72
X91.2Y-22.88
X91.2Y-30.5
X91.22Y-94.68
X91.22Y-102.3
X91.22Y-107.48
X91.22Y-115.1
X91.22Y-117.86
X91.22Y-125.48
X91.22Y-128.18
X91.22Y-135.8
X91.25Y-140.68
X91.25Y-148.3
X91.25Y-151.1
X91.25Y-158.72
X93.6Y-58.85
X93.6Y-69.01
X93.76Y-33.28
X93.76Y-40.9
X93.76Y-94.68
X93.76Y-102.3
X93.76Y-107.48
X93.76Y-115.1
X93.76Y-117.86
X93.76Y-125.48
X93.76Y-128.18
X93.76Y-135.8
X93.79Y-140.68
X93.79Y-148.3
X93.79Y-151.1
X93.79Y-158.72
X93.9Y-46.08
X93.9Y-53.7
X96.3Y-22.78
X96.3Y-30.4
X96.3Y-33.28
X96.3Y-40.9
X96.3Y-58.85
X96.3Y-69.01
X96.3Y-94.68
X96.3Y-102.3
X96.3Y-107.48
X96.3Y-115.1
X96.3Y-117.86
X96.3Y-125.48
X96.3Y-128.18
X96.3Y-135.8
X96.33Y-140.68
X96.33Y-148.3
X96.33Y-151.1
X96.33Y-158.72
X96.44Y-46.08
X96.44Y-53.7
X96.51Y-71.42
X96.51Y-81.58
X98.84Y-22.78
X98.84Y-30.4
X98.84Y-33.28
X98.84Y-40.9
X98.84Y-94.68
X98.84Y-102.3
X98.84Y-107.48
X98.84Y-115.1
X98.84Y-117.86
X98.84Y-125.48
X98.84Y-128.18
X98.84Y-135.8
X98.87Y-140.68
X98.87Y-148.3
X98.87Y-151.1
X98.87Y-158.72
X98.9Y-58.85
X98.9Y-69.01
X98.98Y-46.08
X98.98Y-53.7
X99.05Y-71.58
X99.05Y-81.58
X101.29Y-58.85
X101.29Y-68.85
X101.38Y-22.78
X101.38Y-30.4
X101.38Y-33.28
X101.38Y-40.9
X101.38Y-94.68
X101.38Y-102.3
X101.38Y-107.48
X101.38Y-115.1
X101.38Y-117.86
X101.38Y-125.48
X101.38Y-128.18
X101.38Y-135.8
X101.41Y-140.68
X101.41Y-148.3
X101.41Y-151.1
X101.41Y-158.72
X101.52Y-46.08
X101.52Y-53.7
X103.92Y-22.78
X103.92Y-30.4
X103.92Y-33.28
X103.92Y-40.9
X104.0Y-58.85
X104.0Y-69.01
X104.06Y-46.08
X104.06Y-53.7
X106.45Y-94.68
X106.45Y-102.3
X106.45Y-107.49
X106.45Y-115.11
X106.46Y-22.78
X106.46Y-30.4
X106.46Y-33.28
X106.46Y-40.9
X106.46Y-117.86
X106.46Y-125.48
X106.6Y-46.08
X106.6Y-53.7
X106.6Y-58.85
X106.6Y-69.01
X106.67Y-138.1
X106.67Y-145.6
X106.7Y-151.0
X106.7Y-158.5
X108.99Y-94.68
X108.99Y-102.3
X108.99Y-107.49
X108.99Y-115.11
X109.0Y-22.78
X109.0Y-30.4
X109.0Y-33.28
X109.0Y-40.9
X109.0Y-117.86
X109.0Y-125.48
X109.1Y-59.0
X109.1Y-69.0
X109.14Y-46.08
X109.14Y-53.7
X111.53Y-94.68
X111.53Y-102.3
X111.53Y-107.49
X111.53Y-115.11
X111.54Y-22.78
X111.54Y-30.4
X111.54Y-33.28
X111.54Y-40.9
X111.54Y-117.86
X111.54Y-125.48
X111.55Y-130.56
X111.55Y-145.8
X111.55Y-151.07
X111.55Y-158.69
X111.68Y-46.08
X111.68Y-53.7
X111.7Y-58.84
X111.7Y-69.0
X111.8Y-82.0
X111.8Y-89.5
X114.07Y-94.68
X114.07Y-102.3
X114.07Y-107.49
X114.07Y-115.11
X114.08Y-117.86
X114.08Y-125.48
X114.09Y-130.56
X114.09Y-145.8
X114.09Y-151.07
X114.09Y-158.69
X116.61Y-22.88
X116.61Y-30.5
X116.61Y-33.28
X116.61Y-40.9
X116.61Y-46.08
X116.61Y-53.7
X116.61Y-58.76
X116.61Y-66.38
X116.61Y-71.67
X116.61Y-79.29
X116.61Y-81.99
X116.61Y-89.61
X116.61Y-94.68
X116.61Y-102.3
X116.61Y-107.49
X116.61Y-115.11
X116.62Y-117.86
X116.62Y-125.48
X116.63Y-130.56
X116.63Y-145.8
X116.63Y-151.07
X116.63Y-158.69
X119.15Y-22.88
X119.15Y-30.5
X119.15Y-33.28
X119.15Y-40.9
X119.15Y-46.08
X119.15Y-53.7
X119.15Y-58.76
X119.15Y-66.38
X119.15Y-71.67
X119.15Y-79.29
X119.15Y-81.99
X119.15Y-89.61
X119.15Y-94.68
X119.15Y-102.3
X119.15Y-107.49
X119.15Y-115.11
X119.16Y-117.86
X119.16Y-125.48
X119.17Y-130.56
X119.17Y-145.8
X119.17Y-151.07
X119.17Y-158.69
X121.69Y-22.88
X121.69Y-30.5
X121.69Y-33.28
X121.69Y-40.9
X121.69Y-46.08
X121.69Y-53.7
X121.69Y-58.76
X121.69Y-66.38
X121.69Y-71.67
X121.69Y-79.29
X121.69Y-81.99
X121.69Y-89.61
X121.69Y-94.68
X121.69Y-102.3
X121.69Y-107.49
X121.69Y-115.11
X121.7Y-117.86
X121.7Y-125.48
X121.71Y-130.56
X121.71Y-145.8
X121.71Y-151.07
X121.71Y-158.69
X124.23Y-22.88
X124.23Y-30.5
X124.23Y-33.28
X124.23Y-40.9
X124.23Y-46.08
X124.23Y-53.7
X124.23Y-58.76
X124.23Y-66.38
X124.23Y-71.67
X124.23Y-79.29
X124.23Y-81.99
X124.23Y-89.61
X124.23Y-94.68
X124.23Y-102.3
X124.23Y-107.49
X124.23Y-115.11
X124.24Y-117.86
X124.24Y-125.48
X124.25Y-130.56
X124.25Y-145.8
X124.25Y-151.07
X124.25Y-158.69
X126.77Y-22.88
X126.77Y-30.5
X126.77Y-33.28
X126.77Y-40.9
X126.77Y-46.08
X126.77Y-53.7
X126.77Y-58.76
X126.77Y-66.38
X126.77Y-71.67
X126.77Y-79.29
X126.77Y-81.99
X126.77Y-89.61
X126.79Y-130.56
X126.79Y-145.8
X126.79Y-151.07
X126.79Y-158.69
X129.13Y-107.57
X129.13Y-115.07
X129.14Y-117.66
X129.14Y-125.16
X129.31Y-22.88
X129.31Y-30.5
X129.31Y-33.28
X129.31Y-40.9
X129.31Y-46.08
X129.31Y-53.7
X129.31Y-58.76
X129.31Y-66.38
X129.31Y-71.67
X129.31Y-79.29
X129.31Y-81.99
X129.31Y-89.61
X129.33Y-130.56
X129.33Y-145.8
X129.33Y-151.07
X129.33Y-158.69
X129.5Y-94.76
X129.5Y-102.38
X131.85Y-22.88
X131.85Y-30.5
X131.85Y-33.28
X131.85Y-40.9
X131.85Y-46.08
X131.85Y-53.7
X131.85Y-58.76
X131.85Y-66.38
X131.85Y-71.67
X131.85Y-79.29
X131.85Y-81.99
X131.85Y-89.61
X131.86Y-107.57
X131.86Y-115.07
X131.87Y-130.56
X131.87Y-145.8
X131.87Y-151.07
X131.87Y-158.69
X131.89Y-117.64
X131.89Y-125.14
X132.04Y-94.76
X132.04Y-102.38
X134.39Y-71.67
X134.39Y-79.29
X134.41Y-130.56
X134.41Y-145.8
X134.41Y-151.07
X134.41Y-158.69
X134.58Y-94.76
X134.58Y-102.38
X136.95Y-130.56
X136.95Y-145.8
X137.1Y-58.78
X137.1Y-66.28
X137.12Y-94.76
X137.12Y-102.38
X137.12Y-107.48
X137.12Y-115.1
X137.12Y-117.86
X137.12Y-125.48
X137.13Y-81.99
X137.13Y-89.61
X137.14Y-22.98
X137.14Y-30.6
X137.14Y-33.28
X137.14Y-40.9
X137.14Y-46.08
X137.14Y-53.7
X139.49Y-130.56
X139.49Y-145.8
X139.66Y-94.76
X139.66Y-102.38
X139.66Y-107.48
X139.66Y-115.1
X139.66Y-117.86
X139.66Y-125.48
X139.67Y-81.99
X139.67Y-89.61
X139.68Y-22.98
X139.68Y-30.6
X139.68Y-33.28
X139.68Y-40.9
X139.68Y-46.08
X139.68Y-53.7
X139.68Y-71.68
X139.68Y-79.3
X140.1Y-151.08
X140.1Y-158.7
X142.2Y-94.76
X142.2Y-102.38
X142.2Y-107.48
X142.2Y-115.1
X142.2Y-117.86
X142.2Y-125.48
X142.21Y-58.78
X142.21Y-66.4
X142.21Y-81.99
X142.21Y-89.61
X142.22Y-22.98
X142.22Y-30.6
X142.22Y-33.28
X142.22Y-40.9
X142.22Y-46.08
X142.22Y-53.7
X142.22Y-71.68
X142.22Y-79.3
X142.64Y-151.08
X142.64Y-158.7
X144.74Y-94.76
X144.74Y-102.38
X144.74Y-107.48
X144.74Y-115.1
X144.74Y-117.86
X144.74Y-125.48
X144.75Y-58.78
X144.75Y-66.4
X144.75Y-81.99
X144.75Y-89.61
X144.76Y-22.98
X144.76Y-30.6
X144.76Y-33.28
X144.76Y-40.9
X144.76Y-46.08
X144.76Y-53.7
X144.76Y-71.68
X144.76Y-79.3
X145.1Y-135.64
X145.1Y-145.8
X145.18Y-151.08
X145.18Y-158.7
X147.28Y-94.76
X147.28Y-102.38
X147.28Y-107.48
X147.28Y-115.1
X147.28Y-117.86
X147.28Y-125.48
X147.29Y-58.78
X147.29Y-66.4
X147.29Y-81.99
X147.29Y-89.61
X147.3Y-22.98
X147.3Y-30.6
X147.3Y-33.28
X147.3Y-40.9
X147.3Y-46.08
X147.3Y-53.7
X147.3Y-71.68
X147.3Y-79.3
X147.7Y-135.64
X147.7Y-145.8
X147.72Y-151.08
X147.72Y-158.7
X149.82Y-94.76
X149.82Y-102.38
X149.82Y-107.48
X149.82Y-115.1
X149.82Y-117.86
X149.82Y-125.48
X149.83Y-58.78
X149.83Y-66.4
X149.83Y-81.99
X149.83Y-89.61
X149.84Y-22.98
X149.84Y-30.6
X149.84Y-33.28
X149.84Y-40.9
X149.84Y-46.08
X149.84Y-53.7
X149.84Y-71.68
X149.84Y-79.3
X150.26Y-151.08
X150.26Y-158.7
X150.28Y-135.65
X150.28Y-145.65
X152.36Y-94.76
X152.36Y-102.38
X152.36Y-107.48
X152.36Y-115.1
X152.36Y-117.86
X152.36Y-125.48
X152.37Y-58.78
X152.37Y-66.4
X152.37Y-81.99
X152.37Y-89.61
X152.38Y-22.98
X152.38Y-30.6
X152.38Y-33.28
X152.38Y-40.9
X152.38Y-46.08
X152.38Y-53.7
X152.38Y-71.68
X152.38Y-79.3
X152.8Y-151.08
X152.8Y-158.7
X154.91Y-58.78
X154.91Y-66.4
X154.91Y-81.99
X154.91Y-89.61
X154.92Y-22.98
X154.92Y-30.6
X154.92Y-71.68
X154.92Y-79.3
X155.2Y-125.3
X155.34Y-151.08
X155.34Y-158.7
X155.42Y-146.04
X157.45Y-58.78
X157.45Y-66.4
X157.7Y-33.5
X157.7Y-41.0
X157.81Y-46.16
X157.81Y-56.32
X157.88Y-151.08
X157.88Y-158.7
X157.96Y-117.86
X157.96Y-125.48
X159.99Y-58.78
X159.99Y-66.4
X160.3Y-71.8
X160.3Y-79.3
X160.49Y-82.01
X160.49Y-89.63
X160.5Y-94.84
X160.5Y-102.46
X160.5Y-107.46
X160.5Y-115.08
X160.5Y-117.86
X160.5Y-125.48
X160.5Y-130.46
X160.5Y-145.7
X163.03Y-22.97
X163.03Y-30.59
X163.03Y-33.28
X163.03Y-40.9
X163.03Y-46.08
X163.03Y-53.7
X163.03Y-82.01
X163.03Y-89.63
X163.04Y-94.84
X163.04Y-102.46
X163.04Y-107.46
X163.04Y-115.08
X163.04Y-117.86
X163.04Y-125.48
X163.04Y-130.46
X163.04Y-145.7
X163.04Y-151.08
X163.04Y-158.7
X165.45Y-71.7
X165.45Y-79.32
X165.57Y-22.97
X165.57Y-30.59
X165.57Y-33.28
X165.57Y-40.9
X165.57Y-46.08
X165.57Y-53.7
X165.57Y-82.01
X165.57Y-89.63
X165.58Y-94.84
X165.58Y-102.46
X165.58Y-107.46
X165.58Y-115.08
X165.58Y-117.86
X165.58Y-125.48
X165.58Y-130.46
X165.58Y-145.7
X165.58Y-151.08
X165.58Y-158.7
X165.59Y-58.75
X165.59Y-66.37
X167.99Y-71.7
X167.99Y-79.32
X168.11Y-22.97
X168.11Y-30.59
X168.11Y-33.28
X168.11Y-40.9
X168.11Y-46.08
X168.11Y-53.7
X168.11Y-82.01
X168.11Y-89.63
X168.12Y-94.84
X168.12Y-102.46
X168.12Y-107.46
X168.12Y-115.08
X168.12Y-117.86
X168.12Y-125.48
X168.12Y-130.46
X168.12Y-145.7
X168.12Y-151.08
X168.12Y-158.7
X170.53Y-71.7
X170.53Y-79.32
X170.65Y-22.97
X170.65Y-30.59
X170.65Y-33.28
X170.65Y-40.9
X170.65Y-46.08
X170.65Y-53.7
X170.65Y-82.01
X170.65Y-89.63
X170.66Y-94.84
X170.66Y-102.46
X170.66Y-107.46
X170.66Y-115.08
X170.66Y-117.86
X170.66Y-125.48
X170.66Y-130.46
X170.66Y-145.7
X170.66Y-151.08
X170.66Y-158.7
X173.07Y-71.7
X173.07Y-79.32
X173.19Y-22.97
X173.19Y-30.59
X173.19Y-33.28
X173.19Y-40.9
X173.19Y-46.08
X173.19Y-53.7
X173.19Y-82.01
X173.19Y-89.63
X173.2Y-94.84
X173.2Y-102.46
X173.2Y-107.46
X173.2Y-115.08
X173.2Y-117.86
X173.2Y-125.48
X173.2Y-130.46
X173.2Y-145.7
X173.2Y-151.08
X173.2Y-158.7
X175.61Y-71.7
X175.61Y-79.32
X175.73Y-22.97
X175.73Y-30.59
X175.73Y-33.28
X175.73Y-40.9
X175.73Y-46.08
X175.73Y-53.7
X175.73Y-82.01
X175.73Y-89.63
X175.74Y-94.84
X175.74Y-102.46
X175.74Y-107.46
X175.74Y-115.08
X175.74Y-117.86
X175.74Y-125.48
X175.74Y-130.46
X175.74Y-145.7
X175.74Y-151.08
X175.74Y-158.7
X178.15Y-71.7
X178.15Y-79.32
X178.27Y-22.97
X178.27Y-30.59
X178.27Y-33.28
X178.27Y-40.9
X178.27Y-46.08
X178.27Y-53.7
X178.27Y-82.01
X178.27Y-89.63
X178.28Y-94.84
X178.28Y-102.46
X178.28Y-107.46
X178.28Y-115.08
X178.28Y-117.86
X178.28Y-125.48
X178.28Y-130.46
X178.28Y-145.7
X178.28Y-151.08
X178.28Y-158.7
X180.69Y-71.7
X180.69Y-79.32
X180.81Y-46.08
X180.81Y-53.7
X180.82Y-66.54
X180.82Y-117.86
X180.82Y-125.48
X180.82Y-130.46
X180.82Y-145.7
X180.82Y-151.08
X180.82Y-158.7
X180.83Y-58.75
X183.33Y-81.98
X183.33Y-89.6
X183.33Y-94.84
X183.33Y-102.46
X183.36Y-107.58
X183.36Y-115.2
X183.36Y-130.46
X183.36Y-145.7
X183.4Y-30.74
X183.4Y-40.9
X185.8Y-45.91
X185.8Y-53.41
X185.8Y-58.9
X185.8Y-66.4
X185.8Y-71.8
X185.8Y-79.3
X185.87Y-81.98
X185.87Y-89.6
X185.87Y-94.84
X185.87Y-102.46
X185.89Y-23.24
X185.89Y-30.74
X185.9Y-33.4
X185.9Y-40.9
X185.9Y-107.58
X185.9Y-115.2
X185.9Y-117.88
X185.9Y-125.5
X185.9Y-130.46
X185.9Y-145.7
X188.41Y-81.98
X188.41Y-89.6
X188.41Y-94.84
X188.41Y-102.46
X188.44Y-107.58
X188.44Y-115.2
X188.44Y-117.88
X188.44Y-125.5
X188.44Y-130.46
X188.44Y-145.7
X188.8Y-151.08
X188.8Y-158.7
X190.95Y-81.98
X190.95Y-89.6
X190.95Y-94.84
X190.95Y-102.46
X190.98Y-107.58
X190.98Y-115.2
X190.98Y-117.88
X190.98Y-125.5
X190.98Y-130.46
X190.98Y-145.7
X191.07Y-23.1
X191.07Y-30.72
X191.07Y-33.4
X191.07Y-41.02
X191.07Y-46.07
X191.07Y-53.69
X191.07Y-58.87
X191.07Y-66.49
X191.08Y-69.21
X191.08Y-76.83
X191.34Y-151.08
X191.34Y-158.7
X193.49Y-81.98
X193.49Y-89.6
X193.49Y-94.84
X193.49Y-102.46
X193.52Y-107.58
X193.52Y-115.2
X193.52Y-117.88
X193.52Y-125.5
X193.52Y-130.46
X193.52Y-145.7
X193.61Y-23.1
X193.61Y-30.72
X193.61Y-33.4
X193.61Y-41.02
X193.61Y-46.07
X193.61Y-53.69
X193.61Y-58.87
X193.61Y-66.49
X193.62Y-69.21
X193.62Y-76.83
X193.88Y-151.08
X193.88Y-158.7
X196.03Y-81.98
X196.03Y-89.6
X196.03Y-94.84
X196.03Y-102.46
X196.06Y-107.58
X196.06Y-115.2
X196.06Y-117.88
X196.06Y-125.5
X196.06Y-130.46
X196.06Y-145.7
X196.15Y-23.1
X196.15Y-30.72
X196.15Y-33.4
X196.15Y-41.02
X196.15Y-46.07
X196.15Y-53.69
X196.15Y-58.87
X196.15Y-66.49
X196.16Y-69.21
X196.16Y-76.83
X196.42Y-151.08
X196.42Y-158.7
X198.57Y-81.98
X198.57Y-89.6
X198.57Y-94.84
X198.57Y-102.46
X198.6Y-107.58
X198.6Y-115.2
X198.6Y-117.88
X198.6Y-125.5
X198.6Y-130.46
X198.6Y-145.7
X198.69Y-23.1
X198.69Y-30.72
X198.69Y-33.4
X198.69Y-41.02
X198.69Y-46.07
X198.69Y-53.69
X198.69Y-58.87
X198.69Y-66.49
X198.7Y-69.21
X198.7Y-76.83
X198.96Y-151.08
X198.96Y-158.7
X201.14Y-117.88
X201.14Y-125.5
X201.14Y-130.46
X201.14Y-145.7
X201.23Y-23.1
X201.23Y-30.72
X201.23Y-33.4
X201.23Y-41.02
X201.23Y-46.07
X201.23Y-53.69
X201.23Y-58.87
X201.23Y-66.49
X201.24Y-69.21
X201.24Y-76.83
X201.5Y-151.08
X201.5Y-158.7
X203.68Y-117.88
X203.68Y-125.5
X203.68Y-130.46
X203.68Y-145.7
X203.77Y-23.1
X203.77Y-30.72
X203.77Y-33.4
X203.77Y-41.02
X203.77Y-46.07
X203.77Y-53.69
X203.77Y-58.87
X203.77Y-66.49
X203.78Y-69.21
X203.78Y-76.83
X203.8Y-81.97
X203.8Y-89.59
X203.9Y-94.88
X203.9Y-102.5
X203.9Y-107.58
X203.9Y-115.2
X204.04Y-151.08
X204.04Y-158.7
X206.22Y-117.88
X206.22Y-125.5
X206.22Y-130.46
X206.22Y-145.7
X206.31Y-23.1
X206.31Y-30.72
X206.31Y-33.4
X206.31Y-41.02
X206.31Y-46.07
X206.31Y-53.69
X206.31Y-58.87
X206.31Y-66.49
X206.32Y-69.21
X206.32Y-76.83
X206.34Y-81.97
X206.34Y-89.59
X206.44Y-94.88
X206.44Y-102.5
X206.44Y-107.58
X206.44Y-115.2
X206.58Y-151.08
X206.58Y-158.7
X208.76Y-117.88
X208.76Y-125.5
X208.76Y-130.46
X208.76Y-145.7
X208.85Y-23.1
X208.85Y-30.72
X208.85Y-33.4
X208.85Y-41.02
X208.85Y-46.07
X208.85Y-53.69
X208.85Y-58.87
X208.85Y-66.49
X208.86Y-69.21
X208.86Y-76.83
X208.88Y-81.97
X208.88Y-89.59
X208.98Y-94.88
X208.98Y-102.5
X208.98Y-107.58
X208.98Y-115.2
X209.12Y-151.08
X209.12Y-158.7
X211.39Y-23.1
X211.39Y-30.72
X211.39Y-33.4
X211.39Y-41.02
X211.39Y-46.07
X211.39Y-53.69
X211.39Y-58.87
X211.39Y-66.49
X211.42Y-81.97
X211.42Y-89.59
X211.52Y-94.88
X211.52Y-102.5
X211.52Y-107.58
X211.52Y-115.2
X211.66Y-151.08
X211.66Y-158.7
X213.93Y-23.1
X213.93Y-30.72
X213.93Y-33.4
X213.93Y-41.02
X213.93Y-46.07
X213.93Y-53.69
X213.93Y-58.87
X213.93Y-66.49
X213.96Y-71.99
X213.96Y-79.49
X213.96Y-81.97
X213.96Y-89.59
X214.05Y-117.79
X214.05Y-125.29
X214.06Y-94.88
X214.06Y-102.5
X214.06Y-107.58
X214.06Y-115.2
X214.08Y-130.74
X214.08Y-140.9
X216.5Y-69.34
X216.5Y-79.5
X216.5Y-81.97
X216.5Y-89.59
X216.6Y-94.88
X216.6Y-102.5
X216.6Y-107.58
X216.6Y-115.2
X216.62Y-117.79
X216.62Y-125.29
X216.64Y-140.89
X216.64Y-148.39
X216.65Y-128.03
X216.65Y-135.53
X216.67Y-151.19
X216.67Y-158.69
X219.0Y-33.5
X219.0Y-41.0
X219.0Y-43.5
X219.0Y-51.0
X219.0Y-53.7
X219.0Y-61.2
X219.04Y-81.97
X219.04Y-89.59
X219.05Y-23.08
X219.05Y-30.58
X219.1Y-64.1
X219.1Y-71.6
X219.14Y-94.88
X219.14Y-102.5
X219.14Y-107.58
X219.14Y-115.2
X221.72Y-117.87
X221.72Y-125.49
X221.73Y-140.88
X221.73Y-148.5
X221.74Y-128.17
X221.74Y-135.79
X221.74Y-151.21
X221.74Y-158.83
X224.24Y-43.6
X224.24Y-51.22
X224.24Y-74.32
X224.24Y-81.94
X224.25Y-23.08
X224.25Y-30.7
X224.25Y-33.38
X224.25Y-41.0
X224.25Y-53.88
X224.25Y-61.5
X224.25Y-64.13
X224.25Y-71.75
X224.25Y-84.49
X224.25Y-92.11
X224.26Y-94.82
X224.26Y-102.44
X224.26Y-107.56
X224.26Y-115.18
X224.26Y-117.87
X224.26Y-125.49
X224.27Y-140.88
X224.27Y-148.5
X224.28Y-128.17
X224.28Y-135.79
X224.28Y-151.21
X224.28Y-158.83
X226.78Y-43.6
X226.78Y-51.22
X226.78Y-74.32
X226.78Y-81.94
X226.79Y-23.08
X226.79Y-30.7
X226.79Y-33.38
X226.79Y-41.0
X226.79Y-53.88
X226.79Y-61.5
X226.79Y-64.13
X226.79Y-71.75
X226.79Y-84.49
X226.79Y-92.11
X226.8Y-94.82
X226.8Y-102.44
X226.8Y-107.56
X226.8Y-115.18
X226.8Y-117.87
X226.8Y-125.49
X226.81Y-140.88
X226.81Y-148.5
X226.82Y-128.17
X226.82Y-135.79
X226.82Y-151.21
X226.82Y-158.83
X229.32Y-43.6
X229.32Y-51.22
X229.32Y-74.32
X229.32Y-81.94
X229.33Y-23.08
X229.33Y-30.7
X229.33Y-33.38
X229.33Y-41.0
X229.33Y-53.88
X229.33Y-61.5
X229.33Y-64.13
X229.33Y-71.75
X229.33Y-84.49
X229.33Y-92.11
X229.34Y-94.82
X229.34Y-102.44
X229.34Y-107.56
X229.34Y-115.18
X229.34Y-117.87
X229.34Y-125.49
X229.35Y-140.88
X229.35Y-148.5
X229.36Y-128.17
X229.36Y-135.79
X229.36Y-151.21
X229.36Y-158.83
X231.86Y-43.6
X231.86Y-51.22
X231.86Y-74.32
X231.86Y-81.94
X231.87Y-23.08
X231.87Y-30.7
X231.87Y-33.38
X231.87Y-41.0
X231.87Y-53.88
X231.87Y-61.5
X231.87Y-64.13
X231.87Y-71.75
X231.87Y-84.49
X231.87Y-92.11
X231.88Y-94.82
X231.88Y-102.44
X231.88Y-107.56
X231.88Y-115.18
X231.88Y-117.87
X231.88Y-125.49
X231.89Y-140.88
X231.89Y-148.5
X231.9Y-128.17
X231.9Y-135.79
X231.9Y-151.21
X231.9Y-158.83
X234.4Y-43.6
X234.4Y-51.22
X234.4Y-74.32
X234.4Y-81.94
X234.41Y-23.08
X234.41Y-30.7
X234.41Y-33.38
X234.41Y-41.0
X234.41Y-53.88
X234.41Y-61.5
X234.41Y-64.13
X234.41Y-71.75
X234.41Y-84.49
X234.41Y-92.11
X234.42Y-94.82
X234.42Y-102.44
X234.42Y-107.56
X234.42Y-115.18
X234.42Y-117.87
X234.42Y-125.49
X234.43Y-140.88
X234.43Y-148.5
X234.44Y-128.17
X234.44Y-135.79
X234.44Y-151.21
X234.44Y-158.83
X236.94Y-43.6
X236.94Y-51.22
X236.94Y-74.32
X236.94Y-81.94
X236.95Y-23.08
X236.95Y-30.7
X236.95Y-33.38
X236.95Y-41.0
X236.95Y-53.88
X236.95Y-61.5
X236.95Y-64.13
X236.95Y-71.75
X236.95Y-84.49
X236.95Y-92.11
X236.96Y-94.82
X236.96Y-102.44
X236.96Y-107.56
X236.96Y-115.18
X236.96Y-117.87
X236.96Y-125.49
X236.97Y-140.88
X236.97Y-148.5
X236.98Y-128.17
X236.98Y-135.79
X236.98Y-151.21
X236.98Y-158.83
X239.48Y-43.6
X239.48Y-51.22
X239.48Y-74.32
X239.48Y-81.94
X239.49Y-23.08
X239.49Y-30.7
X239.49Y-33.38
X239.49Y-41.0
X239.49Y-53.88
X239.49Y-61.5
X239.49Y-64.13
X239.49Y-71.75
X239.49Y-84.49
X239.49Y-92.11
X239.5Y-94.82
X239.5Y-102.44
X239.5Y-107.56
X239.5Y-115.18
X239.5Y-117.87
X239.5Y-125.49
X239.51Y-140.88
X239.51Y-148.5
X239.52Y-151.21
X239.52Y-158.83
X242.02Y-43.6
X242.02Y-51.22
X242.03Y-23.08
X242.03Y-30.7
X242.03Y-33.38
X242.03Y-41.0
X242.03Y-53.88
X242.03Y-61.5
X242.03Y-64.13
X242.03Y-71.75
X242.03Y-84.49
X242.03Y-92.11
X242.04Y-94.82
X242.04Y-102.44
X242.04Y-117.87
X242.04Y-125.49
X242.05Y-140.88
X242.05Y-148.5
X242.06Y-151.21
X242.06Y-158.83
X242.31Y-128.05
X242.31Y-135.55
X244.58Y-117.87
X244.58Y-125.49
X244.59Y-140.88
X244.59Y-148.5
X244.6Y-151.21
X244.6Y-158.83
X244.8Y-107.7
X244.8Y-115.2
X247.13Y-84.52
X247.13Y-92.02
X247.14Y-33.42
X247.14Y-40.92
X247.14Y-74.3
X247.14Y-81.8
X247.14Y-94.8
X247.14Y-102.3
X247.15Y-43.65
X247.15Y-51.15
X247.15Y-53.9
X247.15Y-61.4
X247.16Y-64.08
X247.16Y-71.58
X247.46Y-128.04
X247.46Y-135.54
X249.95Y-23.08
X249.95Y-30.7
X249.96Y-107.58
X249.96Y-115.2
X249.97Y-117.88
X249.97Y-125.5
X249.99Y-140.88
X249.99Y-148.5
X252.49Y-23.08
X252.49Y-30.7
X252.5Y-33.38
X252.5Y-41.0
X252.5Y-43.63
X252.5Y-51.25
X252.5Y-53.88
X252.5Y-61.5
X252.5Y-64.13
X252.5Y-71.75
X252.5Y-74.38
X252.5Y-82.0
X252.5Y-84.53
X252.5Y-92.15
X252.5Y-94.83
X252.5Y-102.45
X252.5Y-107.58
X252.5Y-115.2
X252.51Y-117.88
X252.51Y-125.5
X252.53Y-128.19
X252.53Y-135.81
X252.53Y-140.88
X252.53Y-148.5
X252.53Y-151.19
X252.53Y-158.81
X255.03Y-23.08
X255.03Y-30.7
X255.04Y-33.38
X255.04Y-41.0
X255.04Y-43.63
X255.04Y-51.25
X255.04Y-53.88
X255.04Y-61.5
X255.04Y-64.13
X255.04Y-71.75
X255.04Y-74.38
X255.04Y-82.0
X255.04Y-84.53
X255.04Y-92.15
X255.04Y-94.83
X255.04Y-102.45
X255.04Y-107.58
X255.04Y-115.2
X255.05Y-117.88
X255.05Y-125.5
X255.07Y-128.19
X255.07Y-135.81
X255.07Y-140.88
X255.07Y-148.5
X255.07Y-151.19
X255.07Y-158.81
X257.57Y-23.08
X257.57Y-30.7
X257.58Y-33.38
X257.58Y-41.0
X257.58Y-43.63
X257.58Y-51.25
X257.58Y-53.88
X257.58Y-61.5
X257.58Y-64.13
X257.58Y-71.75
X257.58Y-74.38
X257.58Y-82.0
X257.58Y-84.53
X257.58Y-92.15
X257.58Y-94.83
X257.58Y-102.45
X257.58Y-107.58
X257.58Y-115.2
X257.59Y-117.88
X257.59Y-125.5
X257.61Y-128.19
X257.61Y-135.81
X257.61Y-140.88
X257.61Y-148.5
X257.61Y-151.19
X257.61Y-158.81
X260.11Y-23.08
X260.11Y-30.7
X260.12Y-33.38
X260.12Y-41.0
X260.12Y-43.63
X260.12Y-51.25
X260.12Y-53.88
X260.12Y-61.5
X260.12Y-64.13
X260.12Y-71.75
X260.12Y-74.38
X260.12Y-82.0
X260.12Y-84.53
X260.12Y-92.15
X260.12Y-94.83
X260.12Y-102.45
X260.12Y-107.58
X260.12Y-115.2
X260.13Y-117.88
X260.13Y-125.5
X260.15Y-128.19
X260.15Y-135.81
X260.15Y-140.88
X260.15Y-148.5
X260.15Y-151.19
X260.15Y-158.81
X262.65Y-23.08
X262.65Y-30.7
X262.66Y-33.38
X262.66Y-41.0
X262.66Y-43.63
X262.66Y-51.25
X262.66Y-53.88
X262.66Y-61.5
X262.66Y-64.13
X262.66Y-71.75
X262.66Y-74.38
X262.66Y-82.0
X262.66Y-84.53
X262.66Y-92.15
X262.66Y-94.83
X262.66Y-102.45
X262.66Y-107.58
X262.66Y-115.2
X262.67Y-117.88
X262.67Y-125.5
X262.69Y-128.19
X262.69Y-135.81
X262.69Y-140.88
X262.69Y-148.5
X262.69Y-151.19
X262.69Y-158.81
X265.19Y-23.08
X265.19Y-30.7
X265.2Y-33.38
X265.2Y-41.0
X265.2Y-43.63
X265.2Y-51.25
X265.2Y-53.88
X265.2Y-61.5
X265.2Y-64.13
X265.2Y-71.75
X265.2Y-74.38
X265.2Y-82.0
X265.2Y-84.53
X265.2Y-92.15
X265.2Y-94.83
X265.2Y-102.45
X265.2Y-107.58
X265.2Y-115.2
X265.21Y-117.88
X265.21Y-125.5
X265.23Y-128.19
X265.23Y-135.81
X265.23Y-140.88
X265.23Y-148.5
X265.23Y-151.19
X265.23Y-158.81
X267.73Y-23.08
X267.73Y-30.7
X267.74Y-33.38
X267.74Y-41.0
X267.74Y-43.63
X267.74Y-51.25
X267.74Y-53.88
X267.74Y-61.5
X267.74Y-64.13
X267.74Y-71.75
X267.74Y-74.38
X267.74Y-82.0
X267.74Y-84.53
X267.74Y-92.15
X267.74Y-94.83
X267.74Y-102.45
X267.74Y-107.58
X267.74Y-115.2
X267.75Y-117.88
X267.75Y-125.5
X267.77Y-128.19
X267.77Y-135.81
X267.77Y-140.88
X267.77Y-148.5
X267.77Y-151.19
X267.77Y-158.81
X270.28Y-33.38
X270.28Y-41.0
X270.28Y-43.63
X270.28Y-51.25
X270.28Y-53.88
X270.28Y-61.5
X270.28Y-64.13
X270.28Y-71.75
X270.28Y-107.58
X270.28Y-115.2
X270.29Y-117.88
X270.29Y-125.5
X270.31Y-128.19
X270.31Y-135.81
X270.31Y-140.88
X270.31Y-148.5
X272.82Y-107.58
X272.82Y-115.2
X272.83Y-117.88
X272.83Y-125.5
X272.85Y-140.88
X272.85Y-148.5
T5
X50.59Y-86.96
X50.59Y-89.5
X53.13Y-86.96
X53.13Y-89.5
X55.67Y-86.96
X55.67Y-89.5
X58.21Y-86.96
X58.21Y-89.5
X60.75Y-86.96
X60.75Y-89.5
X63.29Y-86.96
X63.29Y-89.5
X65.83Y-86.96
X65.83Y-89.5
X68.37Y-86.96
X68.37Y-89.5
X70.91Y-86.96
X70.91Y-89.5
X73.45Y-86.96
X73.45Y-89.5
X75.99Y-86.96
X75.99Y-89.5
X78.53Y-86.96
X78.53Y-89.5
X81.07Y-86.96
X81.07Y-89.5
X83.61Y-86.96
X83.61Y-89.5
X86.15Y-86.96
X86.15Y-89.5
X88.69Y-86.96
X88.69Y-89.5
X91.23Y-86.96
X91.23Y-89.5
X93.77Y-86.96
X93.77Y-89.5
X96.31Y-86.96
X96.31Y-89.5
X98.85Y-86.96
X98.85Y-89.5
T6
X65.9Y-48.4
X65.9Y-68.1
T0
M30
