%TF.GenerationSoftware,KiCad,Pcbnew,(5.1.12)-1*%
%TF.CreationDate,2023-01-17T10:30:05+01:00*%
%TF.ProjectId,Graphics,47726170-6869-4637-932e-6b696361645f,rev?*%
%TF.SameCoordinates,Original*%
%TF.FileFunction,Legend,Top*%
%TF.FilePolarity,Positive*%
%FSLAX46Y46*%
G04 Gerber Fmt 4.6, Leading zero omitted, Abs format (unit mm)*
G04 Created by KiCad (PCBNEW (5.1.12)-1) date 2023-01-17 10:30:05*
%MOMM*%
%LPD*%
G01*
G04 APERTURE LIST*
%ADD10C,0.150000*%
%ADD11C,0.120000*%
%ADD12C,0.254000*%
G04 APERTURE END LIST*
D10*
X245772857Y-145432380D02*
X245772857Y-144765714D01*
X245772857Y-144956190D02*
X245820476Y-144860952D01*
X245868095Y-144813333D01*
X245963333Y-144765714D01*
X246058571Y-144765714D01*
X246772857Y-145384761D02*
X246677619Y-145432380D01*
X246487142Y-145432380D01*
X246391904Y-145384761D01*
X246344285Y-145289523D01*
X246344285Y-144908571D01*
X246391904Y-144813333D01*
X246487142Y-144765714D01*
X246677619Y-144765714D01*
X246772857Y-144813333D01*
X246820476Y-144908571D01*
X246820476Y-145003809D01*
X246344285Y-145099047D01*
X247153809Y-144765714D02*
X247391904Y-145432380D01*
X247630000Y-144765714D01*
X248391904Y-145384761D02*
X248296666Y-145432380D01*
X248106190Y-145432380D01*
X248010952Y-145384761D01*
X247963333Y-145289523D01*
X247963333Y-144908571D01*
X248010952Y-144813333D01*
X248106190Y-144765714D01*
X248296666Y-144765714D01*
X248391904Y-144813333D01*
X248439523Y-144908571D01*
X248439523Y-145003809D01*
X247963333Y-145099047D01*
X248868095Y-145432380D02*
X248868095Y-144765714D01*
X248868095Y-144956190D02*
X248915714Y-144860952D01*
X248963333Y-144813333D01*
X249058571Y-144765714D01*
X249153809Y-144765714D01*
X249439523Y-145384761D02*
X249534761Y-145432380D01*
X249725238Y-145432380D01*
X249820476Y-145384761D01*
X249868095Y-145289523D01*
X249868095Y-145241904D01*
X249820476Y-145146666D01*
X249725238Y-145099047D01*
X249582380Y-145099047D01*
X249487142Y-145051428D01*
X249439523Y-144956190D01*
X249439523Y-144908571D01*
X249487142Y-144813333D01*
X249582380Y-144765714D01*
X249725238Y-144765714D01*
X249820476Y-144813333D01*
X250677619Y-145384761D02*
X250582380Y-145432380D01*
X250391904Y-145432380D01*
X250296666Y-145384761D01*
X250249047Y-145289523D01*
X250249047Y-144908571D01*
X250296666Y-144813333D01*
X250391904Y-144765714D01*
X250582380Y-144765714D01*
X250677619Y-144813333D01*
X250725238Y-144908571D01*
X250725238Y-145003809D01*
X250249047Y-145099047D01*
X252296666Y-145384761D02*
X252201428Y-145432380D01*
X252010952Y-145432380D01*
X251915714Y-145384761D01*
X251868095Y-145289523D01*
X251868095Y-144908571D01*
X251915714Y-144813333D01*
X252010952Y-144765714D01*
X252201428Y-144765714D01*
X252296666Y-144813333D01*
X252344285Y-144908571D01*
X252344285Y-145003809D01*
X251868095Y-145099047D01*
X252772857Y-144765714D02*
X252772857Y-145432380D01*
X252772857Y-144860952D02*
X252820476Y-144813333D01*
X252915714Y-144765714D01*
X253058571Y-144765714D01*
X253153809Y-144813333D01*
X253201428Y-144908571D01*
X253201428Y-145432380D01*
X254106190Y-144765714D02*
X254106190Y-145575238D01*
X254058571Y-145670476D01*
X254010952Y-145718095D01*
X253915714Y-145765714D01*
X253772857Y-145765714D01*
X253677619Y-145718095D01*
X254106190Y-145384761D02*
X254010952Y-145432380D01*
X253820476Y-145432380D01*
X253725238Y-145384761D01*
X253677619Y-145337142D01*
X253630000Y-145241904D01*
X253630000Y-144956190D01*
X253677619Y-144860952D01*
X253725238Y-144813333D01*
X253820476Y-144765714D01*
X254010952Y-144765714D01*
X254106190Y-144813333D01*
X254582380Y-145432380D02*
X254582380Y-144765714D01*
X254582380Y-144432380D02*
X254534761Y-144480000D01*
X254582380Y-144527619D01*
X254630000Y-144480000D01*
X254582380Y-144432380D01*
X254582380Y-144527619D01*
X255058571Y-144765714D02*
X255058571Y-145432380D01*
X255058571Y-144860952D02*
X255106190Y-144813333D01*
X255201428Y-144765714D01*
X255344285Y-144765714D01*
X255439523Y-144813333D01*
X255487142Y-144908571D01*
X255487142Y-145432380D01*
X256344285Y-145384761D02*
X256249047Y-145432380D01*
X256058571Y-145432380D01*
X255963333Y-145384761D01*
X255915714Y-145289523D01*
X255915714Y-144908571D01*
X255963333Y-144813333D01*
X256058571Y-144765714D01*
X256249047Y-144765714D01*
X256344285Y-144813333D01*
X256391904Y-144908571D01*
X256391904Y-145003809D01*
X255915714Y-145099047D01*
X257201428Y-145384761D02*
X257106190Y-145432380D01*
X256915714Y-145432380D01*
X256820476Y-145384761D01*
X256772857Y-145289523D01*
X256772857Y-144908571D01*
X256820476Y-144813333D01*
X256915714Y-144765714D01*
X257106190Y-144765714D01*
X257201428Y-144813333D01*
X257249047Y-144908571D01*
X257249047Y-145003809D01*
X256772857Y-145099047D01*
X257677619Y-145432380D02*
X257677619Y-144765714D01*
X257677619Y-144956190D02*
X257725238Y-144860952D01*
X257772857Y-144813333D01*
X257868095Y-144765714D01*
X257963333Y-144765714D01*
X258296666Y-145432380D02*
X258296666Y-144765714D01*
X258296666Y-144432380D02*
X258249047Y-144480000D01*
X258296666Y-144527619D01*
X258344285Y-144480000D01*
X258296666Y-144432380D01*
X258296666Y-144527619D01*
X258772857Y-144765714D02*
X258772857Y-145432380D01*
X258772857Y-144860952D02*
X258820476Y-144813333D01*
X258915714Y-144765714D01*
X259058571Y-144765714D01*
X259153809Y-144813333D01*
X259201428Y-144908571D01*
X259201428Y-145432380D01*
X260106190Y-144765714D02*
X260106190Y-145575238D01*
X260058571Y-145670476D01*
X260010952Y-145718095D01*
X259915714Y-145765714D01*
X259772857Y-145765714D01*
X259677619Y-145718095D01*
X260106190Y-145384761D02*
X260010952Y-145432380D01*
X259820476Y-145432380D01*
X259725238Y-145384761D01*
X259677619Y-145337142D01*
X259630000Y-145241904D01*
X259630000Y-144956190D01*
X259677619Y-144860952D01*
X259725238Y-144813333D01*
X259820476Y-144765714D01*
X260010952Y-144765714D01*
X260106190Y-144813333D01*
X261344285Y-145432380D02*
X261344285Y-144432380D01*
X261344285Y-144813333D02*
X261439523Y-144765714D01*
X261630000Y-144765714D01*
X261725238Y-144813333D01*
X261772857Y-144860952D01*
X261820476Y-144956190D01*
X261820476Y-145241904D01*
X261772857Y-145337142D01*
X261725238Y-145384761D01*
X261630000Y-145432380D01*
X261439523Y-145432380D01*
X261344285Y-145384761D01*
X262153809Y-144765714D02*
X262391904Y-145432380D01*
X262630000Y-144765714D02*
X262391904Y-145432380D01*
X262296666Y-145670476D01*
X262249047Y-145718095D01*
X262153809Y-145765714D01*
X263772857Y-145432380D02*
X263772857Y-144432380D01*
X264344285Y-145432380D01*
X264344285Y-144432380D01*
X264820476Y-145432380D02*
X264820476Y-144765714D01*
X264820476Y-144432380D02*
X264772857Y-144480000D01*
X264820476Y-144527619D01*
X264868095Y-144480000D01*
X264820476Y-144432380D01*
X264820476Y-144527619D01*
X265725238Y-145384761D02*
X265630000Y-145432380D01*
X265439523Y-145432380D01*
X265344285Y-145384761D01*
X265296666Y-145337142D01*
X265249047Y-145241904D01*
X265249047Y-144956190D01*
X265296666Y-144860952D01*
X265344285Y-144813333D01*
X265439523Y-144765714D01*
X265630000Y-144765714D01*
X265725238Y-144813333D01*
X266296666Y-145432380D02*
X266201428Y-145384761D01*
X266153809Y-145337142D01*
X266106190Y-145241904D01*
X266106190Y-144956190D01*
X266153809Y-144860952D01*
X266201428Y-144813333D01*
X266296666Y-144765714D01*
X266439523Y-144765714D01*
X266534761Y-144813333D01*
X266582380Y-144860952D01*
X266630000Y-144956190D01*
X266630000Y-145241904D01*
X266582380Y-145337142D01*
X266534761Y-145384761D01*
X266439523Y-145432380D01*
X266296666Y-145432380D01*
X267201428Y-145432380D02*
X267106190Y-145384761D01*
X267058571Y-145289523D01*
X267058571Y-144432380D01*
X268010952Y-145432380D02*
X268010952Y-144908571D01*
X267963333Y-144813333D01*
X267868095Y-144765714D01*
X267677619Y-144765714D01*
X267582380Y-144813333D01*
X268010952Y-145384761D02*
X267915714Y-145432380D01*
X267677619Y-145432380D01*
X267582380Y-145384761D01*
X267534761Y-145289523D01*
X267534761Y-145194285D01*
X267582380Y-145099047D01*
X267677619Y-145051428D01*
X267915714Y-145051428D01*
X268010952Y-145003809D01*
X269201428Y-145146666D02*
X269677619Y-145146666D01*
X269106190Y-145432380D02*
X269439523Y-144432380D01*
X269772857Y-145432380D01*
X270010952Y-144765714D02*
X270249047Y-145432380D01*
X270487142Y-144765714D01*
X271296666Y-145432380D02*
X271296666Y-144908571D01*
X271249047Y-144813333D01*
X271153809Y-144765714D01*
X270963333Y-144765714D01*
X270868095Y-144813333D01*
X271296666Y-145384761D02*
X271201428Y-145432380D01*
X270963333Y-145432380D01*
X270868095Y-145384761D01*
X270820476Y-145289523D01*
X270820476Y-145194285D01*
X270868095Y-145099047D01*
X270963333Y-145051428D01*
X271201428Y-145051428D01*
X271296666Y-145003809D01*
X271772857Y-144765714D02*
X271772857Y-145432380D01*
X271772857Y-144860952D02*
X271820476Y-144813333D01*
X271915714Y-144765714D01*
X272058571Y-144765714D01*
X272153809Y-144813333D01*
X272201428Y-144908571D01*
X272201428Y-145432380D01*
X272582380Y-144765714D02*
X273106190Y-144765714D01*
X272582380Y-145432380D01*
X273106190Y-145432380D01*
X273487142Y-145432380D02*
X273487142Y-144765714D01*
X273487142Y-144432380D02*
X273439523Y-144480000D01*
X273487142Y-144527619D01*
X273534761Y-144480000D01*
X273487142Y-144432380D01*
X273487142Y-144527619D01*
D11*
%TO.C,C50*%
X156050000Y-127490000D02*
X154250000Y-127490000D01*
X155150000Y-126590000D02*
X155150000Y-128390000D01*
%TO.C,U17*%
D10*
X75512380Y-37278095D02*
X76321904Y-37278095D01*
X76417142Y-37230476D01*
X76464761Y-37182857D01*
X76512380Y-37087619D01*
X76512380Y-36897142D01*
X76464761Y-36801904D01*
X76417142Y-36754285D01*
X76321904Y-36706666D01*
X75512380Y-36706666D01*
X76512380Y-35706666D02*
X76512380Y-36278095D01*
X76512380Y-35992380D02*
X75512380Y-35992380D01*
X75655238Y-36087619D01*
X75750476Y-36182857D01*
X75798095Y-36278095D01*
X75512380Y-35373333D02*
X75512380Y-34706666D01*
X76512380Y-35135238D01*
%TO.C,U8*%
X75112380Y-27451904D02*
X75921904Y-27451904D01*
X76017142Y-27404285D01*
X76064761Y-27356666D01*
X76112380Y-27261428D01*
X76112380Y-27070952D01*
X76064761Y-26975714D01*
X76017142Y-26928095D01*
X75921904Y-26880476D01*
X75112380Y-26880476D01*
X75540952Y-26261428D02*
X75493333Y-26356666D01*
X75445714Y-26404285D01*
X75350476Y-26451904D01*
X75302857Y-26451904D01*
X75207619Y-26404285D01*
X75160000Y-26356666D01*
X75112380Y-26261428D01*
X75112380Y-26070952D01*
X75160000Y-25975714D01*
X75207619Y-25928095D01*
X75302857Y-25880476D01*
X75350476Y-25880476D01*
X75445714Y-25928095D01*
X75493333Y-25975714D01*
X75540952Y-26070952D01*
X75540952Y-26261428D01*
X75588571Y-26356666D01*
X75636190Y-26404285D01*
X75731428Y-26451904D01*
X75921904Y-26451904D01*
X76017142Y-26404285D01*
X76064761Y-26356666D01*
X76112380Y-26261428D01*
X76112380Y-26070952D01*
X76064761Y-25975714D01*
X76017142Y-25928095D01*
X75921904Y-25880476D01*
X75731428Y-25880476D01*
X75636190Y-25928095D01*
X75588571Y-25975714D01*
X75540952Y-26070952D01*
%TO.C,C3*%
X68737142Y-28246666D02*
X68784761Y-28294285D01*
X68832380Y-28437142D01*
X68832380Y-28532380D01*
X68784761Y-28675238D01*
X68689523Y-28770476D01*
X68594285Y-28818095D01*
X68403809Y-28865714D01*
X68260952Y-28865714D01*
X68070476Y-28818095D01*
X67975238Y-28770476D01*
X67880000Y-28675238D01*
X67832380Y-28532380D01*
X67832380Y-28437142D01*
X67880000Y-28294285D01*
X67927619Y-28246666D01*
X67832380Y-27913333D02*
X67832380Y-27294285D01*
X68213333Y-27627619D01*
X68213333Y-27484761D01*
X68260952Y-27389523D01*
X68308571Y-27341904D01*
X68403809Y-27294285D01*
X68641904Y-27294285D01*
X68737142Y-27341904D01*
X68784761Y-27389523D01*
X68832380Y-27484761D01*
X68832380Y-27770476D01*
X68784761Y-27865714D01*
X68737142Y-27913333D01*
%TO.C,R1*%
X66182380Y-28126666D02*
X65706190Y-28460000D01*
X66182380Y-28698095D02*
X65182380Y-28698095D01*
X65182380Y-28317142D01*
X65230000Y-28221904D01*
X65277619Y-28174285D01*
X65372857Y-28126666D01*
X65515714Y-28126666D01*
X65610952Y-28174285D01*
X65658571Y-28221904D01*
X65706190Y-28317142D01*
X65706190Y-28698095D01*
X66182380Y-27174285D02*
X66182380Y-27745714D01*
X66182380Y-27460000D02*
X65182380Y-27460000D01*
X65325238Y-27555238D01*
X65420476Y-27650476D01*
X65468095Y-27745714D01*
%TO.C,R2*%
X63642380Y-25996666D02*
X63166190Y-26330000D01*
X63642380Y-26568095D02*
X62642380Y-26568095D01*
X62642380Y-26187142D01*
X62690000Y-26091904D01*
X62737619Y-26044285D01*
X62832857Y-25996666D01*
X62975714Y-25996666D01*
X63070952Y-26044285D01*
X63118571Y-26091904D01*
X63166190Y-26187142D01*
X63166190Y-26568095D01*
X62737619Y-25615714D02*
X62690000Y-25568095D01*
X62642380Y-25472857D01*
X62642380Y-25234761D01*
X62690000Y-25139523D01*
X62737619Y-25091904D01*
X62832857Y-25044285D01*
X62928095Y-25044285D01*
X63070952Y-25091904D01*
X63642380Y-25663333D01*
X63642380Y-25044285D01*
%TO.C,R4*%
X58312380Y-29986666D02*
X57836190Y-30320000D01*
X58312380Y-30558095D02*
X57312380Y-30558095D01*
X57312380Y-30177142D01*
X57360000Y-30081904D01*
X57407619Y-30034285D01*
X57502857Y-29986666D01*
X57645714Y-29986666D01*
X57740952Y-30034285D01*
X57788571Y-30081904D01*
X57836190Y-30177142D01*
X57836190Y-30558095D01*
X57645714Y-29129523D02*
X58312380Y-29129523D01*
X57264761Y-29367619D02*
X57979047Y-29605714D01*
X57979047Y-28986666D01*
%TO.C,R3*%
X60972380Y-30036666D02*
X60496190Y-30370000D01*
X60972380Y-30608095D02*
X59972380Y-30608095D01*
X59972380Y-30227142D01*
X60020000Y-30131904D01*
X60067619Y-30084285D01*
X60162857Y-30036666D01*
X60305714Y-30036666D01*
X60400952Y-30084285D01*
X60448571Y-30131904D01*
X60496190Y-30227142D01*
X60496190Y-30608095D01*
X59972380Y-29703333D02*
X59972380Y-29084285D01*
X60353333Y-29417619D01*
X60353333Y-29274761D01*
X60400952Y-29179523D01*
X60448571Y-29131904D01*
X60543809Y-29084285D01*
X60781904Y-29084285D01*
X60877142Y-29131904D01*
X60924761Y-29179523D01*
X60972380Y-29274761D01*
X60972380Y-29560476D01*
X60924761Y-29655714D01*
X60877142Y-29703333D01*
%TO.C,R5*%
X55722380Y-26666666D02*
X55246190Y-27000000D01*
X55722380Y-27238095D02*
X54722380Y-27238095D01*
X54722380Y-26857142D01*
X54770000Y-26761904D01*
X54817619Y-26714285D01*
X54912857Y-26666666D01*
X55055714Y-26666666D01*
X55150952Y-26714285D01*
X55198571Y-26761904D01*
X55246190Y-26857142D01*
X55246190Y-27238095D01*
X54722380Y-25761904D02*
X54722380Y-26238095D01*
X55198571Y-26285714D01*
X55150952Y-26238095D01*
X55103333Y-26142857D01*
X55103333Y-25904761D01*
X55150952Y-25809523D01*
X55198571Y-25761904D01*
X55293809Y-25714285D01*
X55531904Y-25714285D01*
X55627142Y-25761904D01*
X55674761Y-25809523D01*
X55722380Y-25904761D01*
X55722380Y-26142857D01*
X55674761Y-26238095D01*
X55627142Y-26285714D01*
%TO.C,U9*%
X34202380Y-27201904D02*
X35011904Y-27201904D01*
X35107142Y-27154285D01*
X35154761Y-27106666D01*
X35202380Y-27011428D01*
X35202380Y-26820952D01*
X35154761Y-26725714D01*
X35107142Y-26678095D01*
X35011904Y-26630476D01*
X34202380Y-26630476D01*
X35202380Y-26106666D02*
X35202380Y-25916190D01*
X35154761Y-25820952D01*
X35107142Y-25773333D01*
X34964285Y-25678095D01*
X34773809Y-25630476D01*
X34392857Y-25630476D01*
X34297619Y-25678095D01*
X34250000Y-25725714D01*
X34202380Y-25820952D01*
X34202380Y-26011428D01*
X34250000Y-26106666D01*
X34297619Y-26154285D01*
X34392857Y-26201904D01*
X34630952Y-26201904D01*
X34726190Y-26154285D01*
X34773809Y-26106666D01*
X34821428Y-26011428D01*
X34821428Y-25820952D01*
X34773809Y-25725714D01*
X34726190Y-25678095D01*
X34630952Y-25630476D01*
%TO.C,U18*%
X34212380Y-38208095D02*
X35021904Y-38208095D01*
X35117142Y-38160476D01*
X35164761Y-38112857D01*
X35212380Y-38017619D01*
X35212380Y-37827142D01*
X35164761Y-37731904D01*
X35117142Y-37684285D01*
X35021904Y-37636666D01*
X34212380Y-37636666D01*
X35212380Y-36636666D02*
X35212380Y-37208095D01*
X35212380Y-36922380D02*
X34212380Y-36922380D01*
X34355238Y-37017619D01*
X34450476Y-37112857D01*
X34498095Y-37208095D01*
X34640952Y-36065238D02*
X34593333Y-36160476D01*
X34545714Y-36208095D01*
X34450476Y-36255714D01*
X34402857Y-36255714D01*
X34307619Y-36208095D01*
X34260000Y-36160476D01*
X34212380Y-36065238D01*
X34212380Y-35874761D01*
X34260000Y-35779523D01*
X34307619Y-35731904D01*
X34402857Y-35684285D01*
X34450476Y-35684285D01*
X34545714Y-35731904D01*
X34593333Y-35779523D01*
X34640952Y-35874761D01*
X34640952Y-36065238D01*
X34688571Y-36160476D01*
X34736190Y-36208095D01*
X34831428Y-36255714D01*
X35021904Y-36255714D01*
X35117142Y-36208095D01*
X35164761Y-36160476D01*
X35212380Y-36065238D01*
X35212380Y-35874761D01*
X35164761Y-35779523D01*
X35117142Y-35731904D01*
X35021904Y-35684285D01*
X34831428Y-35684285D01*
X34736190Y-35731904D01*
X34688571Y-35779523D01*
X34640952Y-35874761D01*
%TO.C,R11*%
X55752380Y-41542857D02*
X55276190Y-41876190D01*
X55752380Y-42114285D02*
X54752380Y-42114285D01*
X54752380Y-41733333D01*
X54800000Y-41638095D01*
X54847619Y-41590476D01*
X54942857Y-41542857D01*
X55085714Y-41542857D01*
X55180952Y-41590476D01*
X55228571Y-41638095D01*
X55276190Y-41733333D01*
X55276190Y-42114285D01*
X55752380Y-40590476D02*
X55752380Y-41161904D01*
X55752380Y-40876190D02*
X54752380Y-40876190D01*
X54895238Y-40971428D01*
X54990476Y-41066666D01*
X55038095Y-41161904D01*
X55752380Y-39638095D02*
X55752380Y-40209523D01*
X55752380Y-39923809D02*
X54752380Y-39923809D01*
X54895238Y-40019047D01*
X54990476Y-40114285D01*
X55038095Y-40209523D01*
%TO.C,R10*%
X58372380Y-41562857D02*
X57896190Y-41896190D01*
X58372380Y-42134285D02*
X57372380Y-42134285D01*
X57372380Y-41753333D01*
X57420000Y-41658095D01*
X57467619Y-41610476D01*
X57562857Y-41562857D01*
X57705714Y-41562857D01*
X57800952Y-41610476D01*
X57848571Y-41658095D01*
X57896190Y-41753333D01*
X57896190Y-42134285D01*
X58372380Y-40610476D02*
X58372380Y-41181904D01*
X58372380Y-40896190D02*
X57372380Y-40896190D01*
X57515238Y-40991428D01*
X57610476Y-41086666D01*
X57658095Y-41181904D01*
X57372380Y-39991428D02*
X57372380Y-39896190D01*
X57420000Y-39800952D01*
X57467619Y-39753333D01*
X57562857Y-39705714D01*
X57753333Y-39658095D01*
X57991428Y-39658095D01*
X58181904Y-39705714D01*
X58277142Y-39753333D01*
X58324761Y-39800952D01*
X58372380Y-39896190D01*
X58372380Y-39991428D01*
X58324761Y-40086666D01*
X58277142Y-40134285D01*
X58181904Y-40181904D01*
X57991428Y-40229523D01*
X57753333Y-40229523D01*
X57562857Y-40181904D01*
X57467619Y-40134285D01*
X57420000Y-40086666D01*
X57372380Y-39991428D01*
%TO.C,R9*%
X60962380Y-41146666D02*
X60486190Y-41480000D01*
X60962380Y-41718095D02*
X59962380Y-41718095D01*
X59962380Y-41337142D01*
X60010000Y-41241904D01*
X60057619Y-41194285D01*
X60152857Y-41146666D01*
X60295714Y-41146666D01*
X60390952Y-41194285D01*
X60438571Y-41241904D01*
X60486190Y-41337142D01*
X60486190Y-41718095D01*
X60962380Y-40670476D02*
X60962380Y-40480000D01*
X60914761Y-40384761D01*
X60867142Y-40337142D01*
X60724285Y-40241904D01*
X60533809Y-40194285D01*
X60152857Y-40194285D01*
X60057619Y-40241904D01*
X60010000Y-40289523D01*
X59962380Y-40384761D01*
X59962380Y-40575238D01*
X60010000Y-40670476D01*
X60057619Y-40718095D01*
X60152857Y-40765714D01*
X60390952Y-40765714D01*
X60486190Y-40718095D01*
X60533809Y-40670476D01*
X60581428Y-40575238D01*
X60581428Y-40384761D01*
X60533809Y-40289523D01*
X60486190Y-40241904D01*
X60390952Y-40194285D01*
%TO.C,R8*%
X63622380Y-41006666D02*
X63146190Y-41340000D01*
X63622380Y-41578095D02*
X62622380Y-41578095D01*
X62622380Y-41197142D01*
X62670000Y-41101904D01*
X62717619Y-41054285D01*
X62812857Y-41006666D01*
X62955714Y-41006666D01*
X63050952Y-41054285D01*
X63098571Y-41101904D01*
X63146190Y-41197142D01*
X63146190Y-41578095D01*
X63050952Y-40435238D02*
X63003333Y-40530476D01*
X62955714Y-40578095D01*
X62860476Y-40625714D01*
X62812857Y-40625714D01*
X62717619Y-40578095D01*
X62670000Y-40530476D01*
X62622380Y-40435238D01*
X62622380Y-40244761D01*
X62670000Y-40149523D01*
X62717619Y-40101904D01*
X62812857Y-40054285D01*
X62860476Y-40054285D01*
X62955714Y-40101904D01*
X63003333Y-40149523D01*
X63050952Y-40244761D01*
X63050952Y-40435238D01*
X63098571Y-40530476D01*
X63146190Y-40578095D01*
X63241428Y-40625714D01*
X63431904Y-40625714D01*
X63527142Y-40578095D01*
X63574761Y-40530476D01*
X63622380Y-40435238D01*
X63622380Y-40244761D01*
X63574761Y-40149523D01*
X63527142Y-40101904D01*
X63431904Y-40054285D01*
X63241428Y-40054285D01*
X63146190Y-40101904D01*
X63098571Y-40149523D01*
X63050952Y-40244761D01*
%TO.C,R7*%
X66152380Y-41086666D02*
X65676190Y-41420000D01*
X66152380Y-41658095D02*
X65152380Y-41658095D01*
X65152380Y-41277142D01*
X65200000Y-41181904D01*
X65247619Y-41134285D01*
X65342857Y-41086666D01*
X65485714Y-41086666D01*
X65580952Y-41134285D01*
X65628571Y-41181904D01*
X65676190Y-41277142D01*
X65676190Y-41658095D01*
X65152380Y-40753333D02*
X65152380Y-40086666D01*
X66152380Y-40515238D01*
%TO.C,C8*%
X27832142Y-37021666D02*
X27879761Y-37069285D01*
X27927380Y-37212142D01*
X27927380Y-37307380D01*
X27879761Y-37450238D01*
X27784523Y-37545476D01*
X27689285Y-37593095D01*
X27498809Y-37640714D01*
X27355952Y-37640714D01*
X27165476Y-37593095D01*
X27070238Y-37545476D01*
X26975000Y-37450238D01*
X26927380Y-37307380D01*
X26927380Y-37212142D01*
X26975000Y-37069285D01*
X27022619Y-37021666D01*
X27355952Y-36450238D02*
X27308333Y-36545476D01*
X27260714Y-36593095D01*
X27165476Y-36640714D01*
X27117857Y-36640714D01*
X27022619Y-36593095D01*
X26975000Y-36545476D01*
X26927380Y-36450238D01*
X26927380Y-36259761D01*
X26975000Y-36164523D01*
X27022619Y-36116904D01*
X27117857Y-36069285D01*
X27165476Y-36069285D01*
X27260714Y-36116904D01*
X27308333Y-36164523D01*
X27355952Y-36259761D01*
X27355952Y-36450238D01*
X27403571Y-36545476D01*
X27451190Y-36593095D01*
X27546428Y-36640714D01*
X27736904Y-36640714D01*
X27832142Y-36593095D01*
X27879761Y-36545476D01*
X27927380Y-36450238D01*
X27927380Y-36259761D01*
X27879761Y-36164523D01*
X27832142Y-36116904D01*
X27736904Y-36069285D01*
X27546428Y-36069285D01*
X27451190Y-36116904D01*
X27403571Y-36164523D01*
X27355952Y-36259761D01*
%TO.C,U27*%
X34872380Y-48468095D02*
X35681904Y-48468095D01*
X35777142Y-48420476D01*
X35824761Y-48372857D01*
X35872380Y-48277619D01*
X35872380Y-48087142D01*
X35824761Y-47991904D01*
X35777142Y-47944285D01*
X35681904Y-47896666D01*
X34872380Y-47896666D01*
X34967619Y-47468095D02*
X34920000Y-47420476D01*
X34872380Y-47325238D01*
X34872380Y-47087142D01*
X34920000Y-46991904D01*
X34967619Y-46944285D01*
X35062857Y-46896666D01*
X35158095Y-46896666D01*
X35300952Y-46944285D01*
X35872380Y-47515714D01*
X35872380Y-46896666D01*
X34872380Y-46563333D02*
X34872380Y-45896666D01*
X35872380Y-46325238D01*
%TO.C,C12*%
X27847142Y-47657857D02*
X27894761Y-47705476D01*
X27942380Y-47848333D01*
X27942380Y-47943571D01*
X27894761Y-48086428D01*
X27799523Y-48181666D01*
X27704285Y-48229285D01*
X27513809Y-48276904D01*
X27370952Y-48276904D01*
X27180476Y-48229285D01*
X27085238Y-48181666D01*
X26990000Y-48086428D01*
X26942380Y-47943571D01*
X26942380Y-47848333D01*
X26990000Y-47705476D01*
X27037619Y-47657857D01*
X27942380Y-46705476D02*
X27942380Y-47276904D01*
X27942380Y-46991190D02*
X26942380Y-46991190D01*
X27085238Y-47086428D01*
X27180476Y-47181666D01*
X27228095Y-47276904D01*
X27037619Y-46324523D02*
X26990000Y-46276904D01*
X26942380Y-46181666D01*
X26942380Y-45943571D01*
X26990000Y-45848333D01*
X27037619Y-45800714D01*
X27132857Y-45753095D01*
X27228095Y-45753095D01*
X27370952Y-45800714D01*
X27942380Y-46372142D01*
X27942380Y-45753095D01*
%TO.C,U26*%
X80342380Y-51378095D02*
X81151904Y-51378095D01*
X81247142Y-51330476D01*
X81294761Y-51282857D01*
X81342380Y-51187619D01*
X81342380Y-50997142D01*
X81294761Y-50901904D01*
X81247142Y-50854285D01*
X81151904Y-50806666D01*
X80342380Y-50806666D01*
X80437619Y-50378095D02*
X80390000Y-50330476D01*
X80342380Y-50235238D01*
X80342380Y-49997142D01*
X80390000Y-49901904D01*
X80437619Y-49854285D01*
X80532857Y-49806666D01*
X80628095Y-49806666D01*
X80770952Y-49854285D01*
X81342380Y-50425714D01*
X81342380Y-49806666D01*
X80342380Y-48949523D02*
X80342380Y-49140000D01*
X80390000Y-49235238D01*
X80437619Y-49282857D01*
X80580476Y-49378095D01*
X80770952Y-49425714D01*
X81151904Y-49425714D01*
X81247142Y-49378095D01*
X81294761Y-49330476D01*
X81342380Y-49235238D01*
X81342380Y-49044761D01*
X81294761Y-48949523D01*
X81247142Y-48901904D01*
X81151904Y-48854285D01*
X80913809Y-48854285D01*
X80818571Y-48901904D01*
X80770952Y-48949523D01*
X80723333Y-49044761D01*
X80723333Y-49235238D01*
X80770952Y-49330476D01*
X80818571Y-49378095D01*
X80913809Y-49425714D01*
%TO.C,U34*%
X78102380Y-61398095D02*
X78911904Y-61398095D01*
X79007142Y-61350476D01*
X79054761Y-61302857D01*
X79102380Y-61207619D01*
X79102380Y-61017142D01*
X79054761Y-60921904D01*
X79007142Y-60874285D01*
X78911904Y-60826666D01*
X78102380Y-60826666D01*
X78102380Y-60445714D02*
X78102380Y-59826666D01*
X78483333Y-60160000D01*
X78483333Y-60017142D01*
X78530952Y-59921904D01*
X78578571Y-59874285D01*
X78673809Y-59826666D01*
X78911904Y-59826666D01*
X79007142Y-59874285D01*
X79054761Y-59921904D01*
X79102380Y-60017142D01*
X79102380Y-60302857D01*
X79054761Y-60398095D01*
X79007142Y-60445714D01*
X78435714Y-58969523D02*
X79102380Y-58969523D01*
X78054761Y-59207619D02*
X78769047Y-59445714D01*
X78769047Y-58826666D01*
%TO.C,R29*%
D12*
X66554523Y-59126428D02*
X65949761Y-59549761D01*
X66554523Y-59852142D02*
X65284523Y-59852142D01*
X65284523Y-59368333D01*
X65345000Y-59247380D01*
X65405476Y-59186904D01*
X65526428Y-59126428D01*
X65707857Y-59126428D01*
X65828809Y-59186904D01*
X65889285Y-59247380D01*
X65949761Y-59368333D01*
X65949761Y-59852142D01*
X65405476Y-58642619D02*
X65345000Y-58582142D01*
X65284523Y-58461190D01*
X65284523Y-58158809D01*
X65345000Y-58037857D01*
X65405476Y-57977380D01*
X65526428Y-57916904D01*
X65647380Y-57916904D01*
X65828809Y-57977380D01*
X66554523Y-58703095D01*
X66554523Y-57916904D01*
X66554523Y-57312142D02*
X66554523Y-57070238D01*
X66494047Y-56949285D01*
X66433571Y-56888809D01*
X66252142Y-56767857D01*
X66010238Y-56707380D01*
X65526428Y-56707380D01*
X65405476Y-56767857D01*
X65345000Y-56828333D01*
X65284523Y-56949285D01*
X65284523Y-57191190D01*
X65345000Y-57312142D01*
X65405476Y-57372619D01*
X65526428Y-57433095D01*
X65828809Y-57433095D01*
X65949761Y-57372619D01*
X66010238Y-57312142D01*
X66070714Y-57191190D01*
X66070714Y-56949285D01*
X66010238Y-56828333D01*
X65949761Y-56767857D01*
X65828809Y-56707380D01*
%TO.C,R16*%
D10*
X61102380Y-57002857D02*
X60626190Y-57336190D01*
X61102380Y-57574285D02*
X60102380Y-57574285D01*
X60102380Y-57193333D01*
X60150000Y-57098095D01*
X60197619Y-57050476D01*
X60292857Y-57002857D01*
X60435714Y-57002857D01*
X60530952Y-57050476D01*
X60578571Y-57098095D01*
X60626190Y-57193333D01*
X60626190Y-57574285D01*
X61102380Y-56050476D02*
X61102380Y-56621904D01*
X61102380Y-56336190D02*
X60102380Y-56336190D01*
X60245238Y-56431428D01*
X60340476Y-56526666D01*
X60388095Y-56621904D01*
X60102380Y-55193333D02*
X60102380Y-55383809D01*
X60150000Y-55479047D01*
X60197619Y-55526666D01*
X60340476Y-55621904D01*
X60530952Y-55669523D01*
X60911904Y-55669523D01*
X61007142Y-55621904D01*
X61054761Y-55574285D01*
X61102380Y-55479047D01*
X61102380Y-55288571D01*
X61054761Y-55193333D01*
X61007142Y-55145714D01*
X60911904Y-55098095D01*
X60673809Y-55098095D01*
X60578571Y-55145714D01*
X60530952Y-55193333D01*
X60483333Y-55288571D01*
X60483333Y-55479047D01*
X60530952Y-55574285D01*
X60578571Y-55621904D01*
X60673809Y-55669523D01*
%TO.C,R17*%
X58322380Y-59092857D02*
X57846190Y-59426190D01*
X58322380Y-59664285D02*
X57322380Y-59664285D01*
X57322380Y-59283333D01*
X57370000Y-59188095D01*
X57417619Y-59140476D01*
X57512857Y-59092857D01*
X57655714Y-59092857D01*
X57750952Y-59140476D01*
X57798571Y-59188095D01*
X57846190Y-59283333D01*
X57846190Y-59664285D01*
X58322380Y-58140476D02*
X58322380Y-58711904D01*
X58322380Y-58426190D02*
X57322380Y-58426190D01*
X57465238Y-58521428D01*
X57560476Y-58616666D01*
X57608095Y-58711904D01*
X57322380Y-57807142D02*
X57322380Y-57140476D01*
X58322380Y-57569047D01*
%TO.C,R18*%
X55622380Y-59122857D02*
X55146190Y-59456190D01*
X55622380Y-59694285D02*
X54622380Y-59694285D01*
X54622380Y-59313333D01*
X54670000Y-59218095D01*
X54717619Y-59170476D01*
X54812857Y-59122857D01*
X54955714Y-59122857D01*
X55050952Y-59170476D01*
X55098571Y-59218095D01*
X55146190Y-59313333D01*
X55146190Y-59694285D01*
X55622380Y-58170476D02*
X55622380Y-58741904D01*
X55622380Y-58456190D02*
X54622380Y-58456190D01*
X54765238Y-58551428D01*
X54860476Y-58646666D01*
X54908095Y-58741904D01*
X55050952Y-57599047D02*
X55003333Y-57694285D01*
X54955714Y-57741904D01*
X54860476Y-57789523D01*
X54812857Y-57789523D01*
X54717619Y-57741904D01*
X54670000Y-57694285D01*
X54622380Y-57599047D01*
X54622380Y-57408571D01*
X54670000Y-57313333D01*
X54717619Y-57265714D01*
X54812857Y-57218095D01*
X54860476Y-57218095D01*
X54955714Y-57265714D01*
X55003333Y-57313333D01*
X55050952Y-57408571D01*
X55050952Y-57599047D01*
X55098571Y-57694285D01*
X55146190Y-57741904D01*
X55241428Y-57789523D01*
X55431904Y-57789523D01*
X55527142Y-57741904D01*
X55574761Y-57694285D01*
X55622380Y-57599047D01*
X55622380Y-57408571D01*
X55574761Y-57313333D01*
X55527142Y-57265714D01*
X55431904Y-57218095D01*
X55241428Y-57218095D01*
X55146190Y-57265714D01*
X55098571Y-57313333D01*
X55050952Y-57408571D01*
%TO.C,U35*%
X32432380Y-58848095D02*
X33241904Y-58848095D01*
X33337142Y-58800476D01*
X33384761Y-58752857D01*
X33432380Y-58657619D01*
X33432380Y-58467142D01*
X33384761Y-58371904D01*
X33337142Y-58324285D01*
X33241904Y-58276666D01*
X32432380Y-58276666D01*
X32432380Y-57895714D02*
X32432380Y-57276666D01*
X32813333Y-57610000D01*
X32813333Y-57467142D01*
X32860952Y-57371904D01*
X32908571Y-57324285D01*
X33003809Y-57276666D01*
X33241904Y-57276666D01*
X33337142Y-57324285D01*
X33384761Y-57371904D01*
X33432380Y-57467142D01*
X33432380Y-57752857D01*
X33384761Y-57848095D01*
X33337142Y-57895714D01*
X32432380Y-56371904D02*
X32432380Y-56848095D01*
X32908571Y-56895714D01*
X32860952Y-56848095D01*
X32813333Y-56752857D01*
X32813333Y-56514761D01*
X32860952Y-56419523D01*
X32908571Y-56371904D01*
X33003809Y-56324285D01*
X33241904Y-56324285D01*
X33337142Y-56371904D01*
X33384761Y-56419523D01*
X33432380Y-56514761D01*
X33432380Y-56752857D01*
X33384761Y-56848095D01*
X33337142Y-56895714D01*
%TO.C,C19*%
X27852142Y-57912857D02*
X27899761Y-57960476D01*
X27947380Y-58103333D01*
X27947380Y-58198571D01*
X27899761Y-58341428D01*
X27804523Y-58436666D01*
X27709285Y-58484285D01*
X27518809Y-58531904D01*
X27375952Y-58531904D01*
X27185476Y-58484285D01*
X27090238Y-58436666D01*
X26995000Y-58341428D01*
X26947380Y-58198571D01*
X26947380Y-58103333D01*
X26995000Y-57960476D01*
X27042619Y-57912857D01*
X27947380Y-56960476D02*
X27947380Y-57531904D01*
X27947380Y-57246190D02*
X26947380Y-57246190D01*
X27090238Y-57341428D01*
X27185476Y-57436666D01*
X27233095Y-57531904D01*
X27947380Y-56484285D02*
X27947380Y-56293809D01*
X27899761Y-56198571D01*
X27852142Y-56150952D01*
X27709285Y-56055714D01*
X27518809Y-56008095D01*
X27137857Y-56008095D01*
X27042619Y-56055714D01*
X26995000Y-56103333D01*
X26947380Y-56198571D01*
X26947380Y-56389047D01*
X26995000Y-56484285D01*
X27042619Y-56531904D01*
X27137857Y-56579523D01*
X27375952Y-56579523D01*
X27471190Y-56531904D01*
X27518809Y-56484285D01*
X27566428Y-56389047D01*
X27566428Y-56198571D01*
X27518809Y-56103333D01*
X27471190Y-56055714D01*
X27375952Y-56008095D01*
%TO.C,C20*%
X27842142Y-68092857D02*
X27889761Y-68140476D01*
X27937380Y-68283333D01*
X27937380Y-68378571D01*
X27889761Y-68521428D01*
X27794523Y-68616666D01*
X27699285Y-68664285D01*
X27508809Y-68711904D01*
X27365952Y-68711904D01*
X27175476Y-68664285D01*
X27080238Y-68616666D01*
X26985000Y-68521428D01*
X26937380Y-68378571D01*
X26937380Y-68283333D01*
X26985000Y-68140476D01*
X27032619Y-68092857D01*
X27032619Y-67711904D02*
X26985000Y-67664285D01*
X26937380Y-67569047D01*
X26937380Y-67330952D01*
X26985000Y-67235714D01*
X27032619Y-67188095D01*
X27127857Y-67140476D01*
X27223095Y-67140476D01*
X27365952Y-67188095D01*
X27937380Y-67759523D01*
X27937380Y-67140476D01*
X26937380Y-66521428D02*
X26937380Y-66426190D01*
X26985000Y-66330952D01*
X27032619Y-66283333D01*
X27127857Y-66235714D01*
X27318333Y-66188095D01*
X27556428Y-66188095D01*
X27746904Y-66235714D01*
X27842142Y-66283333D01*
X27889761Y-66330952D01*
X27937380Y-66426190D01*
X27937380Y-66521428D01*
X27889761Y-66616666D01*
X27842142Y-66664285D01*
X27746904Y-66711904D01*
X27556428Y-66759523D01*
X27318333Y-66759523D01*
X27127857Y-66711904D01*
X27032619Y-66664285D01*
X26985000Y-66616666D01*
X26937380Y-66521428D01*
%TO.C,U44*%
X34752380Y-68998095D02*
X35561904Y-68998095D01*
X35657142Y-68950476D01*
X35704761Y-68902857D01*
X35752380Y-68807619D01*
X35752380Y-68617142D01*
X35704761Y-68521904D01*
X35657142Y-68474285D01*
X35561904Y-68426666D01*
X34752380Y-68426666D01*
X35085714Y-67521904D02*
X35752380Y-67521904D01*
X34704761Y-67760000D02*
X35419047Y-67998095D01*
X35419047Y-67379047D01*
X35085714Y-66569523D02*
X35752380Y-66569523D01*
X34704761Y-66807619D02*
X35419047Y-67045714D01*
X35419047Y-66426666D01*
%TO.C,C30*%
X27812142Y-78447857D02*
X27859761Y-78495476D01*
X27907380Y-78638333D01*
X27907380Y-78733571D01*
X27859761Y-78876428D01*
X27764523Y-78971666D01*
X27669285Y-79019285D01*
X27478809Y-79066904D01*
X27335952Y-79066904D01*
X27145476Y-79019285D01*
X27050238Y-78971666D01*
X26955000Y-78876428D01*
X26907380Y-78733571D01*
X26907380Y-78638333D01*
X26955000Y-78495476D01*
X27002619Y-78447857D01*
X26907380Y-78114523D02*
X26907380Y-77495476D01*
X27288333Y-77828809D01*
X27288333Y-77685952D01*
X27335952Y-77590714D01*
X27383571Y-77543095D01*
X27478809Y-77495476D01*
X27716904Y-77495476D01*
X27812142Y-77543095D01*
X27859761Y-77590714D01*
X27907380Y-77685952D01*
X27907380Y-77971666D01*
X27859761Y-78066904D01*
X27812142Y-78114523D01*
X26907380Y-76876428D02*
X26907380Y-76781190D01*
X26955000Y-76685952D01*
X27002619Y-76638333D01*
X27097857Y-76590714D01*
X27288333Y-76543095D01*
X27526428Y-76543095D01*
X27716904Y-76590714D01*
X27812142Y-76638333D01*
X27859761Y-76685952D01*
X27907380Y-76781190D01*
X27907380Y-76876428D01*
X27859761Y-76971666D01*
X27812142Y-77019285D01*
X27716904Y-77066904D01*
X27526428Y-77114523D01*
X27288333Y-77114523D01*
X27097857Y-77066904D01*
X27002619Y-77019285D01*
X26955000Y-76971666D01*
X26907380Y-76876428D01*
%TO.C,U52*%
X37262380Y-79388095D02*
X38071904Y-79388095D01*
X38167142Y-79340476D01*
X38214761Y-79292857D01*
X38262380Y-79197619D01*
X38262380Y-79007142D01*
X38214761Y-78911904D01*
X38167142Y-78864285D01*
X38071904Y-78816666D01*
X37262380Y-78816666D01*
X37262380Y-77864285D02*
X37262380Y-78340476D01*
X37738571Y-78388095D01*
X37690952Y-78340476D01*
X37643333Y-78245238D01*
X37643333Y-78007142D01*
X37690952Y-77911904D01*
X37738571Y-77864285D01*
X37833809Y-77816666D01*
X38071904Y-77816666D01*
X38167142Y-77864285D01*
X38214761Y-77911904D01*
X38262380Y-78007142D01*
X38262380Y-78245238D01*
X38214761Y-78340476D01*
X38167142Y-78388095D01*
X37357619Y-77435714D02*
X37310000Y-77388095D01*
X37262380Y-77292857D01*
X37262380Y-77054761D01*
X37310000Y-76959523D01*
X37357619Y-76911904D01*
X37452857Y-76864285D01*
X37548095Y-76864285D01*
X37690952Y-76911904D01*
X38262380Y-77483333D01*
X38262380Y-76864285D01*
%TO.C,C27*%
X81287142Y-77202857D02*
X81334761Y-77250476D01*
X81382380Y-77393333D01*
X81382380Y-77488571D01*
X81334761Y-77631428D01*
X81239523Y-77726666D01*
X81144285Y-77774285D01*
X80953809Y-77821904D01*
X80810952Y-77821904D01*
X80620476Y-77774285D01*
X80525238Y-77726666D01*
X80430000Y-77631428D01*
X80382380Y-77488571D01*
X80382380Y-77393333D01*
X80430000Y-77250476D01*
X80477619Y-77202857D01*
X80477619Y-76821904D02*
X80430000Y-76774285D01*
X80382380Y-76679047D01*
X80382380Y-76440952D01*
X80430000Y-76345714D01*
X80477619Y-76298095D01*
X80572857Y-76250476D01*
X80668095Y-76250476D01*
X80810952Y-76298095D01*
X81382380Y-76869523D01*
X81382380Y-76250476D01*
X80382380Y-75917142D02*
X80382380Y-75250476D01*
X81382380Y-75679047D01*
%TO.C,R23*%
X78992380Y-79242857D02*
X78516190Y-79576190D01*
X78992380Y-79814285D02*
X77992380Y-79814285D01*
X77992380Y-79433333D01*
X78040000Y-79338095D01*
X78087619Y-79290476D01*
X78182857Y-79242857D01*
X78325714Y-79242857D01*
X78420952Y-79290476D01*
X78468571Y-79338095D01*
X78516190Y-79433333D01*
X78516190Y-79814285D01*
X78087619Y-78861904D02*
X78040000Y-78814285D01*
X77992380Y-78719047D01*
X77992380Y-78480952D01*
X78040000Y-78385714D01*
X78087619Y-78338095D01*
X78182857Y-78290476D01*
X78278095Y-78290476D01*
X78420952Y-78338095D01*
X78992380Y-78909523D01*
X78992380Y-78290476D01*
X77992380Y-77957142D02*
X77992380Y-77338095D01*
X78373333Y-77671428D01*
X78373333Y-77528571D01*
X78420952Y-77433333D01*
X78468571Y-77385714D01*
X78563809Y-77338095D01*
X78801904Y-77338095D01*
X78897142Y-77385714D01*
X78944761Y-77433333D01*
X78992380Y-77528571D01*
X78992380Y-77814285D01*
X78944761Y-77909523D01*
X78897142Y-77957142D01*
%TO.C,R24*%
X76352380Y-74782857D02*
X75876190Y-75116190D01*
X76352380Y-75354285D02*
X75352380Y-75354285D01*
X75352380Y-74973333D01*
X75400000Y-74878095D01*
X75447619Y-74830476D01*
X75542857Y-74782857D01*
X75685714Y-74782857D01*
X75780952Y-74830476D01*
X75828571Y-74878095D01*
X75876190Y-74973333D01*
X75876190Y-75354285D01*
X75447619Y-74401904D02*
X75400000Y-74354285D01*
X75352380Y-74259047D01*
X75352380Y-74020952D01*
X75400000Y-73925714D01*
X75447619Y-73878095D01*
X75542857Y-73830476D01*
X75638095Y-73830476D01*
X75780952Y-73878095D01*
X76352380Y-74449523D01*
X76352380Y-73830476D01*
X75685714Y-72973333D02*
X76352380Y-72973333D01*
X75304761Y-73211428D02*
X76019047Y-73449523D01*
X76019047Y-72830476D01*
%TO.C,C28*%
X73917142Y-74852857D02*
X73964761Y-74900476D01*
X74012380Y-75043333D01*
X74012380Y-75138571D01*
X73964761Y-75281428D01*
X73869523Y-75376666D01*
X73774285Y-75424285D01*
X73583809Y-75471904D01*
X73440952Y-75471904D01*
X73250476Y-75424285D01*
X73155238Y-75376666D01*
X73060000Y-75281428D01*
X73012380Y-75138571D01*
X73012380Y-75043333D01*
X73060000Y-74900476D01*
X73107619Y-74852857D01*
X73107619Y-74471904D02*
X73060000Y-74424285D01*
X73012380Y-74329047D01*
X73012380Y-74090952D01*
X73060000Y-73995714D01*
X73107619Y-73948095D01*
X73202857Y-73900476D01*
X73298095Y-73900476D01*
X73440952Y-73948095D01*
X74012380Y-74519523D01*
X74012380Y-73900476D01*
X73440952Y-73329047D02*
X73393333Y-73424285D01*
X73345714Y-73471904D01*
X73250476Y-73519523D01*
X73202857Y-73519523D01*
X73107619Y-73471904D01*
X73060000Y-73424285D01*
X73012380Y-73329047D01*
X73012380Y-73138571D01*
X73060000Y-73043333D01*
X73107619Y-72995714D01*
X73202857Y-72948095D01*
X73250476Y-72948095D01*
X73345714Y-72995714D01*
X73393333Y-73043333D01*
X73440952Y-73138571D01*
X73440952Y-73329047D01*
X73488571Y-73424285D01*
X73536190Y-73471904D01*
X73631428Y-73519523D01*
X73821904Y-73519523D01*
X73917142Y-73471904D01*
X73964761Y-73424285D01*
X74012380Y-73329047D01*
X74012380Y-73138571D01*
X73964761Y-73043333D01*
X73917142Y-72995714D01*
X73821904Y-72948095D01*
X73631428Y-72948095D01*
X73536190Y-72995714D01*
X73488571Y-73043333D01*
X73440952Y-73138571D01*
%TO.C,C29*%
X58617142Y-79662857D02*
X58664761Y-79710476D01*
X58712380Y-79853333D01*
X58712380Y-79948571D01*
X58664761Y-80091428D01*
X58569523Y-80186666D01*
X58474285Y-80234285D01*
X58283809Y-80281904D01*
X58140952Y-80281904D01*
X57950476Y-80234285D01*
X57855238Y-80186666D01*
X57760000Y-80091428D01*
X57712380Y-79948571D01*
X57712380Y-79853333D01*
X57760000Y-79710476D01*
X57807619Y-79662857D01*
X57807619Y-79281904D02*
X57760000Y-79234285D01*
X57712380Y-79139047D01*
X57712380Y-78900952D01*
X57760000Y-78805714D01*
X57807619Y-78758095D01*
X57902857Y-78710476D01*
X57998095Y-78710476D01*
X58140952Y-78758095D01*
X58712380Y-79329523D01*
X58712380Y-78710476D01*
X58712380Y-78234285D02*
X58712380Y-78043809D01*
X58664761Y-77948571D01*
X58617142Y-77900952D01*
X58474285Y-77805714D01*
X58283809Y-77758095D01*
X57902857Y-77758095D01*
X57807619Y-77805714D01*
X57760000Y-77853333D01*
X57712380Y-77948571D01*
X57712380Y-78139047D01*
X57760000Y-78234285D01*
X57807619Y-78281904D01*
X57902857Y-78329523D01*
X58140952Y-78329523D01*
X58236190Y-78281904D01*
X58283809Y-78234285D01*
X58331428Y-78139047D01*
X58331428Y-77948571D01*
X58283809Y-77853333D01*
X58236190Y-77805714D01*
X58140952Y-77758095D01*
%TO.C,R20*%
X55942380Y-79502857D02*
X55466190Y-79836190D01*
X55942380Y-80074285D02*
X54942380Y-80074285D01*
X54942380Y-79693333D01*
X54990000Y-79598095D01*
X55037619Y-79550476D01*
X55132857Y-79502857D01*
X55275714Y-79502857D01*
X55370952Y-79550476D01*
X55418571Y-79598095D01*
X55466190Y-79693333D01*
X55466190Y-80074285D01*
X55037619Y-79121904D02*
X54990000Y-79074285D01*
X54942380Y-78979047D01*
X54942380Y-78740952D01*
X54990000Y-78645714D01*
X55037619Y-78598095D01*
X55132857Y-78550476D01*
X55228095Y-78550476D01*
X55370952Y-78598095D01*
X55942380Y-79169523D01*
X55942380Y-78550476D01*
X54942380Y-77931428D02*
X54942380Y-77836190D01*
X54990000Y-77740952D01*
X55037619Y-77693333D01*
X55132857Y-77645714D01*
X55323333Y-77598095D01*
X55561428Y-77598095D01*
X55751904Y-77645714D01*
X55847142Y-77693333D01*
X55894761Y-77740952D01*
X55942380Y-77836190D01*
X55942380Y-77931428D01*
X55894761Y-78026666D01*
X55847142Y-78074285D01*
X55751904Y-78121904D01*
X55561428Y-78169523D01*
X55323333Y-78169523D01*
X55132857Y-78121904D01*
X55037619Y-78074285D01*
X54990000Y-78026666D01*
X54942380Y-77931428D01*
%TO.C,C35*%
X34077142Y-91382857D02*
X34124761Y-91430476D01*
X34172380Y-91573333D01*
X34172380Y-91668571D01*
X34124761Y-91811428D01*
X34029523Y-91906666D01*
X33934285Y-91954285D01*
X33743809Y-92001904D01*
X33600952Y-92001904D01*
X33410476Y-91954285D01*
X33315238Y-91906666D01*
X33220000Y-91811428D01*
X33172380Y-91668571D01*
X33172380Y-91573333D01*
X33220000Y-91430476D01*
X33267619Y-91382857D01*
X33172380Y-91049523D02*
X33172380Y-90430476D01*
X33553333Y-90763809D01*
X33553333Y-90620952D01*
X33600952Y-90525714D01*
X33648571Y-90478095D01*
X33743809Y-90430476D01*
X33981904Y-90430476D01*
X34077142Y-90478095D01*
X34124761Y-90525714D01*
X34172380Y-90620952D01*
X34172380Y-90906666D01*
X34124761Y-91001904D01*
X34077142Y-91049523D01*
X33172380Y-89525714D02*
X33172380Y-90001904D01*
X33648571Y-90049523D01*
X33600952Y-90001904D01*
X33553333Y-89906666D01*
X33553333Y-89668571D01*
X33600952Y-89573333D01*
X33648571Y-89525714D01*
X33743809Y-89478095D01*
X33981904Y-89478095D01*
X34077142Y-89525714D01*
X34124761Y-89573333D01*
X34172380Y-89668571D01*
X34172380Y-89906666D01*
X34124761Y-90001904D01*
X34077142Y-90049523D01*
%TO.C,C34*%
X40017142Y-92232857D02*
X40064761Y-92280476D01*
X40112380Y-92423333D01*
X40112380Y-92518571D01*
X40064761Y-92661428D01*
X39969523Y-92756666D01*
X39874285Y-92804285D01*
X39683809Y-92851904D01*
X39540952Y-92851904D01*
X39350476Y-92804285D01*
X39255238Y-92756666D01*
X39160000Y-92661428D01*
X39112380Y-92518571D01*
X39112380Y-92423333D01*
X39160000Y-92280476D01*
X39207619Y-92232857D01*
X39112380Y-91899523D02*
X39112380Y-91280476D01*
X39493333Y-91613809D01*
X39493333Y-91470952D01*
X39540952Y-91375714D01*
X39588571Y-91328095D01*
X39683809Y-91280476D01*
X39921904Y-91280476D01*
X40017142Y-91328095D01*
X40064761Y-91375714D01*
X40112380Y-91470952D01*
X40112380Y-91756666D01*
X40064761Y-91851904D01*
X40017142Y-91899523D01*
X39445714Y-90423333D02*
X40112380Y-90423333D01*
X39064761Y-90661428D02*
X39779047Y-90899523D01*
X39779047Y-90280476D01*
%TO.C,U100*%
X79272380Y-156544285D02*
X80081904Y-156544285D01*
X80177142Y-156496666D01*
X80224761Y-156449047D01*
X80272380Y-156353809D01*
X80272380Y-156163333D01*
X80224761Y-156068095D01*
X80177142Y-156020476D01*
X80081904Y-155972857D01*
X79272380Y-155972857D01*
X80272380Y-154972857D02*
X80272380Y-155544285D01*
X80272380Y-155258571D02*
X79272380Y-155258571D01*
X79415238Y-155353809D01*
X79510476Y-155449047D01*
X79558095Y-155544285D01*
X79272380Y-154353809D02*
X79272380Y-154258571D01*
X79320000Y-154163333D01*
X79367619Y-154115714D01*
X79462857Y-154068095D01*
X79653333Y-154020476D01*
X79891428Y-154020476D01*
X80081904Y-154068095D01*
X80177142Y-154115714D01*
X80224761Y-154163333D01*
X80272380Y-154258571D01*
X80272380Y-154353809D01*
X80224761Y-154449047D01*
X80177142Y-154496666D01*
X80081904Y-154544285D01*
X79891428Y-154591904D01*
X79653333Y-154591904D01*
X79462857Y-154544285D01*
X79367619Y-154496666D01*
X79320000Y-154449047D01*
X79272380Y-154353809D01*
X79272380Y-153401428D02*
X79272380Y-153306190D01*
X79320000Y-153210952D01*
X79367619Y-153163333D01*
X79462857Y-153115714D01*
X79653333Y-153068095D01*
X79891428Y-153068095D01*
X80081904Y-153115714D01*
X80177142Y-153163333D01*
X80224761Y-153210952D01*
X80272380Y-153306190D01*
X80272380Y-153401428D01*
X80224761Y-153496666D01*
X80177142Y-153544285D01*
X80081904Y-153591904D01*
X79891428Y-153639523D01*
X79653333Y-153639523D01*
X79462857Y-153591904D01*
X79367619Y-153544285D01*
X79320000Y-153496666D01*
X79272380Y-153401428D01*
%TO.C,U91*%
X93272380Y-145008095D02*
X94081904Y-145008095D01*
X94177142Y-144960476D01*
X94224761Y-144912857D01*
X94272380Y-144817619D01*
X94272380Y-144627142D01*
X94224761Y-144531904D01*
X94177142Y-144484285D01*
X94081904Y-144436666D01*
X93272380Y-144436666D01*
X94272380Y-143912857D02*
X94272380Y-143722380D01*
X94224761Y-143627142D01*
X94177142Y-143579523D01*
X94034285Y-143484285D01*
X93843809Y-143436666D01*
X93462857Y-143436666D01*
X93367619Y-143484285D01*
X93320000Y-143531904D01*
X93272380Y-143627142D01*
X93272380Y-143817619D01*
X93320000Y-143912857D01*
X93367619Y-143960476D01*
X93462857Y-144008095D01*
X93700952Y-144008095D01*
X93796190Y-143960476D01*
X93843809Y-143912857D01*
X93891428Y-143817619D01*
X93891428Y-143627142D01*
X93843809Y-143531904D01*
X93796190Y-143484285D01*
X93700952Y-143436666D01*
X94272380Y-142484285D02*
X94272380Y-143055714D01*
X94272380Y-142770000D02*
X93272380Y-142770000D01*
X93415238Y-142865238D01*
X93510476Y-142960476D01*
X93558095Y-143055714D01*
%TO.C,C53*%
X80487142Y-143362857D02*
X80534761Y-143410476D01*
X80582380Y-143553333D01*
X80582380Y-143648571D01*
X80534761Y-143791428D01*
X80439523Y-143886666D01*
X80344285Y-143934285D01*
X80153809Y-143981904D01*
X80010952Y-143981904D01*
X79820476Y-143934285D01*
X79725238Y-143886666D01*
X79630000Y-143791428D01*
X79582380Y-143648571D01*
X79582380Y-143553333D01*
X79630000Y-143410476D01*
X79677619Y-143362857D01*
X79582380Y-142458095D02*
X79582380Y-142934285D01*
X80058571Y-142981904D01*
X80010952Y-142934285D01*
X79963333Y-142839047D01*
X79963333Y-142600952D01*
X80010952Y-142505714D01*
X80058571Y-142458095D01*
X80153809Y-142410476D01*
X80391904Y-142410476D01*
X80487142Y-142458095D01*
X80534761Y-142505714D01*
X80582380Y-142600952D01*
X80582380Y-142839047D01*
X80534761Y-142934285D01*
X80487142Y-142981904D01*
X79582380Y-142077142D02*
X79582380Y-141458095D01*
X79963333Y-141791428D01*
X79963333Y-141648571D01*
X80010952Y-141553333D01*
X80058571Y-141505714D01*
X80153809Y-141458095D01*
X80391904Y-141458095D01*
X80487142Y-141505714D01*
X80534761Y-141553333D01*
X80582380Y-141648571D01*
X80582380Y-141934285D01*
X80534761Y-142029523D01*
X80487142Y-142077142D01*
%TO.C,U101*%
X58142380Y-156614285D02*
X58951904Y-156614285D01*
X59047142Y-156566666D01*
X59094761Y-156519047D01*
X59142380Y-156423809D01*
X59142380Y-156233333D01*
X59094761Y-156138095D01*
X59047142Y-156090476D01*
X58951904Y-156042857D01*
X58142380Y-156042857D01*
X59142380Y-155042857D02*
X59142380Y-155614285D01*
X59142380Y-155328571D02*
X58142380Y-155328571D01*
X58285238Y-155423809D01*
X58380476Y-155519047D01*
X58428095Y-155614285D01*
X58142380Y-154423809D02*
X58142380Y-154328571D01*
X58190000Y-154233333D01*
X58237619Y-154185714D01*
X58332857Y-154138095D01*
X58523333Y-154090476D01*
X58761428Y-154090476D01*
X58951904Y-154138095D01*
X59047142Y-154185714D01*
X59094761Y-154233333D01*
X59142380Y-154328571D01*
X59142380Y-154423809D01*
X59094761Y-154519047D01*
X59047142Y-154566666D01*
X58951904Y-154614285D01*
X58761428Y-154661904D01*
X58523333Y-154661904D01*
X58332857Y-154614285D01*
X58237619Y-154566666D01*
X58190000Y-154519047D01*
X58142380Y-154423809D01*
X59142380Y-153138095D02*
X59142380Y-153709523D01*
X59142380Y-153423809D02*
X58142380Y-153423809D01*
X58285238Y-153519047D01*
X58380476Y-153614285D01*
X58428095Y-153709523D01*
%TO.C,U92*%
X60202380Y-145438095D02*
X61011904Y-145438095D01*
X61107142Y-145390476D01*
X61154761Y-145342857D01*
X61202380Y-145247619D01*
X61202380Y-145057142D01*
X61154761Y-144961904D01*
X61107142Y-144914285D01*
X61011904Y-144866666D01*
X60202380Y-144866666D01*
X61202380Y-144342857D02*
X61202380Y-144152380D01*
X61154761Y-144057142D01*
X61107142Y-144009523D01*
X60964285Y-143914285D01*
X60773809Y-143866666D01*
X60392857Y-143866666D01*
X60297619Y-143914285D01*
X60250000Y-143961904D01*
X60202380Y-144057142D01*
X60202380Y-144247619D01*
X60250000Y-144342857D01*
X60297619Y-144390476D01*
X60392857Y-144438095D01*
X60630952Y-144438095D01*
X60726190Y-144390476D01*
X60773809Y-144342857D01*
X60821428Y-144247619D01*
X60821428Y-144057142D01*
X60773809Y-143961904D01*
X60726190Y-143914285D01*
X60630952Y-143866666D01*
X60297619Y-143485714D02*
X60250000Y-143438095D01*
X60202380Y-143342857D01*
X60202380Y-143104761D01*
X60250000Y-143009523D01*
X60297619Y-142961904D01*
X60392857Y-142914285D01*
X60488095Y-142914285D01*
X60630952Y-142961904D01*
X61202380Y-143533333D01*
X61202380Y-142914285D01*
%TO.C,U93*%
X35112380Y-145548095D02*
X35921904Y-145548095D01*
X36017142Y-145500476D01*
X36064761Y-145452857D01*
X36112380Y-145357619D01*
X36112380Y-145167142D01*
X36064761Y-145071904D01*
X36017142Y-145024285D01*
X35921904Y-144976666D01*
X35112380Y-144976666D01*
X36112380Y-144452857D02*
X36112380Y-144262380D01*
X36064761Y-144167142D01*
X36017142Y-144119523D01*
X35874285Y-144024285D01*
X35683809Y-143976666D01*
X35302857Y-143976666D01*
X35207619Y-144024285D01*
X35160000Y-144071904D01*
X35112380Y-144167142D01*
X35112380Y-144357619D01*
X35160000Y-144452857D01*
X35207619Y-144500476D01*
X35302857Y-144548095D01*
X35540952Y-144548095D01*
X35636190Y-144500476D01*
X35683809Y-144452857D01*
X35731428Y-144357619D01*
X35731428Y-144167142D01*
X35683809Y-144071904D01*
X35636190Y-144024285D01*
X35540952Y-143976666D01*
X35112380Y-143643333D02*
X35112380Y-143024285D01*
X35493333Y-143357619D01*
X35493333Y-143214761D01*
X35540952Y-143119523D01*
X35588571Y-143071904D01*
X35683809Y-143024285D01*
X35921904Y-143024285D01*
X36017142Y-143071904D01*
X36064761Y-143119523D01*
X36112380Y-143214761D01*
X36112380Y-143500476D01*
X36064761Y-143595714D01*
X36017142Y-143643333D01*
%TO.C,U102*%
X34852380Y-156524285D02*
X35661904Y-156524285D01*
X35757142Y-156476666D01*
X35804761Y-156429047D01*
X35852380Y-156333809D01*
X35852380Y-156143333D01*
X35804761Y-156048095D01*
X35757142Y-156000476D01*
X35661904Y-155952857D01*
X34852380Y-155952857D01*
X35852380Y-154952857D02*
X35852380Y-155524285D01*
X35852380Y-155238571D02*
X34852380Y-155238571D01*
X34995238Y-155333809D01*
X35090476Y-155429047D01*
X35138095Y-155524285D01*
X34852380Y-154333809D02*
X34852380Y-154238571D01*
X34900000Y-154143333D01*
X34947619Y-154095714D01*
X35042857Y-154048095D01*
X35233333Y-154000476D01*
X35471428Y-154000476D01*
X35661904Y-154048095D01*
X35757142Y-154095714D01*
X35804761Y-154143333D01*
X35852380Y-154238571D01*
X35852380Y-154333809D01*
X35804761Y-154429047D01*
X35757142Y-154476666D01*
X35661904Y-154524285D01*
X35471428Y-154571904D01*
X35233333Y-154571904D01*
X35042857Y-154524285D01*
X34947619Y-154476666D01*
X34900000Y-154429047D01*
X34852380Y-154333809D01*
X34947619Y-153619523D02*
X34900000Y-153571904D01*
X34852380Y-153476666D01*
X34852380Y-153238571D01*
X34900000Y-153143333D01*
X34947619Y-153095714D01*
X35042857Y-153048095D01*
X35138095Y-153048095D01*
X35280952Y-153095714D01*
X35852380Y-153667142D01*
X35852380Y-153048095D01*
%TO.C,C54*%
X27837142Y-144852857D02*
X27884761Y-144900476D01*
X27932380Y-145043333D01*
X27932380Y-145138571D01*
X27884761Y-145281428D01*
X27789523Y-145376666D01*
X27694285Y-145424285D01*
X27503809Y-145471904D01*
X27360952Y-145471904D01*
X27170476Y-145424285D01*
X27075238Y-145376666D01*
X26980000Y-145281428D01*
X26932380Y-145138571D01*
X26932380Y-145043333D01*
X26980000Y-144900476D01*
X27027619Y-144852857D01*
X26932380Y-143948095D02*
X26932380Y-144424285D01*
X27408571Y-144471904D01*
X27360952Y-144424285D01*
X27313333Y-144329047D01*
X27313333Y-144090952D01*
X27360952Y-143995714D01*
X27408571Y-143948095D01*
X27503809Y-143900476D01*
X27741904Y-143900476D01*
X27837142Y-143948095D01*
X27884761Y-143995714D01*
X27932380Y-144090952D01*
X27932380Y-144329047D01*
X27884761Y-144424285D01*
X27837142Y-144471904D01*
X27265714Y-143043333D02*
X27932380Y-143043333D01*
X26884761Y-143281428D02*
X27599047Y-143519523D01*
X27599047Y-142900476D01*
%TO.C,U81*%
X34642380Y-122838095D02*
X35451904Y-122838095D01*
X35547142Y-122790476D01*
X35594761Y-122742857D01*
X35642380Y-122647619D01*
X35642380Y-122457142D01*
X35594761Y-122361904D01*
X35547142Y-122314285D01*
X35451904Y-122266666D01*
X34642380Y-122266666D01*
X35070952Y-121647619D02*
X35023333Y-121742857D01*
X34975714Y-121790476D01*
X34880476Y-121838095D01*
X34832857Y-121838095D01*
X34737619Y-121790476D01*
X34690000Y-121742857D01*
X34642380Y-121647619D01*
X34642380Y-121457142D01*
X34690000Y-121361904D01*
X34737619Y-121314285D01*
X34832857Y-121266666D01*
X34880476Y-121266666D01*
X34975714Y-121314285D01*
X35023333Y-121361904D01*
X35070952Y-121457142D01*
X35070952Y-121647619D01*
X35118571Y-121742857D01*
X35166190Y-121790476D01*
X35261428Y-121838095D01*
X35451904Y-121838095D01*
X35547142Y-121790476D01*
X35594761Y-121742857D01*
X35642380Y-121647619D01*
X35642380Y-121457142D01*
X35594761Y-121361904D01*
X35547142Y-121314285D01*
X35451904Y-121266666D01*
X35261428Y-121266666D01*
X35166190Y-121314285D01*
X35118571Y-121361904D01*
X35070952Y-121457142D01*
X35642380Y-120314285D02*
X35642380Y-120885714D01*
X35642380Y-120600000D02*
X34642380Y-120600000D01*
X34785238Y-120695238D01*
X34880476Y-120790476D01*
X34928095Y-120885714D01*
%TO.C,C46*%
X27837142Y-122212857D02*
X27884761Y-122260476D01*
X27932380Y-122403333D01*
X27932380Y-122498571D01*
X27884761Y-122641428D01*
X27789523Y-122736666D01*
X27694285Y-122784285D01*
X27503809Y-122831904D01*
X27360952Y-122831904D01*
X27170476Y-122784285D01*
X27075238Y-122736666D01*
X26980000Y-122641428D01*
X26932380Y-122498571D01*
X26932380Y-122403333D01*
X26980000Y-122260476D01*
X27027619Y-122212857D01*
X27265714Y-121355714D02*
X27932380Y-121355714D01*
X26884761Y-121593809D02*
X27599047Y-121831904D01*
X27599047Y-121212857D01*
X26932380Y-120403333D02*
X26932380Y-120593809D01*
X26980000Y-120689047D01*
X27027619Y-120736666D01*
X27170476Y-120831904D01*
X27360952Y-120879523D01*
X27741904Y-120879523D01*
X27837142Y-120831904D01*
X27884761Y-120784285D01*
X27932380Y-120689047D01*
X27932380Y-120498571D01*
X27884761Y-120403333D01*
X27837142Y-120355714D01*
X27741904Y-120308095D01*
X27503809Y-120308095D01*
X27408571Y-120355714D01*
X27360952Y-120403333D01*
X27313333Y-120498571D01*
X27313333Y-120689047D01*
X27360952Y-120784285D01*
X27408571Y-120831904D01*
X27503809Y-120879523D01*
%TO.C,C58*%
X27857142Y-132122857D02*
X27904761Y-132170476D01*
X27952380Y-132313333D01*
X27952380Y-132408571D01*
X27904761Y-132551428D01*
X27809523Y-132646666D01*
X27714285Y-132694285D01*
X27523809Y-132741904D01*
X27380952Y-132741904D01*
X27190476Y-132694285D01*
X27095238Y-132646666D01*
X27000000Y-132551428D01*
X26952380Y-132408571D01*
X26952380Y-132313333D01*
X27000000Y-132170476D01*
X27047619Y-132122857D01*
X26952380Y-131218095D02*
X26952380Y-131694285D01*
X27428571Y-131741904D01*
X27380952Y-131694285D01*
X27333333Y-131599047D01*
X27333333Y-131360952D01*
X27380952Y-131265714D01*
X27428571Y-131218095D01*
X27523809Y-131170476D01*
X27761904Y-131170476D01*
X27857142Y-131218095D01*
X27904761Y-131265714D01*
X27952380Y-131360952D01*
X27952380Y-131599047D01*
X27904761Y-131694285D01*
X27857142Y-131741904D01*
X27380952Y-130599047D02*
X27333333Y-130694285D01*
X27285714Y-130741904D01*
X27190476Y-130789523D01*
X27142857Y-130789523D01*
X27047619Y-130741904D01*
X27000000Y-130694285D01*
X26952380Y-130599047D01*
X26952380Y-130408571D01*
X27000000Y-130313333D01*
X27047619Y-130265714D01*
X27142857Y-130218095D01*
X27190476Y-130218095D01*
X27285714Y-130265714D01*
X27333333Y-130313333D01*
X27380952Y-130408571D01*
X27380952Y-130599047D01*
X27428571Y-130694285D01*
X27476190Y-130741904D01*
X27571428Y-130789523D01*
X27761904Y-130789523D01*
X27857142Y-130741904D01*
X27904761Y-130694285D01*
X27952380Y-130599047D01*
X27952380Y-130408571D01*
X27904761Y-130313333D01*
X27857142Y-130265714D01*
X27761904Y-130218095D01*
X27571428Y-130218095D01*
X27476190Y-130265714D01*
X27428571Y-130313333D01*
X27380952Y-130408571D01*
%TO.C,U88*%
X41162380Y-133248095D02*
X41971904Y-133248095D01*
X42067142Y-133200476D01*
X42114761Y-133152857D01*
X42162380Y-133057619D01*
X42162380Y-132867142D01*
X42114761Y-132771904D01*
X42067142Y-132724285D01*
X41971904Y-132676666D01*
X41162380Y-132676666D01*
X41590952Y-132057619D02*
X41543333Y-132152857D01*
X41495714Y-132200476D01*
X41400476Y-132248095D01*
X41352857Y-132248095D01*
X41257619Y-132200476D01*
X41210000Y-132152857D01*
X41162380Y-132057619D01*
X41162380Y-131867142D01*
X41210000Y-131771904D01*
X41257619Y-131724285D01*
X41352857Y-131676666D01*
X41400476Y-131676666D01*
X41495714Y-131724285D01*
X41543333Y-131771904D01*
X41590952Y-131867142D01*
X41590952Y-132057619D01*
X41638571Y-132152857D01*
X41686190Y-132200476D01*
X41781428Y-132248095D01*
X41971904Y-132248095D01*
X42067142Y-132200476D01*
X42114761Y-132152857D01*
X42162380Y-132057619D01*
X42162380Y-131867142D01*
X42114761Y-131771904D01*
X42067142Y-131724285D01*
X41971904Y-131676666D01*
X41781428Y-131676666D01*
X41686190Y-131724285D01*
X41638571Y-131771904D01*
X41590952Y-131867142D01*
X41590952Y-131105238D02*
X41543333Y-131200476D01*
X41495714Y-131248095D01*
X41400476Y-131295714D01*
X41352857Y-131295714D01*
X41257619Y-131248095D01*
X41210000Y-131200476D01*
X41162380Y-131105238D01*
X41162380Y-130914761D01*
X41210000Y-130819523D01*
X41257619Y-130771904D01*
X41352857Y-130724285D01*
X41400476Y-130724285D01*
X41495714Y-130771904D01*
X41543333Y-130819523D01*
X41590952Y-130914761D01*
X41590952Y-131105238D01*
X41638571Y-131200476D01*
X41686190Y-131248095D01*
X41781428Y-131295714D01*
X41971904Y-131295714D01*
X42067142Y-131248095D01*
X42114761Y-131200476D01*
X42162380Y-131105238D01*
X42162380Y-130914761D01*
X42114761Y-130819523D01*
X42067142Y-130771904D01*
X41971904Y-130724285D01*
X41781428Y-130724285D01*
X41686190Y-130771904D01*
X41638571Y-130819523D01*
X41590952Y-130914761D01*
%TO.C,U87*%
X68052380Y-133198095D02*
X68861904Y-133198095D01*
X68957142Y-133150476D01*
X69004761Y-133102857D01*
X69052380Y-133007619D01*
X69052380Y-132817142D01*
X69004761Y-132721904D01*
X68957142Y-132674285D01*
X68861904Y-132626666D01*
X68052380Y-132626666D01*
X68480952Y-132007619D02*
X68433333Y-132102857D01*
X68385714Y-132150476D01*
X68290476Y-132198095D01*
X68242857Y-132198095D01*
X68147619Y-132150476D01*
X68100000Y-132102857D01*
X68052380Y-132007619D01*
X68052380Y-131817142D01*
X68100000Y-131721904D01*
X68147619Y-131674285D01*
X68242857Y-131626666D01*
X68290476Y-131626666D01*
X68385714Y-131674285D01*
X68433333Y-131721904D01*
X68480952Y-131817142D01*
X68480952Y-132007619D01*
X68528571Y-132102857D01*
X68576190Y-132150476D01*
X68671428Y-132198095D01*
X68861904Y-132198095D01*
X68957142Y-132150476D01*
X69004761Y-132102857D01*
X69052380Y-132007619D01*
X69052380Y-131817142D01*
X69004761Y-131721904D01*
X68957142Y-131674285D01*
X68861904Y-131626666D01*
X68671428Y-131626666D01*
X68576190Y-131674285D01*
X68528571Y-131721904D01*
X68480952Y-131817142D01*
X68052380Y-131293333D02*
X68052380Y-130626666D01*
X69052380Y-131055238D01*
%TO.C,U86*%
X78012380Y-132588095D02*
X78821904Y-132588095D01*
X78917142Y-132540476D01*
X78964761Y-132492857D01*
X79012380Y-132397619D01*
X79012380Y-132207142D01*
X78964761Y-132111904D01*
X78917142Y-132064285D01*
X78821904Y-132016666D01*
X78012380Y-132016666D01*
X78440952Y-131397619D02*
X78393333Y-131492857D01*
X78345714Y-131540476D01*
X78250476Y-131588095D01*
X78202857Y-131588095D01*
X78107619Y-131540476D01*
X78060000Y-131492857D01*
X78012380Y-131397619D01*
X78012380Y-131207142D01*
X78060000Y-131111904D01*
X78107619Y-131064285D01*
X78202857Y-131016666D01*
X78250476Y-131016666D01*
X78345714Y-131064285D01*
X78393333Y-131111904D01*
X78440952Y-131207142D01*
X78440952Y-131397619D01*
X78488571Y-131492857D01*
X78536190Y-131540476D01*
X78631428Y-131588095D01*
X78821904Y-131588095D01*
X78917142Y-131540476D01*
X78964761Y-131492857D01*
X79012380Y-131397619D01*
X79012380Y-131207142D01*
X78964761Y-131111904D01*
X78917142Y-131064285D01*
X78821904Y-131016666D01*
X78631428Y-131016666D01*
X78536190Y-131064285D01*
X78488571Y-131111904D01*
X78440952Y-131207142D01*
X78012380Y-130159523D02*
X78012380Y-130350000D01*
X78060000Y-130445238D01*
X78107619Y-130492857D01*
X78250476Y-130588095D01*
X78440952Y-130635714D01*
X78821904Y-130635714D01*
X78917142Y-130588095D01*
X78964761Y-130540476D01*
X79012380Y-130445238D01*
X79012380Y-130254761D01*
X78964761Y-130159523D01*
X78917142Y-130111904D01*
X78821904Y-130064285D01*
X78583809Y-130064285D01*
X78488571Y-130111904D01*
X78440952Y-130159523D01*
X78393333Y-130254761D01*
X78393333Y-130445238D01*
X78440952Y-130540476D01*
X78488571Y-130588095D01*
X78583809Y-130635714D01*
%TO.C,U80*%
X57742380Y-122778095D02*
X58551904Y-122778095D01*
X58647142Y-122730476D01*
X58694761Y-122682857D01*
X58742380Y-122587619D01*
X58742380Y-122397142D01*
X58694761Y-122301904D01*
X58647142Y-122254285D01*
X58551904Y-122206666D01*
X57742380Y-122206666D01*
X58170952Y-121587619D02*
X58123333Y-121682857D01*
X58075714Y-121730476D01*
X57980476Y-121778095D01*
X57932857Y-121778095D01*
X57837619Y-121730476D01*
X57790000Y-121682857D01*
X57742380Y-121587619D01*
X57742380Y-121397142D01*
X57790000Y-121301904D01*
X57837619Y-121254285D01*
X57932857Y-121206666D01*
X57980476Y-121206666D01*
X58075714Y-121254285D01*
X58123333Y-121301904D01*
X58170952Y-121397142D01*
X58170952Y-121587619D01*
X58218571Y-121682857D01*
X58266190Y-121730476D01*
X58361428Y-121778095D01*
X58551904Y-121778095D01*
X58647142Y-121730476D01*
X58694761Y-121682857D01*
X58742380Y-121587619D01*
X58742380Y-121397142D01*
X58694761Y-121301904D01*
X58647142Y-121254285D01*
X58551904Y-121206666D01*
X58361428Y-121206666D01*
X58266190Y-121254285D01*
X58218571Y-121301904D01*
X58170952Y-121397142D01*
X57742380Y-120587619D02*
X57742380Y-120492380D01*
X57790000Y-120397142D01*
X57837619Y-120349523D01*
X57932857Y-120301904D01*
X58123333Y-120254285D01*
X58361428Y-120254285D01*
X58551904Y-120301904D01*
X58647142Y-120349523D01*
X58694761Y-120397142D01*
X58742380Y-120492380D01*
X58742380Y-120587619D01*
X58694761Y-120682857D01*
X58647142Y-120730476D01*
X58551904Y-120778095D01*
X58361428Y-120825714D01*
X58123333Y-120825714D01*
X57932857Y-120778095D01*
X57837619Y-120730476D01*
X57790000Y-120682857D01*
X57742380Y-120587619D01*
%TO.C,U79*%
X80972380Y-122918095D02*
X81781904Y-122918095D01*
X81877142Y-122870476D01*
X81924761Y-122822857D01*
X81972380Y-122727619D01*
X81972380Y-122537142D01*
X81924761Y-122441904D01*
X81877142Y-122394285D01*
X81781904Y-122346666D01*
X80972380Y-122346666D01*
X80972380Y-121965714D02*
X80972380Y-121299047D01*
X81972380Y-121727619D01*
X81972380Y-120870476D02*
X81972380Y-120680000D01*
X81924761Y-120584761D01*
X81877142Y-120537142D01*
X81734285Y-120441904D01*
X81543809Y-120394285D01*
X81162857Y-120394285D01*
X81067619Y-120441904D01*
X81020000Y-120489523D01*
X80972380Y-120584761D01*
X80972380Y-120775238D01*
X81020000Y-120870476D01*
X81067619Y-120918095D01*
X81162857Y-120965714D01*
X81400952Y-120965714D01*
X81496190Y-120918095D01*
X81543809Y-120870476D01*
X81591428Y-120775238D01*
X81591428Y-120584761D01*
X81543809Y-120489523D01*
X81496190Y-120441904D01*
X81400952Y-120394285D01*
%TO.C,U70*%
X80972380Y-112528095D02*
X81781904Y-112528095D01*
X81877142Y-112480476D01*
X81924761Y-112432857D01*
X81972380Y-112337619D01*
X81972380Y-112147142D01*
X81924761Y-112051904D01*
X81877142Y-112004285D01*
X81781904Y-111956666D01*
X80972380Y-111956666D01*
X80972380Y-111575714D02*
X80972380Y-110909047D01*
X81972380Y-111337619D01*
X80972380Y-110337619D02*
X80972380Y-110242380D01*
X81020000Y-110147142D01*
X81067619Y-110099523D01*
X81162857Y-110051904D01*
X81353333Y-110004285D01*
X81591428Y-110004285D01*
X81781904Y-110051904D01*
X81877142Y-110099523D01*
X81924761Y-110147142D01*
X81972380Y-110242380D01*
X81972380Y-110337619D01*
X81924761Y-110432857D01*
X81877142Y-110480476D01*
X81781904Y-110528095D01*
X81591428Y-110575714D01*
X81353333Y-110575714D01*
X81162857Y-110528095D01*
X81067619Y-110480476D01*
X81020000Y-110432857D01*
X80972380Y-110337619D01*
%TO.C,U71*%
X65272380Y-112228095D02*
X66081904Y-112228095D01*
X66177142Y-112180476D01*
X66224761Y-112132857D01*
X66272380Y-112037619D01*
X66272380Y-111847142D01*
X66224761Y-111751904D01*
X66177142Y-111704285D01*
X66081904Y-111656666D01*
X65272380Y-111656666D01*
X65272380Y-111275714D02*
X65272380Y-110609047D01*
X66272380Y-111037619D01*
X66272380Y-109704285D02*
X66272380Y-110275714D01*
X66272380Y-109990000D02*
X65272380Y-109990000D01*
X65415238Y-110085238D01*
X65510476Y-110180476D01*
X65558095Y-110275714D01*
%TO.C,U72*%
X32352380Y-112928095D02*
X33161904Y-112928095D01*
X33257142Y-112880476D01*
X33304761Y-112832857D01*
X33352380Y-112737619D01*
X33352380Y-112547142D01*
X33304761Y-112451904D01*
X33257142Y-112404285D01*
X33161904Y-112356666D01*
X32352380Y-112356666D01*
X32352380Y-111975714D02*
X32352380Y-111309047D01*
X33352380Y-111737619D01*
X32447619Y-110975714D02*
X32400000Y-110928095D01*
X32352380Y-110832857D01*
X32352380Y-110594761D01*
X32400000Y-110499523D01*
X32447619Y-110451904D01*
X32542857Y-110404285D01*
X32638095Y-110404285D01*
X32780952Y-110451904D01*
X33352380Y-111023333D01*
X33352380Y-110404285D01*
%TO.C,C41*%
X27867142Y-111592857D02*
X27914761Y-111640476D01*
X27962380Y-111783333D01*
X27962380Y-111878571D01*
X27914761Y-112021428D01*
X27819523Y-112116666D01*
X27724285Y-112164285D01*
X27533809Y-112211904D01*
X27390952Y-112211904D01*
X27200476Y-112164285D01*
X27105238Y-112116666D01*
X27010000Y-112021428D01*
X26962380Y-111878571D01*
X26962380Y-111783333D01*
X27010000Y-111640476D01*
X27057619Y-111592857D01*
X27295714Y-110735714D02*
X27962380Y-110735714D01*
X26914761Y-110973809D02*
X27629047Y-111211904D01*
X27629047Y-110592857D01*
X27962380Y-109688095D02*
X27962380Y-110259523D01*
X27962380Y-109973809D02*
X26962380Y-109973809D01*
X27105238Y-110069047D01*
X27200476Y-110164285D01*
X27248095Y-110259523D01*
%TO.C,C37*%
X27877142Y-98852857D02*
X27924761Y-98900476D01*
X27972380Y-99043333D01*
X27972380Y-99138571D01*
X27924761Y-99281428D01*
X27829523Y-99376666D01*
X27734285Y-99424285D01*
X27543809Y-99471904D01*
X27400952Y-99471904D01*
X27210476Y-99424285D01*
X27115238Y-99376666D01*
X27020000Y-99281428D01*
X26972380Y-99138571D01*
X26972380Y-99043333D01*
X27020000Y-98900476D01*
X27067619Y-98852857D01*
X26972380Y-98519523D02*
X26972380Y-97900476D01*
X27353333Y-98233809D01*
X27353333Y-98090952D01*
X27400952Y-97995714D01*
X27448571Y-97948095D01*
X27543809Y-97900476D01*
X27781904Y-97900476D01*
X27877142Y-97948095D01*
X27924761Y-97995714D01*
X27972380Y-98090952D01*
X27972380Y-98376666D01*
X27924761Y-98471904D01*
X27877142Y-98519523D01*
X26972380Y-97567142D02*
X26972380Y-96900476D01*
X27972380Y-97329047D01*
%TO.C,U62*%
X32162380Y-100488095D02*
X32971904Y-100488095D01*
X33067142Y-100440476D01*
X33114761Y-100392857D01*
X33162380Y-100297619D01*
X33162380Y-100107142D01*
X33114761Y-100011904D01*
X33067142Y-99964285D01*
X32971904Y-99916666D01*
X32162380Y-99916666D01*
X32162380Y-99011904D02*
X32162380Y-99202380D01*
X32210000Y-99297619D01*
X32257619Y-99345238D01*
X32400476Y-99440476D01*
X32590952Y-99488095D01*
X32971904Y-99488095D01*
X33067142Y-99440476D01*
X33114761Y-99392857D01*
X33162380Y-99297619D01*
X33162380Y-99107142D01*
X33114761Y-99011904D01*
X33067142Y-98964285D01*
X32971904Y-98916666D01*
X32733809Y-98916666D01*
X32638571Y-98964285D01*
X32590952Y-99011904D01*
X32543333Y-99107142D01*
X32543333Y-99297619D01*
X32590952Y-99392857D01*
X32638571Y-99440476D01*
X32733809Y-99488095D01*
X32257619Y-98535714D02*
X32210000Y-98488095D01*
X32162380Y-98392857D01*
X32162380Y-98154761D01*
X32210000Y-98059523D01*
X32257619Y-98011904D01*
X32352857Y-97964285D01*
X32448095Y-97964285D01*
X32590952Y-98011904D01*
X33162380Y-98583333D01*
X33162380Y-97964285D01*
%TO.C,U61*%
X57872380Y-99548095D02*
X58681904Y-99548095D01*
X58777142Y-99500476D01*
X58824761Y-99452857D01*
X58872380Y-99357619D01*
X58872380Y-99167142D01*
X58824761Y-99071904D01*
X58777142Y-99024285D01*
X58681904Y-98976666D01*
X57872380Y-98976666D01*
X57872380Y-98071904D02*
X57872380Y-98262380D01*
X57920000Y-98357619D01*
X57967619Y-98405238D01*
X58110476Y-98500476D01*
X58300952Y-98548095D01*
X58681904Y-98548095D01*
X58777142Y-98500476D01*
X58824761Y-98452857D01*
X58872380Y-98357619D01*
X58872380Y-98167142D01*
X58824761Y-98071904D01*
X58777142Y-98024285D01*
X58681904Y-97976666D01*
X58443809Y-97976666D01*
X58348571Y-98024285D01*
X58300952Y-98071904D01*
X58253333Y-98167142D01*
X58253333Y-98357619D01*
X58300952Y-98452857D01*
X58348571Y-98500476D01*
X58443809Y-98548095D01*
X58872380Y-97024285D02*
X58872380Y-97595714D01*
X58872380Y-97310000D02*
X57872380Y-97310000D01*
X58015238Y-97405238D01*
X58110476Y-97500476D01*
X58158095Y-97595714D01*
%TO.C,U60*%
X86872380Y-99178095D02*
X87681904Y-99178095D01*
X87777142Y-99130476D01*
X87824761Y-99082857D01*
X87872380Y-98987619D01*
X87872380Y-98797142D01*
X87824761Y-98701904D01*
X87777142Y-98654285D01*
X87681904Y-98606666D01*
X86872380Y-98606666D01*
X86872380Y-97701904D02*
X86872380Y-97892380D01*
X86920000Y-97987619D01*
X86967619Y-98035238D01*
X87110476Y-98130476D01*
X87300952Y-98178095D01*
X87681904Y-98178095D01*
X87777142Y-98130476D01*
X87824761Y-98082857D01*
X87872380Y-97987619D01*
X87872380Y-97797142D01*
X87824761Y-97701904D01*
X87777142Y-97654285D01*
X87681904Y-97606666D01*
X87443809Y-97606666D01*
X87348571Y-97654285D01*
X87300952Y-97701904D01*
X87253333Y-97797142D01*
X87253333Y-97987619D01*
X87300952Y-98082857D01*
X87348571Y-98130476D01*
X87443809Y-98178095D01*
X86872380Y-96987619D02*
X86872380Y-96892380D01*
X86920000Y-96797142D01*
X86967619Y-96749523D01*
X87062857Y-96701904D01*
X87253333Y-96654285D01*
X87491428Y-96654285D01*
X87681904Y-96701904D01*
X87777142Y-96749523D01*
X87824761Y-96797142D01*
X87872380Y-96892380D01*
X87872380Y-96987619D01*
X87824761Y-97082857D01*
X87777142Y-97130476D01*
X87681904Y-97178095D01*
X87491428Y-97225714D01*
X87253333Y-97225714D01*
X87062857Y-97178095D01*
X86967619Y-97130476D01*
X86920000Y-97082857D01*
X86872380Y-96987619D01*
%TO.C,U59*%
X113532380Y-99118095D02*
X114341904Y-99118095D01*
X114437142Y-99070476D01*
X114484761Y-99022857D01*
X114532380Y-98927619D01*
X114532380Y-98737142D01*
X114484761Y-98641904D01*
X114437142Y-98594285D01*
X114341904Y-98546666D01*
X113532380Y-98546666D01*
X113532380Y-97594285D02*
X113532380Y-98070476D01*
X114008571Y-98118095D01*
X113960952Y-98070476D01*
X113913333Y-97975238D01*
X113913333Y-97737142D01*
X113960952Y-97641904D01*
X114008571Y-97594285D01*
X114103809Y-97546666D01*
X114341904Y-97546666D01*
X114437142Y-97594285D01*
X114484761Y-97641904D01*
X114532380Y-97737142D01*
X114532380Y-97975238D01*
X114484761Y-98070476D01*
X114437142Y-98118095D01*
X114532380Y-97070476D02*
X114532380Y-96880000D01*
X114484761Y-96784761D01*
X114437142Y-96737142D01*
X114294285Y-96641904D01*
X114103809Y-96594285D01*
X113722857Y-96594285D01*
X113627619Y-96641904D01*
X113580000Y-96689523D01*
X113532380Y-96784761D01*
X113532380Y-96975238D01*
X113580000Y-97070476D01*
X113627619Y-97118095D01*
X113722857Y-97165714D01*
X113960952Y-97165714D01*
X114056190Y-97118095D01*
X114103809Y-97070476D01*
X114151428Y-96975238D01*
X114151428Y-96784761D01*
X114103809Y-96689523D01*
X114056190Y-96641904D01*
X113960952Y-96594285D01*
%TO.C,U58*%
X134352380Y-100638095D02*
X135161904Y-100638095D01*
X135257142Y-100590476D01*
X135304761Y-100542857D01*
X135352380Y-100447619D01*
X135352380Y-100257142D01*
X135304761Y-100161904D01*
X135257142Y-100114285D01*
X135161904Y-100066666D01*
X134352380Y-100066666D01*
X134352380Y-99114285D02*
X134352380Y-99590476D01*
X134828571Y-99638095D01*
X134780952Y-99590476D01*
X134733333Y-99495238D01*
X134733333Y-99257142D01*
X134780952Y-99161904D01*
X134828571Y-99114285D01*
X134923809Y-99066666D01*
X135161904Y-99066666D01*
X135257142Y-99114285D01*
X135304761Y-99161904D01*
X135352380Y-99257142D01*
X135352380Y-99495238D01*
X135304761Y-99590476D01*
X135257142Y-99638095D01*
X134780952Y-98495238D02*
X134733333Y-98590476D01*
X134685714Y-98638095D01*
X134590476Y-98685714D01*
X134542857Y-98685714D01*
X134447619Y-98638095D01*
X134400000Y-98590476D01*
X134352380Y-98495238D01*
X134352380Y-98304761D01*
X134400000Y-98209523D01*
X134447619Y-98161904D01*
X134542857Y-98114285D01*
X134590476Y-98114285D01*
X134685714Y-98161904D01*
X134733333Y-98209523D01*
X134780952Y-98304761D01*
X134780952Y-98495238D01*
X134828571Y-98590476D01*
X134876190Y-98638095D01*
X134971428Y-98685714D01*
X135161904Y-98685714D01*
X135257142Y-98638095D01*
X135304761Y-98590476D01*
X135352380Y-98495238D01*
X135352380Y-98304761D01*
X135304761Y-98209523D01*
X135257142Y-98161904D01*
X135161904Y-98114285D01*
X134971428Y-98114285D01*
X134876190Y-98161904D01*
X134828571Y-98209523D01*
X134780952Y-98304761D01*
%TO.C,U68*%
X144182380Y-112668095D02*
X144991904Y-112668095D01*
X145087142Y-112620476D01*
X145134761Y-112572857D01*
X145182380Y-112477619D01*
X145182380Y-112287142D01*
X145134761Y-112191904D01*
X145087142Y-112144285D01*
X144991904Y-112096666D01*
X144182380Y-112096666D01*
X144182380Y-111191904D02*
X144182380Y-111382380D01*
X144230000Y-111477619D01*
X144277619Y-111525238D01*
X144420476Y-111620476D01*
X144610952Y-111668095D01*
X144991904Y-111668095D01*
X145087142Y-111620476D01*
X145134761Y-111572857D01*
X145182380Y-111477619D01*
X145182380Y-111287142D01*
X145134761Y-111191904D01*
X145087142Y-111144285D01*
X144991904Y-111096666D01*
X144753809Y-111096666D01*
X144658571Y-111144285D01*
X144610952Y-111191904D01*
X144563333Y-111287142D01*
X144563333Y-111477619D01*
X144610952Y-111572857D01*
X144658571Y-111620476D01*
X144753809Y-111668095D01*
X144610952Y-110525238D02*
X144563333Y-110620476D01*
X144515714Y-110668095D01*
X144420476Y-110715714D01*
X144372857Y-110715714D01*
X144277619Y-110668095D01*
X144230000Y-110620476D01*
X144182380Y-110525238D01*
X144182380Y-110334761D01*
X144230000Y-110239523D01*
X144277619Y-110191904D01*
X144372857Y-110144285D01*
X144420476Y-110144285D01*
X144515714Y-110191904D01*
X144563333Y-110239523D01*
X144610952Y-110334761D01*
X144610952Y-110525238D01*
X144658571Y-110620476D01*
X144706190Y-110668095D01*
X144801428Y-110715714D01*
X144991904Y-110715714D01*
X145087142Y-110668095D01*
X145134761Y-110620476D01*
X145182380Y-110525238D01*
X145182380Y-110334761D01*
X145134761Y-110239523D01*
X145087142Y-110191904D01*
X144991904Y-110144285D01*
X144801428Y-110144285D01*
X144706190Y-110191904D01*
X144658571Y-110239523D01*
X144610952Y-110334761D01*
%TO.C,C39*%
X132227142Y-111902857D02*
X132274761Y-111950476D01*
X132322380Y-112093333D01*
X132322380Y-112188571D01*
X132274761Y-112331428D01*
X132179523Y-112426666D01*
X132084285Y-112474285D01*
X131893809Y-112521904D01*
X131750952Y-112521904D01*
X131560476Y-112474285D01*
X131465238Y-112426666D01*
X131370000Y-112331428D01*
X131322380Y-112188571D01*
X131322380Y-112093333D01*
X131370000Y-111950476D01*
X131417619Y-111902857D01*
X131322380Y-111569523D02*
X131322380Y-110950476D01*
X131703333Y-111283809D01*
X131703333Y-111140952D01*
X131750952Y-111045714D01*
X131798571Y-110998095D01*
X131893809Y-110950476D01*
X132131904Y-110950476D01*
X132227142Y-110998095D01*
X132274761Y-111045714D01*
X132322380Y-111140952D01*
X132322380Y-111426666D01*
X132274761Y-111521904D01*
X132227142Y-111569523D01*
X132322380Y-110474285D02*
X132322380Y-110283809D01*
X132274761Y-110188571D01*
X132227142Y-110140952D01*
X132084285Y-110045714D01*
X131893809Y-109998095D01*
X131512857Y-109998095D01*
X131417619Y-110045714D01*
X131370000Y-110093333D01*
X131322380Y-110188571D01*
X131322380Y-110379047D01*
X131370000Y-110474285D01*
X131417619Y-110521904D01*
X131512857Y-110569523D01*
X131750952Y-110569523D01*
X131846190Y-110521904D01*
X131893809Y-110474285D01*
X131941428Y-110379047D01*
X131941428Y-110188571D01*
X131893809Y-110093333D01*
X131846190Y-110045714D01*
X131750952Y-109998095D01*
%TO.C,C40*%
X129457142Y-111972857D02*
X129504761Y-112020476D01*
X129552380Y-112163333D01*
X129552380Y-112258571D01*
X129504761Y-112401428D01*
X129409523Y-112496666D01*
X129314285Y-112544285D01*
X129123809Y-112591904D01*
X128980952Y-112591904D01*
X128790476Y-112544285D01*
X128695238Y-112496666D01*
X128600000Y-112401428D01*
X128552380Y-112258571D01*
X128552380Y-112163333D01*
X128600000Y-112020476D01*
X128647619Y-111972857D01*
X128885714Y-111115714D02*
X129552380Y-111115714D01*
X128504761Y-111353809D02*
X129219047Y-111591904D01*
X129219047Y-110972857D01*
X128552380Y-110401428D02*
X128552380Y-110306190D01*
X128600000Y-110210952D01*
X128647619Y-110163333D01*
X128742857Y-110115714D01*
X128933333Y-110068095D01*
X129171428Y-110068095D01*
X129361904Y-110115714D01*
X129457142Y-110163333D01*
X129504761Y-110210952D01*
X129552380Y-110306190D01*
X129552380Y-110401428D01*
X129504761Y-110496666D01*
X129457142Y-110544285D01*
X129361904Y-110591904D01*
X129171428Y-110639523D01*
X128933333Y-110639523D01*
X128742857Y-110591904D01*
X128647619Y-110544285D01*
X128600000Y-110496666D01*
X128552380Y-110401428D01*
%TO.C,U69*%
X107942380Y-112988095D02*
X108751904Y-112988095D01*
X108847142Y-112940476D01*
X108894761Y-112892857D01*
X108942380Y-112797619D01*
X108942380Y-112607142D01*
X108894761Y-112511904D01*
X108847142Y-112464285D01*
X108751904Y-112416666D01*
X107942380Y-112416666D01*
X107942380Y-111511904D02*
X107942380Y-111702380D01*
X107990000Y-111797619D01*
X108037619Y-111845238D01*
X108180476Y-111940476D01*
X108370952Y-111988095D01*
X108751904Y-111988095D01*
X108847142Y-111940476D01*
X108894761Y-111892857D01*
X108942380Y-111797619D01*
X108942380Y-111607142D01*
X108894761Y-111511904D01*
X108847142Y-111464285D01*
X108751904Y-111416666D01*
X108513809Y-111416666D01*
X108418571Y-111464285D01*
X108370952Y-111511904D01*
X108323333Y-111607142D01*
X108323333Y-111797619D01*
X108370952Y-111892857D01*
X108418571Y-111940476D01*
X108513809Y-111988095D01*
X108942380Y-110940476D02*
X108942380Y-110750000D01*
X108894761Y-110654761D01*
X108847142Y-110607142D01*
X108704285Y-110511904D01*
X108513809Y-110464285D01*
X108132857Y-110464285D01*
X108037619Y-110511904D01*
X107990000Y-110559523D01*
X107942380Y-110654761D01*
X107942380Y-110845238D01*
X107990000Y-110940476D01*
X108037619Y-110988095D01*
X108132857Y-111035714D01*
X108370952Y-111035714D01*
X108466190Y-110988095D01*
X108513809Y-110940476D01*
X108561428Y-110845238D01*
X108561428Y-110654761D01*
X108513809Y-110559523D01*
X108466190Y-110511904D01*
X108370952Y-110464285D01*
%TO.C,U78*%
X107992380Y-122908095D02*
X108801904Y-122908095D01*
X108897142Y-122860476D01*
X108944761Y-122812857D01*
X108992380Y-122717619D01*
X108992380Y-122527142D01*
X108944761Y-122431904D01*
X108897142Y-122384285D01*
X108801904Y-122336666D01*
X107992380Y-122336666D01*
X107992380Y-121955714D02*
X107992380Y-121289047D01*
X108992380Y-121717619D01*
X108420952Y-120765238D02*
X108373333Y-120860476D01*
X108325714Y-120908095D01*
X108230476Y-120955714D01*
X108182857Y-120955714D01*
X108087619Y-120908095D01*
X108040000Y-120860476D01*
X107992380Y-120765238D01*
X107992380Y-120574761D01*
X108040000Y-120479523D01*
X108087619Y-120431904D01*
X108182857Y-120384285D01*
X108230476Y-120384285D01*
X108325714Y-120431904D01*
X108373333Y-120479523D01*
X108420952Y-120574761D01*
X108420952Y-120765238D01*
X108468571Y-120860476D01*
X108516190Y-120908095D01*
X108611428Y-120955714D01*
X108801904Y-120955714D01*
X108897142Y-120908095D01*
X108944761Y-120860476D01*
X108992380Y-120765238D01*
X108992380Y-120574761D01*
X108944761Y-120479523D01*
X108897142Y-120431904D01*
X108801904Y-120384285D01*
X108611428Y-120384285D01*
X108516190Y-120431904D01*
X108468571Y-120479523D01*
X108420952Y-120574761D01*
%TO.C,C45*%
X128957142Y-123132857D02*
X129004761Y-123180476D01*
X129052380Y-123323333D01*
X129052380Y-123418571D01*
X129004761Y-123561428D01*
X128909523Y-123656666D01*
X128814285Y-123704285D01*
X128623809Y-123751904D01*
X128480952Y-123751904D01*
X128290476Y-123704285D01*
X128195238Y-123656666D01*
X128100000Y-123561428D01*
X128052380Y-123418571D01*
X128052380Y-123323333D01*
X128100000Y-123180476D01*
X128147619Y-123132857D01*
X128385714Y-122275714D02*
X129052380Y-122275714D01*
X128004761Y-122513809D02*
X128719047Y-122751904D01*
X128719047Y-122132857D01*
X128052380Y-121275714D02*
X128052380Y-121751904D01*
X128528571Y-121799523D01*
X128480952Y-121751904D01*
X128433333Y-121656666D01*
X128433333Y-121418571D01*
X128480952Y-121323333D01*
X128528571Y-121275714D01*
X128623809Y-121228095D01*
X128861904Y-121228095D01*
X128957142Y-121275714D01*
X129004761Y-121323333D01*
X129052380Y-121418571D01*
X129052380Y-121656666D01*
X129004761Y-121751904D01*
X128957142Y-121799523D01*
%TO.C,C44*%
X132247142Y-122062857D02*
X132294761Y-122110476D01*
X132342380Y-122253333D01*
X132342380Y-122348571D01*
X132294761Y-122491428D01*
X132199523Y-122586666D01*
X132104285Y-122634285D01*
X131913809Y-122681904D01*
X131770952Y-122681904D01*
X131580476Y-122634285D01*
X131485238Y-122586666D01*
X131390000Y-122491428D01*
X131342380Y-122348571D01*
X131342380Y-122253333D01*
X131390000Y-122110476D01*
X131437619Y-122062857D01*
X131675714Y-121205714D02*
X132342380Y-121205714D01*
X131294761Y-121443809D02*
X132009047Y-121681904D01*
X132009047Y-121062857D01*
X131675714Y-120253333D02*
X132342380Y-120253333D01*
X131294761Y-120491428D02*
X132009047Y-120729523D01*
X132009047Y-120110476D01*
%TO.C,U77*%
X139172380Y-122908095D02*
X139981904Y-122908095D01*
X140077142Y-122860476D01*
X140124761Y-122812857D01*
X140172380Y-122717619D01*
X140172380Y-122527142D01*
X140124761Y-122431904D01*
X140077142Y-122384285D01*
X139981904Y-122336666D01*
X139172380Y-122336666D01*
X139172380Y-121955714D02*
X139172380Y-121289047D01*
X140172380Y-121717619D01*
X139172380Y-121003333D02*
X139172380Y-120336666D01*
X140172380Y-120765238D01*
%TO.C,C52*%
X107047142Y-142472857D02*
X107094761Y-142520476D01*
X107142380Y-142663333D01*
X107142380Y-142758571D01*
X107094761Y-142901428D01*
X106999523Y-142996666D01*
X106904285Y-143044285D01*
X106713809Y-143091904D01*
X106570952Y-143091904D01*
X106380476Y-143044285D01*
X106285238Y-142996666D01*
X106190000Y-142901428D01*
X106142380Y-142758571D01*
X106142380Y-142663333D01*
X106190000Y-142520476D01*
X106237619Y-142472857D01*
X106142380Y-141568095D02*
X106142380Y-142044285D01*
X106618571Y-142091904D01*
X106570952Y-142044285D01*
X106523333Y-141949047D01*
X106523333Y-141710952D01*
X106570952Y-141615714D01*
X106618571Y-141568095D01*
X106713809Y-141520476D01*
X106951904Y-141520476D01*
X107047142Y-141568095D01*
X107094761Y-141615714D01*
X107142380Y-141710952D01*
X107142380Y-141949047D01*
X107094761Y-142044285D01*
X107047142Y-142091904D01*
X106237619Y-141139523D02*
X106190000Y-141091904D01*
X106142380Y-140996666D01*
X106142380Y-140758571D01*
X106190000Y-140663333D01*
X106237619Y-140615714D01*
X106332857Y-140568095D01*
X106428095Y-140568095D01*
X106570952Y-140615714D01*
X107142380Y-141187142D01*
X107142380Y-140568095D01*
%TO.C,C57*%
X107027142Y-155322857D02*
X107074761Y-155370476D01*
X107122380Y-155513333D01*
X107122380Y-155608571D01*
X107074761Y-155751428D01*
X106979523Y-155846666D01*
X106884285Y-155894285D01*
X106693809Y-155941904D01*
X106550952Y-155941904D01*
X106360476Y-155894285D01*
X106265238Y-155846666D01*
X106170000Y-155751428D01*
X106122380Y-155608571D01*
X106122380Y-155513333D01*
X106170000Y-155370476D01*
X106217619Y-155322857D01*
X106122380Y-154418095D02*
X106122380Y-154894285D01*
X106598571Y-154941904D01*
X106550952Y-154894285D01*
X106503333Y-154799047D01*
X106503333Y-154560952D01*
X106550952Y-154465714D01*
X106598571Y-154418095D01*
X106693809Y-154370476D01*
X106931904Y-154370476D01*
X107027142Y-154418095D01*
X107074761Y-154465714D01*
X107122380Y-154560952D01*
X107122380Y-154799047D01*
X107074761Y-154894285D01*
X107027142Y-154941904D01*
X106122380Y-154037142D02*
X106122380Y-153370476D01*
X107122380Y-153799047D01*
%TO.C,U85*%
X116052380Y-139198095D02*
X116861904Y-139198095D01*
X116957142Y-139150476D01*
X117004761Y-139102857D01*
X117052380Y-139007619D01*
X117052380Y-138817142D01*
X117004761Y-138721904D01*
X116957142Y-138674285D01*
X116861904Y-138626666D01*
X116052380Y-138626666D01*
X116480952Y-138007619D02*
X116433333Y-138102857D01*
X116385714Y-138150476D01*
X116290476Y-138198095D01*
X116242857Y-138198095D01*
X116147619Y-138150476D01*
X116100000Y-138102857D01*
X116052380Y-138007619D01*
X116052380Y-137817142D01*
X116100000Y-137721904D01*
X116147619Y-137674285D01*
X116242857Y-137626666D01*
X116290476Y-137626666D01*
X116385714Y-137674285D01*
X116433333Y-137721904D01*
X116480952Y-137817142D01*
X116480952Y-138007619D01*
X116528571Y-138102857D01*
X116576190Y-138150476D01*
X116671428Y-138198095D01*
X116861904Y-138198095D01*
X116957142Y-138150476D01*
X117004761Y-138102857D01*
X117052380Y-138007619D01*
X117052380Y-137817142D01*
X117004761Y-137721904D01*
X116957142Y-137674285D01*
X116861904Y-137626666D01*
X116671428Y-137626666D01*
X116576190Y-137674285D01*
X116528571Y-137721904D01*
X116480952Y-137817142D01*
X116052380Y-136721904D02*
X116052380Y-137198095D01*
X116528571Y-137245714D01*
X116480952Y-137198095D01*
X116433333Y-137102857D01*
X116433333Y-136864761D01*
X116480952Y-136769523D01*
X116528571Y-136721904D01*
X116623809Y-136674285D01*
X116861904Y-136674285D01*
X116957142Y-136721904D01*
X117004761Y-136769523D01*
X117052380Y-136864761D01*
X117052380Y-137102857D01*
X117004761Y-137198095D01*
X116957142Y-137245714D01*
%TO.C,R28*%
X145542380Y-139202857D02*
X145066190Y-139536190D01*
X145542380Y-139774285D02*
X144542380Y-139774285D01*
X144542380Y-139393333D01*
X144590000Y-139298095D01*
X144637619Y-139250476D01*
X144732857Y-139202857D01*
X144875714Y-139202857D01*
X144970952Y-139250476D01*
X145018571Y-139298095D01*
X145066190Y-139393333D01*
X145066190Y-139774285D01*
X144637619Y-138821904D02*
X144590000Y-138774285D01*
X144542380Y-138679047D01*
X144542380Y-138440952D01*
X144590000Y-138345714D01*
X144637619Y-138298095D01*
X144732857Y-138250476D01*
X144828095Y-138250476D01*
X144970952Y-138298095D01*
X145542380Y-138869523D01*
X145542380Y-138250476D01*
X144970952Y-137679047D02*
X144923333Y-137774285D01*
X144875714Y-137821904D01*
X144780476Y-137869523D01*
X144732857Y-137869523D01*
X144637619Y-137821904D01*
X144590000Y-137774285D01*
X144542380Y-137679047D01*
X144542380Y-137488571D01*
X144590000Y-137393333D01*
X144637619Y-137345714D01*
X144732857Y-137298095D01*
X144780476Y-137298095D01*
X144875714Y-137345714D01*
X144923333Y-137393333D01*
X144970952Y-137488571D01*
X144970952Y-137679047D01*
X145018571Y-137774285D01*
X145066190Y-137821904D01*
X145161428Y-137869523D01*
X145351904Y-137869523D01*
X145447142Y-137821904D01*
X145494761Y-137774285D01*
X145542380Y-137679047D01*
X145542380Y-137488571D01*
X145494761Y-137393333D01*
X145447142Y-137345714D01*
X145351904Y-137298095D01*
X145161428Y-137298095D01*
X145066190Y-137345714D01*
X145018571Y-137393333D01*
X144970952Y-137488571D01*
%TO.C,R27*%
X148222380Y-138782857D02*
X147746190Y-139116190D01*
X148222380Y-139354285D02*
X147222380Y-139354285D01*
X147222380Y-138973333D01*
X147270000Y-138878095D01*
X147317619Y-138830476D01*
X147412857Y-138782857D01*
X147555714Y-138782857D01*
X147650952Y-138830476D01*
X147698571Y-138878095D01*
X147746190Y-138973333D01*
X147746190Y-139354285D01*
X147317619Y-138401904D02*
X147270000Y-138354285D01*
X147222380Y-138259047D01*
X147222380Y-138020952D01*
X147270000Y-137925714D01*
X147317619Y-137878095D01*
X147412857Y-137830476D01*
X147508095Y-137830476D01*
X147650952Y-137878095D01*
X148222380Y-138449523D01*
X148222380Y-137830476D01*
X147222380Y-137497142D02*
X147222380Y-136830476D01*
X148222380Y-137259047D01*
%TO.C,C51*%
X150657142Y-143842857D02*
X150704761Y-143890476D01*
X150752380Y-144033333D01*
X150752380Y-144128571D01*
X150704761Y-144271428D01*
X150609523Y-144366666D01*
X150514285Y-144414285D01*
X150323809Y-144461904D01*
X150180952Y-144461904D01*
X149990476Y-144414285D01*
X149895238Y-144366666D01*
X149800000Y-144271428D01*
X149752380Y-144128571D01*
X149752380Y-144033333D01*
X149800000Y-143890476D01*
X149847619Y-143842857D01*
X149752380Y-142938095D02*
X149752380Y-143414285D01*
X150228571Y-143461904D01*
X150180952Y-143414285D01*
X150133333Y-143319047D01*
X150133333Y-143080952D01*
X150180952Y-142985714D01*
X150228571Y-142938095D01*
X150323809Y-142890476D01*
X150561904Y-142890476D01*
X150657142Y-142938095D01*
X150704761Y-142985714D01*
X150752380Y-143080952D01*
X150752380Y-143319047D01*
X150704761Y-143414285D01*
X150657142Y-143461904D01*
X150752380Y-141938095D02*
X150752380Y-142509523D01*
X150752380Y-142223809D02*
X149752380Y-142223809D01*
X149895238Y-142319047D01*
X149990476Y-142414285D01*
X150038095Y-142509523D01*
%TO.C,U99*%
X115002380Y-156118095D02*
X115811904Y-156118095D01*
X115907142Y-156070476D01*
X115954761Y-156022857D01*
X116002380Y-155927619D01*
X116002380Y-155737142D01*
X115954761Y-155641904D01*
X115907142Y-155594285D01*
X115811904Y-155546666D01*
X115002380Y-155546666D01*
X116002380Y-155022857D02*
X116002380Y-154832380D01*
X115954761Y-154737142D01*
X115907142Y-154689523D01*
X115764285Y-154594285D01*
X115573809Y-154546666D01*
X115192857Y-154546666D01*
X115097619Y-154594285D01*
X115050000Y-154641904D01*
X115002380Y-154737142D01*
X115002380Y-154927619D01*
X115050000Y-155022857D01*
X115097619Y-155070476D01*
X115192857Y-155118095D01*
X115430952Y-155118095D01*
X115526190Y-155070476D01*
X115573809Y-155022857D01*
X115621428Y-154927619D01*
X115621428Y-154737142D01*
X115573809Y-154641904D01*
X115526190Y-154594285D01*
X115430952Y-154546666D01*
X116002380Y-154070476D02*
X116002380Y-153880000D01*
X115954761Y-153784761D01*
X115907142Y-153737142D01*
X115764285Y-153641904D01*
X115573809Y-153594285D01*
X115192857Y-153594285D01*
X115097619Y-153641904D01*
X115050000Y-153689523D01*
X115002380Y-153784761D01*
X115002380Y-153975238D01*
X115050000Y-154070476D01*
X115097619Y-154118095D01*
X115192857Y-154165714D01*
X115430952Y-154165714D01*
X115526190Y-154118095D01*
X115573809Y-154070476D01*
X115621428Y-153975238D01*
X115621428Y-153784761D01*
X115573809Y-153689523D01*
X115526190Y-153641904D01*
X115430952Y-153594285D01*
%TO.C,U98*%
X142612380Y-156128095D02*
X143421904Y-156128095D01*
X143517142Y-156080476D01*
X143564761Y-156032857D01*
X143612380Y-155937619D01*
X143612380Y-155747142D01*
X143564761Y-155651904D01*
X143517142Y-155604285D01*
X143421904Y-155556666D01*
X142612380Y-155556666D01*
X143612380Y-155032857D02*
X143612380Y-154842380D01*
X143564761Y-154747142D01*
X143517142Y-154699523D01*
X143374285Y-154604285D01*
X143183809Y-154556666D01*
X142802857Y-154556666D01*
X142707619Y-154604285D01*
X142660000Y-154651904D01*
X142612380Y-154747142D01*
X142612380Y-154937619D01*
X142660000Y-155032857D01*
X142707619Y-155080476D01*
X142802857Y-155128095D01*
X143040952Y-155128095D01*
X143136190Y-155080476D01*
X143183809Y-155032857D01*
X143231428Y-154937619D01*
X143231428Y-154747142D01*
X143183809Y-154651904D01*
X143136190Y-154604285D01*
X143040952Y-154556666D01*
X143040952Y-153985238D02*
X142993333Y-154080476D01*
X142945714Y-154128095D01*
X142850476Y-154175714D01*
X142802857Y-154175714D01*
X142707619Y-154128095D01*
X142660000Y-154080476D01*
X142612380Y-153985238D01*
X142612380Y-153794761D01*
X142660000Y-153699523D01*
X142707619Y-153651904D01*
X142802857Y-153604285D01*
X142850476Y-153604285D01*
X142945714Y-153651904D01*
X142993333Y-153699523D01*
X143040952Y-153794761D01*
X143040952Y-153985238D01*
X143088571Y-154080476D01*
X143136190Y-154128095D01*
X143231428Y-154175714D01*
X143421904Y-154175714D01*
X143517142Y-154128095D01*
X143564761Y-154080476D01*
X143612380Y-153985238D01*
X143612380Y-153794761D01*
X143564761Y-153699523D01*
X143517142Y-153651904D01*
X143421904Y-153604285D01*
X143231428Y-153604285D01*
X143136190Y-153651904D01*
X143088571Y-153699523D01*
X143040952Y-153794761D01*
%TO.C,U97*%
X165552380Y-156128095D02*
X166361904Y-156128095D01*
X166457142Y-156080476D01*
X166504761Y-156032857D01*
X166552380Y-155937619D01*
X166552380Y-155747142D01*
X166504761Y-155651904D01*
X166457142Y-155604285D01*
X166361904Y-155556666D01*
X165552380Y-155556666D01*
X166552380Y-155032857D02*
X166552380Y-154842380D01*
X166504761Y-154747142D01*
X166457142Y-154699523D01*
X166314285Y-154604285D01*
X166123809Y-154556666D01*
X165742857Y-154556666D01*
X165647619Y-154604285D01*
X165600000Y-154651904D01*
X165552380Y-154747142D01*
X165552380Y-154937619D01*
X165600000Y-155032857D01*
X165647619Y-155080476D01*
X165742857Y-155128095D01*
X165980952Y-155128095D01*
X166076190Y-155080476D01*
X166123809Y-155032857D01*
X166171428Y-154937619D01*
X166171428Y-154747142D01*
X166123809Y-154651904D01*
X166076190Y-154604285D01*
X165980952Y-154556666D01*
X165552380Y-154223333D02*
X165552380Y-153556666D01*
X166552380Y-153985238D01*
%TO.C,C50*%
X155557142Y-136612857D02*
X155604761Y-136660476D01*
X155652380Y-136803333D01*
X155652380Y-136898571D01*
X155604761Y-137041428D01*
X155509523Y-137136666D01*
X155414285Y-137184285D01*
X155223809Y-137231904D01*
X155080952Y-137231904D01*
X154890476Y-137184285D01*
X154795238Y-137136666D01*
X154700000Y-137041428D01*
X154652380Y-136898571D01*
X154652380Y-136803333D01*
X154700000Y-136660476D01*
X154747619Y-136612857D01*
X154652380Y-135708095D02*
X154652380Y-136184285D01*
X155128571Y-136231904D01*
X155080952Y-136184285D01*
X155033333Y-136089047D01*
X155033333Y-135850952D01*
X155080952Y-135755714D01*
X155128571Y-135708095D01*
X155223809Y-135660476D01*
X155461904Y-135660476D01*
X155557142Y-135708095D01*
X155604761Y-135755714D01*
X155652380Y-135850952D01*
X155652380Y-136089047D01*
X155604761Y-136184285D01*
X155557142Y-136231904D01*
X154652380Y-135041428D02*
X154652380Y-134946190D01*
X154700000Y-134850952D01*
X154747619Y-134803333D01*
X154842857Y-134755714D01*
X155033333Y-134708095D01*
X155271428Y-134708095D01*
X155461904Y-134755714D01*
X155557142Y-134803333D01*
X155604761Y-134850952D01*
X155652380Y-134946190D01*
X155652380Y-135041428D01*
X155604761Y-135136666D01*
X155557142Y-135184285D01*
X155461904Y-135231904D01*
X155271428Y-135279523D01*
X155033333Y-135279523D01*
X154842857Y-135231904D01*
X154747619Y-135184285D01*
X154700000Y-135136666D01*
X154652380Y-135041428D01*
%TO.C,U76*%
X172742380Y-122728095D02*
X173551904Y-122728095D01*
X173647142Y-122680476D01*
X173694761Y-122632857D01*
X173742380Y-122537619D01*
X173742380Y-122347142D01*
X173694761Y-122251904D01*
X173647142Y-122204285D01*
X173551904Y-122156666D01*
X172742380Y-122156666D01*
X172742380Y-121775714D02*
X172742380Y-121109047D01*
X173742380Y-121537619D01*
X172742380Y-120299523D02*
X172742380Y-120490000D01*
X172790000Y-120585238D01*
X172837619Y-120632857D01*
X172980476Y-120728095D01*
X173170952Y-120775714D01*
X173551904Y-120775714D01*
X173647142Y-120728095D01*
X173694761Y-120680476D01*
X173742380Y-120585238D01*
X173742380Y-120394761D01*
X173694761Y-120299523D01*
X173647142Y-120251904D01*
X173551904Y-120204285D01*
X173313809Y-120204285D01*
X173218571Y-120251904D01*
X173170952Y-120299523D01*
X173123333Y-120394761D01*
X173123333Y-120585238D01*
X173170952Y-120680476D01*
X173218571Y-120728095D01*
X173313809Y-120775714D01*
%TO.C,RN3*%
X160379523Y-113242380D02*
X160046190Y-112766190D01*
X159808095Y-113242380D02*
X159808095Y-112242380D01*
X160189047Y-112242380D01*
X160284285Y-112290000D01*
X160331904Y-112337619D01*
X160379523Y-112432857D01*
X160379523Y-112575714D01*
X160331904Y-112670952D01*
X160284285Y-112718571D01*
X160189047Y-112766190D01*
X159808095Y-112766190D01*
X160808095Y-113242380D02*
X160808095Y-112242380D01*
X161379523Y-113242380D01*
X161379523Y-112242380D01*
X161760476Y-112242380D02*
X162379523Y-112242380D01*
X162046190Y-112623333D01*
X162189047Y-112623333D01*
X162284285Y-112670952D01*
X162331904Y-112718571D01*
X162379523Y-112813809D01*
X162379523Y-113051904D01*
X162331904Y-113147142D01*
X162284285Y-113194761D01*
X162189047Y-113242380D01*
X161903333Y-113242380D01*
X161808095Y-113194761D01*
X161760476Y-113147142D01*
%TO.C,RN4*%
X162329523Y-105872380D02*
X161996190Y-105396190D01*
X161758095Y-105872380D02*
X161758095Y-104872380D01*
X162139047Y-104872380D01*
X162234285Y-104920000D01*
X162281904Y-104967619D01*
X162329523Y-105062857D01*
X162329523Y-105205714D01*
X162281904Y-105300952D01*
X162234285Y-105348571D01*
X162139047Y-105396190D01*
X161758095Y-105396190D01*
X162758095Y-105872380D02*
X162758095Y-104872380D01*
X163329523Y-105872380D01*
X163329523Y-104872380D01*
X164234285Y-105205714D02*
X164234285Y-105872380D01*
X163996190Y-104824761D02*
X163758095Y-105539047D01*
X164377142Y-105539047D01*
%TO.C,RN1*%
X168299523Y-100732380D02*
X167966190Y-100256190D01*
X167728095Y-100732380D02*
X167728095Y-99732380D01*
X168109047Y-99732380D01*
X168204285Y-99780000D01*
X168251904Y-99827619D01*
X168299523Y-99922857D01*
X168299523Y-100065714D01*
X168251904Y-100160952D01*
X168204285Y-100208571D01*
X168109047Y-100256190D01*
X167728095Y-100256190D01*
X168728095Y-100732380D02*
X168728095Y-99732380D01*
X169299523Y-100732380D01*
X169299523Y-99732380D01*
X170299523Y-100732380D02*
X169728095Y-100732380D01*
X170013809Y-100732380D02*
X170013809Y-99732380D01*
X169918571Y-99875238D01*
X169823333Y-99970476D01*
X169728095Y-100018095D01*
%TO.C,RN2*%
X160589523Y-93052380D02*
X160256190Y-92576190D01*
X160018095Y-93052380D02*
X160018095Y-92052380D01*
X160399047Y-92052380D01*
X160494285Y-92100000D01*
X160541904Y-92147619D01*
X160589523Y-92242857D01*
X160589523Y-92385714D01*
X160541904Y-92480952D01*
X160494285Y-92528571D01*
X160399047Y-92576190D01*
X160018095Y-92576190D01*
X161018095Y-93052380D02*
X161018095Y-92052380D01*
X161589523Y-93052380D01*
X161589523Y-92052380D01*
X162018095Y-92147619D02*
X162065714Y-92100000D01*
X162160952Y-92052380D01*
X162399047Y-92052380D01*
X162494285Y-92100000D01*
X162541904Y-92147619D01*
X162589523Y-92242857D01*
X162589523Y-92338095D01*
X162541904Y-92480952D01*
X161970476Y-93052380D01*
X162589523Y-93052380D01*
%TO.C,U49*%
X172732380Y-87448095D02*
X173541904Y-87448095D01*
X173637142Y-87400476D01*
X173684761Y-87352857D01*
X173732380Y-87257619D01*
X173732380Y-87067142D01*
X173684761Y-86971904D01*
X173637142Y-86924285D01*
X173541904Y-86876666D01*
X172732380Y-86876666D01*
X173065714Y-85971904D02*
X173732380Y-85971904D01*
X172684761Y-86210000D02*
X173399047Y-86448095D01*
X173399047Y-85829047D01*
X173732380Y-85400476D02*
X173732380Y-85210000D01*
X173684761Y-85114761D01*
X173637142Y-85067142D01*
X173494285Y-84971904D01*
X173303809Y-84924285D01*
X172922857Y-84924285D01*
X172827619Y-84971904D01*
X172780000Y-85019523D01*
X172732380Y-85114761D01*
X172732380Y-85305238D01*
X172780000Y-85400476D01*
X172827619Y-85448095D01*
X172922857Y-85495714D01*
X173160952Y-85495714D01*
X173256190Y-85448095D01*
X173303809Y-85400476D01*
X173351428Y-85305238D01*
X173351428Y-85114761D01*
X173303809Y-85019523D01*
X173256190Y-84971904D01*
X173160952Y-84924285D01*
%TO.C,U50*%
X148012380Y-86708095D02*
X148821904Y-86708095D01*
X148917142Y-86660476D01*
X148964761Y-86612857D01*
X149012380Y-86517619D01*
X149012380Y-86327142D01*
X148964761Y-86231904D01*
X148917142Y-86184285D01*
X148821904Y-86136666D01*
X148012380Y-86136666D01*
X148012380Y-85184285D02*
X148012380Y-85660476D01*
X148488571Y-85708095D01*
X148440952Y-85660476D01*
X148393333Y-85565238D01*
X148393333Y-85327142D01*
X148440952Y-85231904D01*
X148488571Y-85184285D01*
X148583809Y-85136666D01*
X148821904Y-85136666D01*
X148917142Y-85184285D01*
X148964761Y-85231904D01*
X149012380Y-85327142D01*
X149012380Y-85565238D01*
X148964761Y-85660476D01*
X148917142Y-85708095D01*
X148012380Y-84517619D02*
X148012380Y-84422380D01*
X148060000Y-84327142D01*
X148107619Y-84279523D01*
X148202857Y-84231904D01*
X148393333Y-84184285D01*
X148631428Y-84184285D01*
X148821904Y-84231904D01*
X148917142Y-84279523D01*
X148964761Y-84327142D01*
X149012380Y-84422380D01*
X149012380Y-84517619D01*
X148964761Y-84612857D01*
X148917142Y-84660476D01*
X148821904Y-84708095D01*
X148631428Y-84755714D01*
X148393333Y-84755714D01*
X148202857Y-84708095D01*
X148107619Y-84660476D01*
X148060000Y-84612857D01*
X148012380Y-84517619D01*
%TO.C,U51*%
X118632380Y-86848095D02*
X119441904Y-86848095D01*
X119537142Y-86800476D01*
X119584761Y-86752857D01*
X119632380Y-86657619D01*
X119632380Y-86467142D01*
X119584761Y-86371904D01*
X119537142Y-86324285D01*
X119441904Y-86276666D01*
X118632380Y-86276666D01*
X118632380Y-85324285D02*
X118632380Y-85800476D01*
X119108571Y-85848095D01*
X119060952Y-85800476D01*
X119013333Y-85705238D01*
X119013333Y-85467142D01*
X119060952Y-85371904D01*
X119108571Y-85324285D01*
X119203809Y-85276666D01*
X119441904Y-85276666D01*
X119537142Y-85324285D01*
X119584761Y-85371904D01*
X119632380Y-85467142D01*
X119632380Y-85705238D01*
X119584761Y-85800476D01*
X119537142Y-85848095D01*
X119632380Y-84324285D02*
X119632380Y-84895714D01*
X119632380Y-84610000D02*
X118632380Y-84610000D01*
X118775238Y-84705238D01*
X118870476Y-84800476D01*
X118918095Y-84895714D01*
%TO.C,C33*%
X112177142Y-86362857D02*
X112224761Y-86410476D01*
X112272380Y-86553333D01*
X112272380Y-86648571D01*
X112224761Y-86791428D01*
X112129523Y-86886666D01*
X112034285Y-86934285D01*
X111843809Y-86981904D01*
X111700952Y-86981904D01*
X111510476Y-86934285D01*
X111415238Y-86886666D01*
X111320000Y-86791428D01*
X111272380Y-86648571D01*
X111272380Y-86553333D01*
X111320000Y-86410476D01*
X111367619Y-86362857D01*
X111272380Y-86029523D02*
X111272380Y-85410476D01*
X111653333Y-85743809D01*
X111653333Y-85600952D01*
X111700952Y-85505714D01*
X111748571Y-85458095D01*
X111843809Y-85410476D01*
X112081904Y-85410476D01*
X112177142Y-85458095D01*
X112224761Y-85505714D01*
X112272380Y-85600952D01*
X112272380Y-85886666D01*
X112224761Y-85981904D01*
X112177142Y-86029523D01*
X111272380Y-85077142D02*
X111272380Y-84458095D01*
X111653333Y-84791428D01*
X111653333Y-84648571D01*
X111700952Y-84553333D01*
X111748571Y-84505714D01*
X111843809Y-84458095D01*
X112081904Y-84458095D01*
X112177142Y-84505714D01*
X112224761Y-84553333D01*
X112272380Y-84648571D01*
X112272380Y-84934285D01*
X112224761Y-85029523D01*
X112177142Y-85077142D01*
%TO.C,U41*%
X167472380Y-75878095D02*
X168281904Y-75878095D01*
X168377142Y-75830476D01*
X168424761Y-75782857D01*
X168472380Y-75687619D01*
X168472380Y-75497142D01*
X168424761Y-75401904D01*
X168377142Y-75354285D01*
X168281904Y-75306666D01*
X167472380Y-75306666D01*
X167805714Y-74401904D02*
X168472380Y-74401904D01*
X167424761Y-74640000D02*
X168139047Y-74878095D01*
X168139047Y-74259047D01*
X168472380Y-73354285D02*
X168472380Y-73925714D01*
X168472380Y-73640000D02*
X167472380Y-73640000D01*
X167615238Y-73735238D01*
X167710476Y-73830476D01*
X167758095Y-73925714D01*
%TO.C,C25*%
X160677142Y-76152857D02*
X160724761Y-76200476D01*
X160772380Y-76343333D01*
X160772380Y-76438571D01*
X160724761Y-76581428D01*
X160629523Y-76676666D01*
X160534285Y-76724285D01*
X160343809Y-76771904D01*
X160200952Y-76771904D01*
X160010476Y-76724285D01*
X159915238Y-76676666D01*
X159820000Y-76581428D01*
X159772380Y-76438571D01*
X159772380Y-76343333D01*
X159820000Y-76200476D01*
X159867619Y-76152857D01*
X159867619Y-75771904D02*
X159820000Y-75724285D01*
X159772380Y-75629047D01*
X159772380Y-75390952D01*
X159820000Y-75295714D01*
X159867619Y-75248095D01*
X159962857Y-75200476D01*
X160058095Y-75200476D01*
X160200952Y-75248095D01*
X160772380Y-75819523D01*
X160772380Y-75200476D01*
X159772380Y-74295714D02*
X159772380Y-74771904D01*
X160248571Y-74819523D01*
X160200952Y-74771904D01*
X160153333Y-74676666D01*
X160153333Y-74438571D01*
X160200952Y-74343333D01*
X160248571Y-74295714D01*
X160343809Y-74248095D01*
X160581904Y-74248095D01*
X160677142Y-74295714D01*
X160724761Y-74343333D01*
X160772380Y-74438571D01*
X160772380Y-74676666D01*
X160724761Y-74771904D01*
X160677142Y-74819523D01*
%TO.C,U42*%
X146762380Y-76708095D02*
X147571904Y-76708095D01*
X147667142Y-76660476D01*
X147714761Y-76612857D01*
X147762380Y-76517619D01*
X147762380Y-76327142D01*
X147714761Y-76231904D01*
X147667142Y-76184285D01*
X147571904Y-76136666D01*
X146762380Y-76136666D01*
X147095714Y-75231904D02*
X147762380Y-75231904D01*
X146714761Y-75470000D02*
X147429047Y-75708095D01*
X147429047Y-75089047D01*
X146857619Y-74755714D02*
X146810000Y-74708095D01*
X146762380Y-74612857D01*
X146762380Y-74374761D01*
X146810000Y-74279523D01*
X146857619Y-74231904D01*
X146952857Y-74184285D01*
X147048095Y-74184285D01*
X147190952Y-74231904D01*
X147762380Y-74803333D01*
X147762380Y-74184285D01*
%TO.C,U43*%
X131512380Y-76528095D02*
X132321904Y-76528095D01*
X132417142Y-76480476D01*
X132464761Y-76432857D01*
X132512380Y-76337619D01*
X132512380Y-76147142D01*
X132464761Y-76051904D01*
X132417142Y-76004285D01*
X132321904Y-75956666D01*
X131512380Y-75956666D01*
X131845714Y-75051904D02*
X132512380Y-75051904D01*
X131464761Y-75290000D02*
X132179047Y-75528095D01*
X132179047Y-74909047D01*
X131512380Y-74623333D02*
X131512380Y-74004285D01*
X131893333Y-74337619D01*
X131893333Y-74194761D01*
X131940952Y-74099523D01*
X131988571Y-74051904D01*
X132083809Y-74004285D01*
X132321904Y-74004285D01*
X132417142Y-74051904D01*
X132464761Y-74099523D01*
X132512380Y-74194761D01*
X132512380Y-74480476D01*
X132464761Y-74575714D01*
X132417142Y-74623333D01*
%TO.C,C26*%
X99347142Y-75142857D02*
X99394761Y-75190476D01*
X99442380Y-75333333D01*
X99442380Y-75428571D01*
X99394761Y-75571428D01*
X99299523Y-75666666D01*
X99204285Y-75714285D01*
X99013809Y-75761904D01*
X98870952Y-75761904D01*
X98680476Y-75714285D01*
X98585238Y-75666666D01*
X98490000Y-75571428D01*
X98442380Y-75428571D01*
X98442380Y-75333333D01*
X98490000Y-75190476D01*
X98537619Y-75142857D01*
X98537619Y-74761904D02*
X98490000Y-74714285D01*
X98442380Y-74619047D01*
X98442380Y-74380952D01*
X98490000Y-74285714D01*
X98537619Y-74238095D01*
X98632857Y-74190476D01*
X98728095Y-74190476D01*
X98870952Y-74238095D01*
X99442380Y-74809523D01*
X99442380Y-74190476D01*
X98442380Y-73333333D02*
X98442380Y-73523809D01*
X98490000Y-73619047D01*
X98537619Y-73666666D01*
X98680476Y-73761904D01*
X98870952Y-73809523D01*
X99251904Y-73809523D01*
X99347142Y-73761904D01*
X99394761Y-73714285D01*
X99442380Y-73619047D01*
X99442380Y-73428571D01*
X99394761Y-73333333D01*
X99347142Y-73285714D01*
X99251904Y-73238095D01*
X99013809Y-73238095D01*
X98918571Y-73285714D01*
X98870952Y-73333333D01*
X98823333Y-73428571D01*
X98823333Y-73619047D01*
X98870952Y-73714285D01*
X98918571Y-73761904D01*
X99013809Y-73809523D01*
%TO.C,R22*%
X96962380Y-77262857D02*
X96486190Y-77596190D01*
X96962380Y-77834285D02*
X95962380Y-77834285D01*
X95962380Y-77453333D01*
X96010000Y-77358095D01*
X96057619Y-77310476D01*
X96152857Y-77262857D01*
X96295714Y-77262857D01*
X96390952Y-77310476D01*
X96438571Y-77358095D01*
X96486190Y-77453333D01*
X96486190Y-77834285D01*
X96057619Y-76881904D02*
X96010000Y-76834285D01*
X95962380Y-76739047D01*
X95962380Y-76500952D01*
X96010000Y-76405714D01*
X96057619Y-76358095D01*
X96152857Y-76310476D01*
X96248095Y-76310476D01*
X96390952Y-76358095D01*
X96962380Y-76929523D01*
X96962380Y-76310476D01*
X96057619Y-75929523D02*
X96010000Y-75881904D01*
X95962380Y-75786666D01*
X95962380Y-75548571D01*
X96010000Y-75453333D01*
X96057619Y-75405714D01*
X96152857Y-75358095D01*
X96248095Y-75358095D01*
X96390952Y-75405714D01*
X96962380Y-75977142D01*
X96962380Y-75358095D01*
%TO.C,U31*%
X171971904Y-61712380D02*
X171971904Y-62521904D01*
X172019523Y-62617142D01*
X172067142Y-62664761D01*
X172162380Y-62712380D01*
X172352857Y-62712380D01*
X172448095Y-62664761D01*
X172495714Y-62617142D01*
X172543333Y-62521904D01*
X172543333Y-61712380D01*
X172924285Y-61712380D02*
X173543333Y-61712380D01*
X173210000Y-62093333D01*
X173352857Y-62093333D01*
X173448095Y-62140952D01*
X173495714Y-62188571D01*
X173543333Y-62283809D01*
X173543333Y-62521904D01*
X173495714Y-62617142D01*
X173448095Y-62664761D01*
X173352857Y-62712380D01*
X173067142Y-62712380D01*
X172971904Y-62664761D01*
X172924285Y-62617142D01*
X174495714Y-62712380D02*
X173924285Y-62712380D01*
X174210000Y-62712380D02*
X174210000Y-61712380D01*
X174114761Y-61855238D01*
X174019523Y-61950476D01*
X173924285Y-61998095D01*
%TO.C,U32*%
X151822380Y-63838095D02*
X152631904Y-63838095D01*
X152727142Y-63790476D01*
X152774761Y-63742857D01*
X152822380Y-63647619D01*
X152822380Y-63457142D01*
X152774761Y-63361904D01*
X152727142Y-63314285D01*
X152631904Y-63266666D01*
X151822380Y-63266666D01*
X151822380Y-62885714D02*
X151822380Y-62266666D01*
X152203333Y-62600000D01*
X152203333Y-62457142D01*
X152250952Y-62361904D01*
X152298571Y-62314285D01*
X152393809Y-62266666D01*
X152631904Y-62266666D01*
X152727142Y-62314285D01*
X152774761Y-62361904D01*
X152822380Y-62457142D01*
X152822380Y-62742857D01*
X152774761Y-62838095D01*
X152727142Y-62885714D01*
X151917619Y-61885714D02*
X151870000Y-61838095D01*
X151822380Y-61742857D01*
X151822380Y-61504761D01*
X151870000Y-61409523D01*
X151917619Y-61361904D01*
X152012857Y-61314285D01*
X152108095Y-61314285D01*
X152250952Y-61361904D01*
X152822380Y-61933333D01*
X152822380Y-61314285D01*
%TO.C,C16*%
X137437142Y-63192857D02*
X137484761Y-63240476D01*
X137532380Y-63383333D01*
X137532380Y-63478571D01*
X137484761Y-63621428D01*
X137389523Y-63716666D01*
X137294285Y-63764285D01*
X137103809Y-63811904D01*
X136960952Y-63811904D01*
X136770476Y-63764285D01*
X136675238Y-63716666D01*
X136580000Y-63621428D01*
X136532380Y-63478571D01*
X136532380Y-63383333D01*
X136580000Y-63240476D01*
X136627619Y-63192857D01*
X137532380Y-62240476D02*
X137532380Y-62811904D01*
X137532380Y-62526190D02*
X136532380Y-62526190D01*
X136675238Y-62621428D01*
X136770476Y-62716666D01*
X136818095Y-62811904D01*
X136532380Y-61383333D02*
X136532380Y-61573809D01*
X136580000Y-61669047D01*
X136627619Y-61716666D01*
X136770476Y-61811904D01*
X136960952Y-61859523D01*
X137341904Y-61859523D01*
X137437142Y-61811904D01*
X137484761Y-61764285D01*
X137532380Y-61669047D01*
X137532380Y-61478571D01*
X137484761Y-61383333D01*
X137437142Y-61335714D01*
X137341904Y-61288095D01*
X137103809Y-61288095D01*
X137008571Y-61335714D01*
X136960952Y-61383333D01*
X136913333Y-61478571D01*
X136913333Y-61669047D01*
X136960952Y-61764285D01*
X137008571Y-61811904D01*
X137103809Y-61859523D01*
%TO.C,U33*%
X117982380Y-63808095D02*
X118791904Y-63808095D01*
X118887142Y-63760476D01*
X118934761Y-63712857D01*
X118982380Y-63617619D01*
X118982380Y-63427142D01*
X118934761Y-63331904D01*
X118887142Y-63284285D01*
X118791904Y-63236666D01*
X117982380Y-63236666D01*
X117982380Y-62855714D02*
X117982380Y-62236666D01*
X118363333Y-62570000D01*
X118363333Y-62427142D01*
X118410952Y-62331904D01*
X118458571Y-62284285D01*
X118553809Y-62236666D01*
X118791904Y-62236666D01*
X118887142Y-62284285D01*
X118934761Y-62331904D01*
X118982380Y-62427142D01*
X118982380Y-62712857D01*
X118934761Y-62808095D01*
X118887142Y-62855714D01*
X117982380Y-61903333D02*
X117982380Y-61284285D01*
X118363333Y-61617619D01*
X118363333Y-61474761D01*
X118410952Y-61379523D01*
X118458571Y-61331904D01*
X118553809Y-61284285D01*
X118791904Y-61284285D01*
X118887142Y-61331904D01*
X118934761Y-61379523D01*
X118982380Y-61474761D01*
X118982380Y-61760476D01*
X118934761Y-61855714D01*
X118887142Y-61903333D01*
%TO.C,R12*%
X112142380Y-64402857D02*
X111666190Y-64736190D01*
X112142380Y-64974285D02*
X111142380Y-64974285D01*
X111142380Y-64593333D01*
X111190000Y-64498095D01*
X111237619Y-64450476D01*
X111332857Y-64402857D01*
X111475714Y-64402857D01*
X111570952Y-64450476D01*
X111618571Y-64498095D01*
X111666190Y-64593333D01*
X111666190Y-64974285D01*
X112142380Y-63450476D02*
X112142380Y-64021904D01*
X112142380Y-63736190D02*
X111142380Y-63736190D01*
X111285238Y-63831428D01*
X111380476Y-63926666D01*
X111428095Y-64021904D01*
X111237619Y-63069523D02*
X111190000Y-63021904D01*
X111142380Y-62926666D01*
X111142380Y-62688571D01*
X111190000Y-62593333D01*
X111237619Y-62545714D01*
X111332857Y-62498095D01*
X111428095Y-62498095D01*
X111570952Y-62545714D01*
X112142380Y-63117142D01*
X112142380Y-62498095D01*
%TO.C,C17*%
X109537142Y-62362857D02*
X109584761Y-62410476D01*
X109632380Y-62553333D01*
X109632380Y-62648571D01*
X109584761Y-62791428D01*
X109489523Y-62886666D01*
X109394285Y-62934285D01*
X109203809Y-62981904D01*
X109060952Y-62981904D01*
X108870476Y-62934285D01*
X108775238Y-62886666D01*
X108680000Y-62791428D01*
X108632380Y-62648571D01*
X108632380Y-62553333D01*
X108680000Y-62410476D01*
X108727619Y-62362857D01*
X109632380Y-61410476D02*
X109632380Y-61981904D01*
X109632380Y-61696190D02*
X108632380Y-61696190D01*
X108775238Y-61791428D01*
X108870476Y-61886666D01*
X108918095Y-61981904D01*
X108632380Y-61077142D02*
X108632380Y-60410476D01*
X109632380Y-60839047D01*
%TO.C,R13*%
X107032380Y-64622857D02*
X106556190Y-64956190D01*
X107032380Y-65194285D02*
X106032380Y-65194285D01*
X106032380Y-64813333D01*
X106080000Y-64718095D01*
X106127619Y-64670476D01*
X106222857Y-64622857D01*
X106365714Y-64622857D01*
X106460952Y-64670476D01*
X106508571Y-64718095D01*
X106556190Y-64813333D01*
X106556190Y-65194285D01*
X107032380Y-63670476D02*
X107032380Y-64241904D01*
X107032380Y-63956190D02*
X106032380Y-63956190D01*
X106175238Y-64051428D01*
X106270476Y-64146666D01*
X106318095Y-64241904D01*
X106032380Y-63337142D02*
X106032380Y-62718095D01*
X106413333Y-63051428D01*
X106413333Y-62908571D01*
X106460952Y-62813333D01*
X106508571Y-62765714D01*
X106603809Y-62718095D01*
X106841904Y-62718095D01*
X106937142Y-62765714D01*
X106984761Y-62813333D01*
X107032380Y-62908571D01*
X107032380Y-63194285D01*
X106984761Y-63289523D01*
X106937142Y-63337142D01*
%TO.C,R14*%
X104412380Y-62872857D02*
X103936190Y-63206190D01*
X104412380Y-63444285D02*
X103412380Y-63444285D01*
X103412380Y-63063333D01*
X103460000Y-62968095D01*
X103507619Y-62920476D01*
X103602857Y-62872857D01*
X103745714Y-62872857D01*
X103840952Y-62920476D01*
X103888571Y-62968095D01*
X103936190Y-63063333D01*
X103936190Y-63444285D01*
X104412380Y-61920476D02*
X104412380Y-62491904D01*
X104412380Y-62206190D02*
X103412380Y-62206190D01*
X103555238Y-62301428D01*
X103650476Y-62396666D01*
X103698095Y-62491904D01*
X103745714Y-61063333D02*
X104412380Y-61063333D01*
X103364761Y-61301428D02*
X104079047Y-61539523D01*
X104079047Y-60920476D01*
%TO.C,C18*%
X101587142Y-64492857D02*
X101634761Y-64540476D01*
X101682380Y-64683333D01*
X101682380Y-64778571D01*
X101634761Y-64921428D01*
X101539523Y-65016666D01*
X101444285Y-65064285D01*
X101253809Y-65111904D01*
X101110952Y-65111904D01*
X100920476Y-65064285D01*
X100825238Y-65016666D01*
X100730000Y-64921428D01*
X100682380Y-64778571D01*
X100682380Y-64683333D01*
X100730000Y-64540476D01*
X100777619Y-64492857D01*
X101682380Y-63540476D02*
X101682380Y-64111904D01*
X101682380Y-63826190D02*
X100682380Y-63826190D01*
X100825238Y-63921428D01*
X100920476Y-64016666D01*
X100968095Y-64111904D01*
X101110952Y-62969047D02*
X101063333Y-63064285D01*
X101015714Y-63111904D01*
X100920476Y-63159523D01*
X100872857Y-63159523D01*
X100777619Y-63111904D01*
X100730000Y-63064285D01*
X100682380Y-62969047D01*
X100682380Y-62778571D01*
X100730000Y-62683333D01*
X100777619Y-62635714D01*
X100872857Y-62588095D01*
X100920476Y-62588095D01*
X101015714Y-62635714D01*
X101063333Y-62683333D01*
X101110952Y-62778571D01*
X101110952Y-62969047D01*
X101158571Y-63064285D01*
X101206190Y-63111904D01*
X101301428Y-63159523D01*
X101491904Y-63159523D01*
X101587142Y-63111904D01*
X101634761Y-63064285D01*
X101682380Y-62969047D01*
X101682380Y-62778571D01*
X101634761Y-62683333D01*
X101587142Y-62635714D01*
X101491904Y-62588095D01*
X101301428Y-62588095D01*
X101206190Y-62635714D01*
X101158571Y-62683333D01*
X101110952Y-62778571D01*
%TO.C,D1*%
X99342380Y-64828095D02*
X98342380Y-64828095D01*
X98342380Y-64590000D01*
X98390000Y-64447142D01*
X98485238Y-64351904D01*
X98580476Y-64304285D01*
X98770952Y-64256666D01*
X98913809Y-64256666D01*
X99104285Y-64304285D01*
X99199523Y-64351904D01*
X99294761Y-64447142D01*
X99342380Y-64590000D01*
X99342380Y-64828095D01*
X99342380Y-63304285D02*
X99342380Y-63875714D01*
X99342380Y-63590000D02*
X98342380Y-63590000D01*
X98485238Y-63685238D01*
X98580476Y-63780476D01*
X98628095Y-63875714D01*
X99362380Y-57351904D02*
X98362380Y-57351904D01*
X99362380Y-56780476D02*
X98790952Y-57209047D01*
X98362380Y-56780476D02*
X98933809Y-57351904D01*
%TO.C,D2*%
X96792380Y-64978095D02*
X95792380Y-64978095D01*
X95792380Y-64740000D01*
X95840000Y-64597142D01*
X95935238Y-64501904D01*
X96030476Y-64454285D01*
X96220952Y-64406666D01*
X96363809Y-64406666D01*
X96554285Y-64454285D01*
X96649523Y-64501904D01*
X96744761Y-64597142D01*
X96792380Y-64740000D01*
X96792380Y-64978095D01*
X95887619Y-64025714D02*
X95840000Y-63978095D01*
X95792380Y-63882857D01*
X95792380Y-63644761D01*
X95840000Y-63549523D01*
X95887619Y-63501904D01*
X95982857Y-63454285D01*
X96078095Y-63454285D01*
X96220952Y-63501904D01*
X96792380Y-64073333D01*
X96792380Y-63454285D01*
X96732380Y-57371904D02*
X95732380Y-57371904D01*
X96732380Y-56800476D02*
X96160952Y-57229047D01*
X95732380Y-56800476D02*
X96303809Y-57371904D01*
%TO.C,R15*%
X94002380Y-64582857D02*
X93526190Y-64916190D01*
X94002380Y-65154285D02*
X93002380Y-65154285D01*
X93002380Y-64773333D01*
X93050000Y-64678095D01*
X93097619Y-64630476D01*
X93192857Y-64582857D01*
X93335714Y-64582857D01*
X93430952Y-64630476D01*
X93478571Y-64678095D01*
X93526190Y-64773333D01*
X93526190Y-65154285D01*
X94002380Y-63630476D02*
X94002380Y-64201904D01*
X94002380Y-63916190D02*
X93002380Y-63916190D01*
X93145238Y-64011428D01*
X93240476Y-64106666D01*
X93288095Y-64201904D01*
X93002380Y-62725714D02*
X93002380Y-63201904D01*
X93478571Y-63249523D01*
X93430952Y-63201904D01*
X93383333Y-63106666D01*
X93383333Y-62868571D01*
X93430952Y-62773333D01*
X93478571Y-62725714D01*
X93573809Y-62678095D01*
X93811904Y-62678095D01*
X93907142Y-62725714D01*
X93954761Y-62773333D01*
X94002380Y-62868571D01*
X94002380Y-63106666D01*
X93954761Y-63201904D01*
X93907142Y-63249523D01*
%TO.C,U25*%
X98522380Y-50998095D02*
X99331904Y-50998095D01*
X99427142Y-50950476D01*
X99474761Y-50902857D01*
X99522380Y-50807619D01*
X99522380Y-50617142D01*
X99474761Y-50521904D01*
X99427142Y-50474285D01*
X99331904Y-50426666D01*
X98522380Y-50426666D01*
X98617619Y-49998095D02*
X98570000Y-49950476D01*
X98522380Y-49855238D01*
X98522380Y-49617142D01*
X98570000Y-49521904D01*
X98617619Y-49474285D01*
X98712857Y-49426666D01*
X98808095Y-49426666D01*
X98950952Y-49474285D01*
X99522380Y-50045714D01*
X99522380Y-49426666D01*
X98522380Y-48521904D02*
X98522380Y-48998095D01*
X98998571Y-49045714D01*
X98950952Y-48998095D01*
X98903333Y-48902857D01*
X98903333Y-48664761D01*
X98950952Y-48569523D01*
X98998571Y-48521904D01*
X99093809Y-48474285D01*
X99331904Y-48474285D01*
X99427142Y-48521904D01*
X99474761Y-48569523D01*
X99522380Y-48664761D01*
X99522380Y-48902857D01*
X99474761Y-48998095D01*
X99427142Y-49045714D01*
%TO.C,U24*%
X118692380Y-51148095D02*
X119501904Y-51148095D01*
X119597142Y-51100476D01*
X119644761Y-51052857D01*
X119692380Y-50957619D01*
X119692380Y-50767142D01*
X119644761Y-50671904D01*
X119597142Y-50624285D01*
X119501904Y-50576666D01*
X118692380Y-50576666D01*
X118787619Y-50148095D02*
X118740000Y-50100476D01*
X118692380Y-50005238D01*
X118692380Y-49767142D01*
X118740000Y-49671904D01*
X118787619Y-49624285D01*
X118882857Y-49576666D01*
X118978095Y-49576666D01*
X119120952Y-49624285D01*
X119692380Y-50195714D01*
X119692380Y-49576666D01*
X119025714Y-48719523D02*
X119692380Y-48719523D01*
X118644761Y-48957619D02*
X119359047Y-49195714D01*
X119359047Y-48576666D01*
%TO.C,U23*%
X139292380Y-51088095D02*
X140101904Y-51088095D01*
X140197142Y-51040476D01*
X140244761Y-50992857D01*
X140292380Y-50897619D01*
X140292380Y-50707142D01*
X140244761Y-50611904D01*
X140197142Y-50564285D01*
X140101904Y-50516666D01*
X139292380Y-50516666D01*
X139387619Y-50088095D02*
X139340000Y-50040476D01*
X139292380Y-49945238D01*
X139292380Y-49707142D01*
X139340000Y-49611904D01*
X139387619Y-49564285D01*
X139482857Y-49516666D01*
X139578095Y-49516666D01*
X139720952Y-49564285D01*
X140292380Y-50135714D01*
X140292380Y-49516666D01*
X139292380Y-49183333D02*
X139292380Y-48564285D01*
X139673333Y-48897619D01*
X139673333Y-48754761D01*
X139720952Y-48659523D01*
X139768571Y-48611904D01*
X139863809Y-48564285D01*
X140101904Y-48564285D01*
X140197142Y-48611904D01*
X140244761Y-48659523D01*
X140292380Y-48754761D01*
X140292380Y-49040476D01*
X140244761Y-49135714D01*
X140197142Y-49183333D01*
%TO.C,R19*%
X158282380Y-51962857D02*
X157806190Y-52296190D01*
X158282380Y-52534285D02*
X157282380Y-52534285D01*
X157282380Y-52153333D01*
X157330000Y-52058095D01*
X157377619Y-52010476D01*
X157472857Y-51962857D01*
X157615714Y-51962857D01*
X157710952Y-52010476D01*
X157758571Y-52058095D01*
X157806190Y-52153333D01*
X157806190Y-52534285D01*
X158282380Y-51010476D02*
X158282380Y-51581904D01*
X158282380Y-51296190D02*
X157282380Y-51296190D01*
X157425238Y-51391428D01*
X157520476Y-51486666D01*
X157568095Y-51581904D01*
X158282380Y-50534285D02*
X158282380Y-50343809D01*
X158234761Y-50248571D01*
X158187142Y-50200952D01*
X158044285Y-50105714D01*
X157853809Y-50058095D01*
X157472857Y-50058095D01*
X157377619Y-50105714D01*
X157330000Y-50153333D01*
X157282380Y-50248571D01*
X157282380Y-50439047D01*
X157330000Y-50534285D01*
X157377619Y-50581904D01*
X157472857Y-50629523D01*
X157710952Y-50629523D01*
X157806190Y-50581904D01*
X157853809Y-50534285D01*
X157901428Y-50439047D01*
X157901428Y-50248571D01*
X157853809Y-50153333D01*
X157806190Y-50105714D01*
X157710952Y-50058095D01*
%TO.C,U22*%
X164982380Y-51128095D02*
X165791904Y-51128095D01*
X165887142Y-51080476D01*
X165934761Y-51032857D01*
X165982380Y-50937619D01*
X165982380Y-50747142D01*
X165934761Y-50651904D01*
X165887142Y-50604285D01*
X165791904Y-50556666D01*
X164982380Y-50556666D01*
X165077619Y-50128095D02*
X165030000Y-50080476D01*
X164982380Y-49985238D01*
X164982380Y-49747142D01*
X165030000Y-49651904D01*
X165077619Y-49604285D01*
X165172857Y-49556666D01*
X165268095Y-49556666D01*
X165410952Y-49604285D01*
X165982380Y-50175714D01*
X165982380Y-49556666D01*
X165077619Y-49175714D02*
X165030000Y-49128095D01*
X164982380Y-49032857D01*
X164982380Y-48794761D01*
X165030000Y-48699523D01*
X165077619Y-48651904D01*
X165172857Y-48604285D01*
X165268095Y-48604285D01*
X165410952Y-48651904D01*
X165982380Y-49223333D01*
X165982380Y-48604285D01*
%TO.C,U7*%
X97102380Y-27021904D02*
X97911904Y-27021904D01*
X98007142Y-26974285D01*
X98054761Y-26926666D01*
X98102380Y-26831428D01*
X98102380Y-26640952D01*
X98054761Y-26545714D01*
X98007142Y-26498095D01*
X97911904Y-26450476D01*
X97102380Y-26450476D01*
X97102380Y-26069523D02*
X97102380Y-25402857D01*
X98102380Y-25831428D01*
%TO.C,U15*%
X126242380Y-38798095D02*
X127051904Y-38798095D01*
X127147142Y-38750476D01*
X127194761Y-38702857D01*
X127242380Y-38607619D01*
X127242380Y-38417142D01*
X127194761Y-38321904D01*
X127147142Y-38274285D01*
X127051904Y-38226666D01*
X126242380Y-38226666D01*
X127242380Y-37226666D02*
X127242380Y-37798095D01*
X127242380Y-37512380D02*
X126242380Y-37512380D01*
X126385238Y-37607619D01*
X126480476Y-37702857D01*
X126528095Y-37798095D01*
X126242380Y-36321904D02*
X126242380Y-36798095D01*
X126718571Y-36845714D01*
X126670952Y-36798095D01*
X126623333Y-36702857D01*
X126623333Y-36464761D01*
X126670952Y-36369523D01*
X126718571Y-36321904D01*
X126813809Y-36274285D01*
X127051904Y-36274285D01*
X127147142Y-36321904D01*
X127194761Y-36369523D01*
X127242380Y-36464761D01*
X127242380Y-36702857D01*
X127194761Y-36798095D01*
X127147142Y-36845714D01*
%TO.C,U16*%
X96552380Y-38528095D02*
X97361904Y-38528095D01*
X97457142Y-38480476D01*
X97504761Y-38432857D01*
X97552380Y-38337619D01*
X97552380Y-38147142D01*
X97504761Y-38051904D01*
X97457142Y-38004285D01*
X97361904Y-37956666D01*
X96552380Y-37956666D01*
X97552380Y-36956666D02*
X97552380Y-37528095D01*
X97552380Y-37242380D02*
X96552380Y-37242380D01*
X96695238Y-37337619D01*
X96790476Y-37432857D01*
X96838095Y-37528095D01*
X96552380Y-36099523D02*
X96552380Y-36290000D01*
X96600000Y-36385238D01*
X96647619Y-36432857D01*
X96790476Y-36528095D01*
X96980952Y-36575714D01*
X97361904Y-36575714D01*
X97457142Y-36528095D01*
X97504761Y-36480476D01*
X97552380Y-36385238D01*
X97552380Y-36194761D01*
X97504761Y-36099523D01*
X97457142Y-36051904D01*
X97361904Y-36004285D01*
X97123809Y-36004285D01*
X97028571Y-36051904D01*
X96980952Y-36099523D01*
X96933333Y-36194761D01*
X96933333Y-36385238D01*
X96980952Y-36480476D01*
X97028571Y-36528095D01*
X97123809Y-36575714D01*
%TO.C,U14*%
X144202380Y-38138095D02*
X145011904Y-38138095D01*
X145107142Y-38090476D01*
X145154761Y-38042857D01*
X145202380Y-37947619D01*
X145202380Y-37757142D01*
X145154761Y-37661904D01*
X145107142Y-37614285D01*
X145011904Y-37566666D01*
X144202380Y-37566666D01*
X145202380Y-36566666D02*
X145202380Y-37138095D01*
X145202380Y-36852380D02*
X144202380Y-36852380D01*
X144345238Y-36947619D01*
X144440476Y-37042857D01*
X144488095Y-37138095D01*
X144535714Y-35709523D02*
X145202380Y-35709523D01*
X144154761Y-35947619D02*
X144869047Y-36185714D01*
X144869047Y-35566666D01*
%TO.C,C7*%
X158067142Y-37356666D02*
X158114761Y-37404285D01*
X158162380Y-37547142D01*
X158162380Y-37642380D01*
X158114761Y-37785238D01*
X158019523Y-37880476D01*
X157924285Y-37928095D01*
X157733809Y-37975714D01*
X157590952Y-37975714D01*
X157400476Y-37928095D01*
X157305238Y-37880476D01*
X157210000Y-37785238D01*
X157162380Y-37642380D01*
X157162380Y-37547142D01*
X157210000Y-37404285D01*
X157257619Y-37356666D01*
X157162380Y-37023333D02*
X157162380Y-36356666D01*
X158162380Y-36785238D01*
%TO.C,U13*%
X162532380Y-38078095D02*
X163341904Y-38078095D01*
X163437142Y-38030476D01*
X163484761Y-37982857D01*
X163532380Y-37887619D01*
X163532380Y-37697142D01*
X163484761Y-37601904D01*
X163437142Y-37554285D01*
X163341904Y-37506666D01*
X162532380Y-37506666D01*
X163532380Y-36506666D02*
X163532380Y-37078095D01*
X163532380Y-36792380D02*
X162532380Y-36792380D01*
X162675238Y-36887619D01*
X162770476Y-36982857D01*
X162818095Y-37078095D01*
X162532380Y-36173333D02*
X162532380Y-35554285D01*
X162913333Y-35887619D01*
X162913333Y-35744761D01*
X162960952Y-35649523D01*
X163008571Y-35601904D01*
X163103809Y-35554285D01*
X163341904Y-35554285D01*
X163437142Y-35601904D01*
X163484761Y-35649523D01*
X163532380Y-35744761D01*
X163532380Y-36030476D01*
X163484761Y-36125714D01*
X163437142Y-36173333D01*
%TO.C,U6*%
X118692380Y-27401904D02*
X119501904Y-27401904D01*
X119597142Y-27354285D01*
X119644761Y-27306666D01*
X119692380Y-27211428D01*
X119692380Y-27020952D01*
X119644761Y-26925714D01*
X119597142Y-26878095D01*
X119501904Y-26830476D01*
X118692380Y-26830476D01*
X118692380Y-25925714D02*
X118692380Y-26116190D01*
X118740000Y-26211428D01*
X118787619Y-26259047D01*
X118930476Y-26354285D01*
X119120952Y-26401904D01*
X119501904Y-26401904D01*
X119597142Y-26354285D01*
X119644761Y-26306666D01*
X119692380Y-26211428D01*
X119692380Y-26020952D01*
X119644761Y-25925714D01*
X119597142Y-25878095D01*
X119501904Y-25830476D01*
X119263809Y-25830476D01*
X119168571Y-25878095D01*
X119120952Y-25925714D01*
X119073333Y-26020952D01*
X119073333Y-26211428D01*
X119120952Y-26306666D01*
X119168571Y-26354285D01*
X119263809Y-26401904D01*
%TO.C,U5*%
X140872380Y-27831904D02*
X141681904Y-27831904D01*
X141777142Y-27784285D01*
X141824761Y-27736666D01*
X141872380Y-27641428D01*
X141872380Y-27450952D01*
X141824761Y-27355714D01*
X141777142Y-27308095D01*
X141681904Y-27260476D01*
X140872380Y-27260476D01*
X140872380Y-26308095D02*
X140872380Y-26784285D01*
X141348571Y-26831904D01*
X141300952Y-26784285D01*
X141253333Y-26689047D01*
X141253333Y-26450952D01*
X141300952Y-26355714D01*
X141348571Y-26308095D01*
X141443809Y-26260476D01*
X141681904Y-26260476D01*
X141777142Y-26308095D01*
X141824761Y-26355714D01*
X141872380Y-26450952D01*
X141872380Y-26689047D01*
X141824761Y-26784285D01*
X141777142Y-26831904D01*
%TO.C,U4*%
X165072380Y-27531904D02*
X165881904Y-27531904D01*
X165977142Y-27484285D01*
X166024761Y-27436666D01*
X166072380Y-27341428D01*
X166072380Y-27150952D01*
X166024761Y-27055714D01*
X165977142Y-27008095D01*
X165881904Y-26960476D01*
X165072380Y-26960476D01*
X165405714Y-26055714D02*
X166072380Y-26055714D01*
X165024761Y-26293809D02*
X165739047Y-26531904D01*
X165739047Y-25912857D01*
%TO.C,U96*%
X190912380Y-156128095D02*
X191721904Y-156128095D01*
X191817142Y-156080476D01*
X191864761Y-156032857D01*
X191912380Y-155937619D01*
X191912380Y-155747142D01*
X191864761Y-155651904D01*
X191817142Y-155604285D01*
X191721904Y-155556666D01*
X190912380Y-155556666D01*
X191912380Y-155032857D02*
X191912380Y-154842380D01*
X191864761Y-154747142D01*
X191817142Y-154699523D01*
X191674285Y-154604285D01*
X191483809Y-154556666D01*
X191102857Y-154556666D01*
X191007619Y-154604285D01*
X190960000Y-154651904D01*
X190912380Y-154747142D01*
X190912380Y-154937619D01*
X190960000Y-155032857D01*
X191007619Y-155080476D01*
X191102857Y-155128095D01*
X191340952Y-155128095D01*
X191436190Y-155080476D01*
X191483809Y-155032857D01*
X191531428Y-154937619D01*
X191531428Y-154747142D01*
X191483809Y-154651904D01*
X191436190Y-154604285D01*
X191340952Y-154556666D01*
X190912380Y-153699523D02*
X190912380Y-153890000D01*
X190960000Y-153985238D01*
X191007619Y-154032857D01*
X191150476Y-154128095D01*
X191340952Y-154175714D01*
X191721904Y-154175714D01*
X191817142Y-154128095D01*
X191864761Y-154080476D01*
X191912380Y-153985238D01*
X191912380Y-153794761D01*
X191864761Y-153699523D01*
X191817142Y-153651904D01*
X191721904Y-153604285D01*
X191483809Y-153604285D01*
X191388571Y-153651904D01*
X191340952Y-153699523D01*
X191293333Y-153794761D01*
X191293333Y-153985238D01*
X191340952Y-154080476D01*
X191388571Y-154128095D01*
X191483809Y-154175714D01*
%TO.C,C56*%
X217007142Y-155482857D02*
X217054761Y-155530476D01*
X217102380Y-155673333D01*
X217102380Y-155768571D01*
X217054761Y-155911428D01*
X216959523Y-156006666D01*
X216864285Y-156054285D01*
X216673809Y-156101904D01*
X216530952Y-156101904D01*
X216340476Y-156054285D01*
X216245238Y-156006666D01*
X216150000Y-155911428D01*
X216102380Y-155768571D01*
X216102380Y-155673333D01*
X216150000Y-155530476D01*
X216197619Y-155482857D01*
X216102380Y-154578095D02*
X216102380Y-155054285D01*
X216578571Y-155101904D01*
X216530952Y-155054285D01*
X216483333Y-154959047D01*
X216483333Y-154720952D01*
X216530952Y-154625714D01*
X216578571Y-154578095D01*
X216673809Y-154530476D01*
X216911904Y-154530476D01*
X217007142Y-154578095D01*
X217054761Y-154625714D01*
X217102380Y-154720952D01*
X217102380Y-154959047D01*
X217054761Y-155054285D01*
X217007142Y-155101904D01*
X216102380Y-153673333D02*
X216102380Y-153863809D01*
X216150000Y-153959047D01*
X216197619Y-154006666D01*
X216340476Y-154101904D01*
X216530952Y-154149523D01*
X216911904Y-154149523D01*
X217007142Y-154101904D01*
X217054761Y-154054285D01*
X217102380Y-153959047D01*
X217102380Y-153768571D01*
X217054761Y-153673333D01*
X217007142Y-153625714D01*
X216911904Y-153578095D01*
X216673809Y-153578095D01*
X216578571Y-153625714D01*
X216530952Y-153673333D01*
X216483333Y-153768571D01*
X216483333Y-153959047D01*
X216530952Y-154054285D01*
X216578571Y-154101904D01*
X216673809Y-154149523D01*
%TO.C,C55*%
X216987142Y-145222857D02*
X217034761Y-145270476D01*
X217082380Y-145413333D01*
X217082380Y-145508571D01*
X217034761Y-145651428D01*
X216939523Y-145746666D01*
X216844285Y-145794285D01*
X216653809Y-145841904D01*
X216510952Y-145841904D01*
X216320476Y-145794285D01*
X216225238Y-145746666D01*
X216130000Y-145651428D01*
X216082380Y-145508571D01*
X216082380Y-145413333D01*
X216130000Y-145270476D01*
X216177619Y-145222857D01*
X216082380Y-144318095D02*
X216082380Y-144794285D01*
X216558571Y-144841904D01*
X216510952Y-144794285D01*
X216463333Y-144699047D01*
X216463333Y-144460952D01*
X216510952Y-144365714D01*
X216558571Y-144318095D01*
X216653809Y-144270476D01*
X216891904Y-144270476D01*
X216987142Y-144318095D01*
X217034761Y-144365714D01*
X217082380Y-144460952D01*
X217082380Y-144699047D01*
X217034761Y-144794285D01*
X216987142Y-144841904D01*
X216082380Y-143365714D02*
X216082380Y-143841904D01*
X216558571Y-143889523D01*
X216510952Y-143841904D01*
X216463333Y-143746666D01*
X216463333Y-143508571D01*
X216510952Y-143413333D01*
X216558571Y-143365714D01*
X216653809Y-143318095D01*
X216891904Y-143318095D01*
X216987142Y-143365714D01*
X217034761Y-143413333D01*
X217082380Y-143508571D01*
X217082380Y-143746666D01*
X217034761Y-143841904D01*
X216987142Y-143889523D01*
%TO.C,U84*%
X176532380Y-140058095D02*
X177341904Y-140058095D01*
X177437142Y-140010476D01*
X177484761Y-139962857D01*
X177532380Y-139867619D01*
X177532380Y-139677142D01*
X177484761Y-139581904D01*
X177437142Y-139534285D01*
X177341904Y-139486666D01*
X176532380Y-139486666D01*
X176960952Y-138867619D02*
X176913333Y-138962857D01*
X176865714Y-139010476D01*
X176770476Y-139058095D01*
X176722857Y-139058095D01*
X176627619Y-139010476D01*
X176580000Y-138962857D01*
X176532380Y-138867619D01*
X176532380Y-138677142D01*
X176580000Y-138581904D01*
X176627619Y-138534285D01*
X176722857Y-138486666D01*
X176770476Y-138486666D01*
X176865714Y-138534285D01*
X176913333Y-138581904D01*
X176960952Y-138677142D01*
X176960952Y-138867619D01*
X177008571Y-138962857D01*
X177056190Y-139010476D01*
X177151428Y-139058095D01*
X177341904Y-139058095D01*
X177437142Y-139010476D01*
X177484761Y-138962857D01*
X177532380Y-138867619D01*
X177532380Y-138677142D01*
X177484761Y-138581904D01*
X177437142Y-138534285D01*
X177341904Y-138486666D01*
X177151428Y-138486666D01*
X177056190Y-138534285D01*
X177008571Y-138581904D01*
X176960952Y-138677142D01*
X176865714Y-137629523D02*
X177532380Y-137629523D01*
X176484761Y-137867619D02*
X177199047Y-138105714D01*
X177199047Y-137486666D01*
%TO.C,R26*%
X214512380Y-136692857D02*
X214036190Y-137026190D01*
X214512380Y-137264285D02*
X213512380Y-137264285D01*
X213512380Y-136883333D01*
X213560000Y-136788095D01*
X213607619Y-136740476D01*
X213702857Y-136692857D01*
X213845714Y-136692857D01*
X213940952Y-136740476D01*
X213988571Y-136788095D01*
X214036190Y-136883333D01*
X214036190Y-137264285D01*
X213607619Y-136311904D02*
X213560000Y-136264285D01*
X213512380Y-136169047D01*
X213512380Y-135930952D01*
X213560000Y-135835714D01*
X213607619Y-135788095D01*
X213702857Y-135740476D01*
X213798095Y-135740476D01*
X213940952Y-135788095D01*
X214512380Y-136359523D01*
X214512380Y-135740476D01*
X213512380Y-134883333D02*
X213512380Y-135073809D01*
X213560000Y-135169047D01*
X213607619Y-135216666D01*
X213750476Y-135311904D01*
X213940952Y-135359523D01*
X214321904Y-135359523D01*
X214417142Y-135311904D01*
X214464761Y-135264285D01*
X214512380Y-135169047D01*
X214512380Y-134978571D01*
X214464761Y-134883333D01*
X214417142Y-134835714D01*
X214321904Y-134788095D01*
X214083809Y-134788095D01*
X213988571Y-134835714D01*
X213940952Y-134883333D01*
X213893333Y-134978571D01*
X213893333Y-135169047D01*
X213940952Y-135264285D01*
X213988571Y-135311904D01*
X214083809Y-135359523D01*
%TO.C,C49*%
X216957142Y-132342857D02*
X217004761Y-132390476D01*
X217052380Y-132533333D01*
X217052380Y-132628571D01*
X217004761Y-132771428D01*
X216909523Y-132866666D01*
X216814285Y-132914285D01*
X216623809Y-132961904D01*
X216480952Y-132961904D01*
X216290476Y-132914285D01*
X216195238Y-132866666D01*
X216100000Y-132771428D01*
X216052380Y-132628571D01*
X216052380Y-132533333D01*
X216100000Y-132390476D01*
X216147619Y-132342857D01*
X216385714Y-131485714D02*
X217052380Y-131485714D01*
X216004761Y-131723809D02*
X216719047Y-131961904D01*
X216719047Y-131342857D01*
X217052380Y-130914285D02*
X217052380Y-130723809D01*
X217004761Y-130628571D01*
X216957142Y-130580952D01*
X216814285Y-130485714D01*
X216623809Y-130438095D01*
X216242857Y-130438095D01*
X216147619Y-130485714D01*
X216100000Y-130533333D01*
X216052380Y-130628571D01*
X216052380Y-130819047D01*
X216100000Y-130914285D01*
X216147619Y-130961904D01*
X216242857Y-131009523D01*
X216480952Y-131009523D01*
X216576190Y-130961904D01*
X216623809Y-130914285D01*
X216671428Y-130819047D01*
X216671428Y-130628571D01*
X216623809Y-130533333D01*
X216576190Y-130485714D01*
X216480952Y-130438095D01*
%TO.C,C42*%
X216967142Y-122092857D02*
X217014761Y-122140476D01*
X217062380Y-122283333D01*
X217062380Y-122378571D01*
X217014761Y-122521428D01*
X216919523Y-122616666D01*
X216824285Y-122664285D01*
X216633809Y-122711904D01*
X216490952Y-122711904D01*
X216300476Y-122664285D01*
X216205238Y-122616666D01*
X216110000Y-122521428D01*
X216062380Y-122378571D01*
X216062380Y-122283333D01*
X216110000Y-122140476D01*
X216157619Y-122092857D01*
X216395714Y-121235714D02*
X217062380Y-121235714D01*
X216014761Y-121473809D02*
X216729047Y-121711904D01*
X216729047Y-121092857D01*
X216157619Y-120759523D02*
X216110000Y-120711904D01*
X216062380Y-120616666D01*
X216062380Y-120378571D01*
X216110000Y-120283333D01*
X216157619Y-120235714D01*
X216252857Y-120188095D01*
X216348095Y-120188095D01*
X216490952Y-120235714D01*
X217062380Y-120807142D01*
X217062380Y-120188095D01*
%TO.C,C43*%
X214417142Y-122172857D02*
X214464761Y-122220476D01*
X214512380Y-122363333D01*
X214512380Y-122458571D01*
X214464761Y-122601428D01*
X214369523Y-122696666D01*
X214274285Y-122744285D01*
X214083809Y-122791904D01*
X213940952Y-122791904D01*
X213750476Y-122744285D01*
X213655238Y-122696666D01*
X213560000Y-122601428D01*
X213512380Y-122458571D01*
X213512380Y-122363333D01*
X213560000Y-122220476D01*
X213607619Y-122172857D01*
X213845714Y-121315714D02*
X214512380Y-121315714D01*
X213464761Y-121553809D02*
X214179047Y-121791904D01*
X214179047Y-121172857D01*
X213512380Y-120887142D02*
X213512380Y-120268095D01*
X213893333Y-120601428D01*
X213893333Y-120458571D01*
X213940952Y-120363333D01*
X213988571Y-120315714D01*
X214083809Y-120268095D01*
X214321904Y-120268095D01*
X214417142Y-120315714D01*
X214464761Y-120363333D01*
X214512380Y-120458571D01*
X214512380Y-120744285D01*
X214464761Y-120839523D01*
X214417142Y-120887142D01*
%TO.C,U75*%
X188412380Y-122928095D02*
X189221904Y-122928095D01*
X189317142Y-122880476D01*
X189364761Y-122832857D01*
X189412380Y-122737619D01*
X189412380Y-122547142D01*
X189364761Y-122451904D01*
X189317142Y-122404285D01*
X189221904Y-122356666D01*
X188412380Y-122356666D01*
X188412380Y-121975714D02*
X188412380Y-121309047D01*
X189412380Y-121737619D01*
X188412380Y-120451904D02*
X188412380Y-120928095D01*
X188888571Y-120975714D01*
X188840952Y-120928095D01*
X188793333Y-120832857D01*
X188793333Y-120594761D01*
X188840952Y-120499523D01*
X188888571Y-120451904D01*
X188983809Y-120404285D01*
X189221904Y-120404285D01*
X189317142Y-120451904D01*
X189364761Y-120499523D01*
X189412380Y-120594761D01*
X189412380Y-120832857D01*
X189364761Y-120928095D01*
X189317142Y-120975714D01*
%TO.C,U65*%
X207632380Y-112788095D02*
X208441904Y-112788095D01*
X208537142Y-112740476D01*
X208584761Y-112692857D01*
X208632380Y-112597619D01*
X208632380Y-112407142D01*
X208584761Y-112311904D01*
X208537142Y-112264285D01*
X208441904Y-112216666D01*
X207632380Y-112216666D01*
X207632380Y-111311904D02*
X207632380Y-111502380D01*
X207680000Y-111597619D01*
X207727619Y-111645238D01*
X207870476Y-111740476D01*
X208060952Y-111788095D01*
X208441904Y-111788095D01*
X208537142Y-111740476D01*
X208584761Y-111692857D01*
X208632380Y-111597619D01*
X208632380Y-111407142D01*
X208584761Y-111311904D01*
X208537142Y-111264285D01*
X208441904Y-111216666D01*
X208203809Y-111216666D01*
X208108571Y-111264285D01*
X208060952Y-111311904D01*
X208013333Y-111407142D01*
X208013333Y-111597619D01*
X208060952Y-111692857D01*
X208108571Y-111740476D01*
X208203809Y-111788095D01*
X207632380Y-110311904D02*
X207632380Y-110788095D01*
X208108571Y-110835714D01*
X208060952Y-110788095D01*
X208013333Y-110692857D01*
X208013333Y-110454761D01*
X208060952Y-110359523D01*
X208108571Y-110311904D01*
X208203809Y-110264285D01*
X208441904Y-110264285D01*
X208537142Y-110311904D01*
X208584761Y-110359523D01*
X208632380Y-110454761D01*
X208632380Y-110692857D01*
X208584761Y-110788095D01*
X208537142Y-110835714D01*
%TO.C,U66*%
X188712380Y-113338095D02*
X189521904Y-113338095D01*
X189617142Y-113290476D01*
X189664761Y-113242857D01*
X189712380Y-113147619D01*
X189712380Y-112957142D01*
X189664761Y-112861904D01*
X189617142Y-112814285D01*
X189521904Y-112766666D01*
X188712380Y-112766666D01*
X188712380Y-111861904D02*
X188712380Y-112052380D01*
X188760000Y-112147619D01*
X188807619Y-112195238D01*
X188950476Y-112290476D01*
X189140952Y-112338095D01*
X189521904Y-112338095D01*
X189617142Y-112290476D01*
X189664761Y-112242857D01*
X189712380Y-112147619D01*
X189712380Y-111957142D01*
X189664761Y-111861904D01*
X189617142Y-111814285D01*
X189521904Y-111766666D01*
X189283809Y-111766666D01*
X189188571Y-111814285D01*
X189140952Y-111861904D01*
X189093333Y-111957142D01*
X189093333Y-112147619D01*
X189140952Y-112242857D01*
X189188571Y-112290476D01*
X189283809Y-112338095D01*
X188712380Y-110909523D02*
X188712380Y-111100000D01*
X188760000Y-111195238D01*
X188807619Y-111242857D01*
X188950476Y-111338095D01*
X189140952Y-111385714D01*
X189521904Y-111385714D01*
X189617142Y-111338095D01*
X189664761Y-111290476D01*
X189712380Y-111195238D01*
X189712380Y-111004761D01*
X189664761Y-110909523D01*
X189617142Y-110861904D01*
X189521904Y-110814285D01*
X189283809Y-110814285D01*
X189188571Y-110861904D01*
X189140952Y-110909523D01*
X189093333Y-111004761D01*
X189093333Y-111195238D01*
X189140952Y-111290476D01*
X189188571Y-111338095D01*
X189283809Y-111385714D01*
%TO.C,U55*%
X209872380Y-99878095D02*
X210681904Y-99878095D01*
X210777142Y-99830476D01*
X210824761Y-99782857D01*
X210872380Y-99687619D01*
X210872380Y-99497142D01*
X210824761Y-99401904D01*
X210777142Y-99354285D01*
X210681904Y-99306666D01*
X209872380Y-99306666D01*
X209872380Y-98354285D02*
X209872380Y-98830476D01*
X210348571Y-98878095D01*
X210300952Y-98830476D01*
X210253333Y-98735238D01*
X210253333Y-98497142D01*
X210300952Y-98401904D01*
X210348571Y-98354285D01*
X210443809Y-98306666D01*
X210681904Y-98306666D01*
X210777142Y-98354285D01*
X210824761Y-98401904D01*
X210872380Y-98497142D01*
X210872380Y-98735238D01*
X210824761Y-98830476D01*
X210777142Y-98878095D01*
X209872380Y-97401904D02*
X209872380Y-97878095D01*
X210348571Y-97925714D01*
X210300952Y-97878095D01*
X210253333Y-97782857D01*
X210253333Y-97544761D01*
X210300952Y-97449523D01*
X210348571Y-97401904D01*
X210443809Y-97354285D01*
X210681904Y-97354285D01*
X210777142Y-97401904D01*
X210824761Y-97449523D01*
X210872380Y-97544761D01*
X210872380Y-97782857D01*
X210824761Y-97878095D01*
X210777142Y-97925714D01*
%TO.C,U56*%
X185382380Y-99888095D02*
X186191904Y-99888095D01*
X186287142Y-99840476D01*
X186334761Y-99792857D01*
X186382380Y-99697619D01*
X186382380Y-99507142D01*
X186334761Y-99411904D01*
X186287142Y-99364285D01*
X186191904Y-99316666D01*
X185382380Y-99316666D01*
X185382380Y-98364285D02*
X185382380Y-98840476D01*
X185858571Y-98888095D01*
X185810952Y-98840476D01*
X185763333Y-98745238D01*
X185763333Y-98507142D01*
X185810952Y-98411904D01*
X185858571Y-98364285D01*
X185953809Y-98316666D01*
X186191904Y-98316666D01*
X186287142Y-98364285D01*
X186334761Y-98411904D01*
X186382380Y-98507142D01*
X186382380Y-98745238D01*
X186334761Y-98840476D01*
X186287142Y-98888095D01*
X185382380Y-97459523D02*
X185382380Y-97650000D01*
X185430000Y-97745238D01*
X185477619Y-97792857D01*
X185620476Y-97888095D01*
X185810952Y-97935714D01*
X186191904Y-97935714D01*
X186287142Y-97888095D01*
X186334761Y-97840476D01*
X186382380Y-97745238D01*
X186382380Y-97554761D01*
X186334761Y-97459523D01*
X186287142Y-97411904D01*
X186191904Y-97364285D01*
X185953809Y-97364285D01*
X185858571Y-97411904D01*
X185810952Y-97459523D01*
X185763333Y-97554761D01*
X185763333Y-97745238D01*
X185810952Y-97840476D01*
X185858571Y-97888095D01*
X185953809Y-97935714D01*
%TO.C,U47*%
X208372380Y-86628095D02*
X209181904Y-86628095D01*
X209277142Y-86580476D01*
X209324761Y-86532857D01*
X209372380Y-86437619D01*
X209372380Y-86247142D01*
X209324761Y-86151904D01*
X209277142Y-86104285D01*
X209181904Y-86056666D01*
X208372380Y-86056666D01*
X208705714Y-85151904D02*
X209372380Y-85151904D01*
X208324761Y-85390000D02*
X209039047Y-85628095D01*
X209039047Y-85009047D01*
X208372380Y-84723333D02*
X208372380Y-84056666D01*
X209372380Y-84485238D01*
%TO.C,U48*%
X190432380Y-87158095D02*
X191241904Y-87158095D01*
X191337142Y-87110476D01*
X191384761Y-87062857D01*
X191432380Y-86967619D01*
X191432380Y-86777142D01*
X191384761Y-86681904D01*
X191337142Y-86634285D01*
X191241904Y-86586666D01*
X190432380Y-86586666D01*
X190765714Y-85681904D02*
X191432380Y-85681904D01*
X190384761Y-85920000D02*
X191099047Y-86158095D01*
X191099047Y-85539047D01*
X190860952Y-85015238D02*
X190813333Y-85110476D01*
X190765714Y-85158095D01*
X190670476Y-85205714D01*
X190622857Y-85205714D01*
X190527619Y-85158095D01*
X190480000Y-85110476D01*
X190432380Y-85015238D01*
X190432380Y-84824761D01*
X190480000Y-84729523D01*
X190527619Y-84681904D01*
X190622857Y-84634285D01*
X190670476Y-84634285D01*
X190765714Y-84681904D01*
X190813333Y-84729523D01*
X190860952Y-84824761D01*
X190860952Y-85015238D01*
X190908571Y-85110476D01*
X190956190Y-85158095D01*
X191051428Y-85205714D01*
X191241904Y-85205714D01*
X191337142Y-85158095D01*
X191384761Y-85110476D01*
X191432380Y-85015238D01*
X191432380Y-84824761D01*
X191384761Y-84729523D01*
X191337142Y-84681904D01*
X191241904Y-84634285D01*
X191051428Y-84634285D01*
X190956190Y-84681904D01*
X190908571Y-84729523D01*
X190860952Y-84824761D01*
%TO.C,C23*%
X214327142Y-76322857D02*
X214374761Y-76370476D01*
X214422380Y-76513333D01*
X214422380Y-76608571D01*
X214374761Y-76751428D01*
X214279523Y-76846666D01*
X214184285Y-76894285D01*
X213993809Y-76941904D01*
X213850952Y-76941904D01*
X213660476Y-76894285D01*
X213565238Y-76846666D01*
X213470000Y-76751428D01*
X213422380Y-76608571D01*
X213422380Y-76513333D01*
X213470000Y-76370476D01*
X213517619Y-76322857D01*
X213517619Y-75941904D02*
X213470000Y-75894285D01*
X213422380Y-75799047D01*
X213422380Y-75560952D01*
X213470000Y-75465714D01*
X213517619Y-75418095D01*
X213612857Y-75370476D01*
X213708095Y-75370476D01*
X213850952Y-75418095D01*
X214422380Y-75989523D01*
X214422380Y-75370476D01*
X213422380Y-75037142D02*
X213422380Y-74418095D01*
X213803333Y-74751428D01*
X213803333Y-74608571D01*
X213850952Y-74513333D01*
X213898571Y-74465714D01*
X213993809Y-74418095D01*
X214231904Y-74418095D01*
X214327142Y-74465714D01*
X214374761Y-74513333D01*
X214422380Y-74608571D01*
X214422380Y-74894285D01*
X214374761Y-74989523D01*
X214327142Y-75037142D01*
%TO.C,R21*%
X217002380Y-74922857D02*
X216526190Y-75256190D01*
X217002380Y-75494285D02*
X216002380Y-75494285D01*
X216002380Y-75113333D01*
X216050000Y-75018095D01*
X216097619Y-74970476D01*
X216192857Y-74922857D01*
X216335714Y-74922857D01*
X216430952Y-74970476D01*
X216478571Y-75018095D01*
X216526190Y-75113333D01*
X216526190Y-75494285D01*
X216097619Y-74541904D02*
X216050000Y-74494285D01*
X216002380Y-74399047D01*
X216002380Y-74160952D01*
X216050000Y-74065714D01*
X216097619Y-74018095D01*
X216192857Y-73970476D01*
X216288095Y-73970476D01*
X216430952Y-74018095D01*
X217002380Y-74589523D01*
X217002380Y-73970476D01*
X217002380Y-73018095D02*
X217002380Y-73589523D01*
X217002380Y-73303809D02*
X216002380Y-73303809D01*
X216145238Y-73399047D01*
X216240476Y-73494285D01*
X216288095Y-73589523D01*
%TO.C,U40*%
X195662380Y-74278095D02*
X196471904Y-74278095D01*
X196567142Y-74230476D01*
X196614761Y-74182857D01*
X196662380Y-74087619D01*
X196662380Y-73897142D01*
X196614761Y-73801904D01*
X196567142Y-73754285D01*
X196471904Y-73706666D01*
X195662380Y-73706666D01*
X195995714Y-72801904D02*
X196662380Y-72801904D01*
X195614761Y-73040000D02*
X196329047Y-73278095D01*
X196329047Y-72659047D01*
X195662380Y-72087619D02*
X195662380Y-71992380D01*
X195710000Y-71897142D01*
X195757619Y-71849523D01*
X195852857Y-71801904D01*
X196043333Y-71754285D01*
X196281428Y-71754285D01*
X196471904Y-71801904D01*
X196567142Y-71849523D01*
X196614761Y-71897142D01*
X196662380Y-71992380D01*
X196662380Y-72087619D01*
X196614761Y-72182857D01*
X196567142Y-72230476D01*
X196471904Y-72278095D01*
X196281428Y-72325714D01*
X196043333Y-72325714D01*
X195852857Y-72278095D01*
X195757619Y-72230476D01*
X195710000Y-72182857D01*
X195662380Y-72087619D01*
%TO.C,C24*%
X186197142Y-75802857D02*
X186244761Y-75850476D01*
X186292380Y-75993333D01*
X186292380Y-76088571D01*
X186244761Y-76231428D01*
X186149523Y-76326666D01*
X186054285Y-76374285D01*
X185863809Y-76421904D01*
X185720952Y-76421904D01*
X185530476Y-76374285D01*
X185435238Y-76326666D01*
X185340000Y-76231428D01*
X185292380Y-76088571D01*
X185292380Y-75993333D01*
X185340000Y-75850476D01*
X185387619Y-75802857D01*
X185387619Y-75421904D02*
X185340000Y-75374285D01*
X185292380Y-75279047D01*
X185292380Y-75040952D01*
X185340000Y-74945714D01*
X185387619Y-74898095D01*
X185482857Y-74850476D01*
X185578095Y-74850476D01*
X185720952Y-74898095D01*
X186292380Y-75469523D01*
X186292380Y-74850476D01*
X185625714Y-73993333D02*
X186292380Y-73993333D01*
X185244761Y-74231428D02*
X185959047Y-74469523D01*
X185959047Y-73850476D01*
%TO.C,C22*%
X219477142Y-68052857D02*
X219524761Y-68100476D01*
X219572380Y-68243333D01*
X219572380Y-68338571D01*
X219524761Y-68481428D01*
X219429523Y-68576666D01*
X219334285Y-68624285D01*
X219143809Y-68671904D01*
X219000952Y-68671904D01*
X218810476Y-68624285D01*
X218715238Y-68576666D01*
X218620000Y-68481428D01*
X218572380Y-68338571D01*
X218572380Y-68243333D01*
X218620000Y-68100476D01*
X218667619Y-68052857D01*
X218667619Y-67671904D02*
X218620000Y-67624285D01*
X218572380Y-67529047D01*
X218572380Y-67290952D01*
X218620000Y-67195714D01*
X218667619Y-67148095D01*
X218762857Y-67100476D01*
X218858095Y-67100476D01*
X219000952Y-67148095D01*
X219572380Y-67719523D01*
X219572380Y-67100476D01*
X218667619Y-66719523D02*
X218620000Y-66671904D01*
X218572380Y-66576666D01*
X218572380Y-66338571D01*
X218620000Y-66243333D01*
X218667619Y-66195714D01*
X218762857Y-66148095D01*
X218858095Y-66148095D01*
X219000952Y-66195714D01*
X219572380Y-66767142D01*
X219572380Y-66148095D01*
%TO.C,U30*%
X198022380Y-63798095D02*
X198831904Y-63798095D01*
X198927142Y-63750476D01*
X198974761Y-63702857D01*
X199022380Y-63607619D01*
X199022380Y-63417142D01*
X198974761Y-63321904D01*
X198927142Y-63274285D01*
X198831904Y-63226666D01*
X198022380Y-63226666D01*
X198022380Y-62845714D02*
X198022380Y-62226666D01*
X198403333Y-62560000D01*
X198403333Y-62417142D01*
X198450952Y-62321904D01*
X198498571Y-62274285D01*
X198593809Y-62226666D01*
X198831904Y-62226666D01*
X198927142Y-62274285D01*
X198974761Y-62321904D01*
X199022380Y-62417142D01*
X199022380Y-62702857D01*
X198974761Y-62798095D01*
X198927142Y-62845714D01*
X198022380Y-61607619D02*
X198022380Y-61512380D01*
X198070000Y-61417142D01*
X198117619Y-61369523D01*
X198212857Y-61321904D01*
X198403333Y-61274285D01*
X198641428Y-61274285D01*
X198831904Y-61321904D01*
X198927142Y-61369523D01*
X198974761Y-61417142D01*
X199022380Y-61512380D01*
X199022380Y-61607619D01*
X198974761Y-61702857D01*
X198927142Y-61750476D01*
X198831904Y-61798095D01*
X198641428Y-61845714D01*
X198403333Y-61845714D01*
X198212857Y-61798095D01*
X198117619Y-61750476D01*
X198070000Y-61702857D01*
X198022380Y-61607619D01*
%TO.C,C14*%
X219367142Y-59272857D02*
X219414761Y-59320476D01*
X219462380Y-59463333D01*
X219462380Y-59558571D01*
X219414761Y-59701428D01*
X219319523Y-59796666D01*
X219224285Y-59844285D01*
X219033809Y-59891904D01*
X218890952Y-59891904D01*
X218700476Y-59844285D01*
X218605238Y-59796666D01*
X218510000Y-59701428D01*
X218462380Y-59558571D01*
X218462380Y-59463333D01*
X218510000Y-59320476D01*
X218557619Y-59272857D01*
X219462380Y-58320476D02*
X219462380Y-58891904D01*
X219462380Y-58606190D02*
X218462380Y-58606190D01*
X218605238Y-58701428D01*
X218700476Y-58796666D01*
X218748095Y-58891904D01*
X218795714Y-57463333D02*
X219462380Y-57463333D01*
X218414761Y-57701428D02*
X219129047Y-57939523D01*
X219129047Y-57320476D01*
%TO.C,C10*%
X219387142Y-47852857D02*
X219434761Y-47900476D01*
X219482380Y-48043333D01*
X219482380Y-48138571D01*
X219434761Y-48281428D01*
X219339523Y-48376666D01*
X219244285Y-48424285D01*
X219053809Y-48471904D01*
X218910952Y-48471904D01*
X218720476Y-48424285D01*
X218625238Y-48376666D01*
X218530000Y-48281428D01*
X218482380Y-48138571D01*
X218482380Y-48043333D01*
X218530000Y-47900476D01*
X218577619Y-47852857D01*
X219482380Y-46900476D02*
X219482380Y-47471904D01*
X219482380Y-47186190D02*
X218482380Y-47186190D01*
X218625238Y-47281428D01*
X218720476Y-47376666D01*
X218768095Y-47471904D01*
X218482380Y-46281428D02*
X218482380Y-46186190D01*
X218530000Y-46090952D01*
X218577619Y-46043333D01*
X218672857Y-45995714D01*
X218863333Y-45948095D01*
X219101428Y-45948095D01*
X219291904Y-45995714D01*
X219387142Y-46043333D01*
X219434761Y-46090952D01*
X219482380Y-46186190D01*
X219482380Y-46281428D01*
X219434761Y-46376666D01*
X219387142Y-46424285D01*
X219291904Y-46471904D01*
X219101428Y-46519523D01*
X218863333Y-46519523D01*
X218672857Y-46471904D01*
X218577619Y-46424285D01*
X218530000Y-46376666D01*
X218482380Y-46281428D01*
%TO.C,U21*%
X200512380Y-51098095D02*
X201321904Y-51098095D01*
X201417142Y-51050476D01*
X201464761Y-51002857D01*
X201512380Y-50907619D01*
X201512380Y-50717142D01*
X201464761Y-50621904D01*
X201417142Y-50574285D01*
X201321904Y-50526666D01*
X200512380Y-50526666D01*
X200607619Y-50098095D02*
X200560000Y-50050476D01*
X200512380Y-49955238D01*
X200512380Y-49717142D01*
X200560000Y-49621904D01*
X200607619Y-49574285D01*
X200702857Y-49526666D01*
X200798095Y-49526666D01*
X200940952Y-49574285D01*
X201512380Y-50145714D01*
X201512380Y-49526666D01*
X201512380Y-48574285D02*
X201512380Y-49145714D01*
X201512380Y-48860000D02*
X200512380Y-48860000D01*
X200655238Y-48955238D01*
X200750476Y-49050476D01*
X200798095Y-49145714D01*
%TO.C,C11*%
X186137142Y-50242857D02*
X186184761Y-50290476D01*
X186232380Y-50433333D01*
X186232380Y-50528571D01*
X186184761Y-50671428D01*
X186089523Y-50766666D01*
X185994285Y-50814285D01*
X185803809Y-50861904D01*
X185660952Y-50861904D01*
X185470476Y-50814285D01*
X185375238Y-50766666D01*
X185280000Y-50671428D01*
X185232380Y-50528571D01*
X185232380Y-50433333D01*
X185280000Y-50290476D01*
X185327619Y-50242857D01*
X186232380Y-49290476D02*
X186232380Y-49861904D01*
X186232380Y-49576190D02*
X185232380Y-49576190D01*
X185375238Y-49671428D01*
X185470476Y-49766666D01*
X185518095Y-49861904D01*
X186232380Y-48338095D02*
X186232380Y-48909523D01*
X186232380Y-48623809D02*
X185232380Y-48623809D01*
X185375238Y-48719047D01*
X185470476Y-48814285D01*
X185518095Y-48909523D01*
%TO.C,R6*%
X182802380Y-36366666D02*
X182326190Y-36700000D01*
X182802380Y-36938095D02*
X181802380Y-36938095D01*
X181802380Y-36557142D01*
X181850000Y-36461904D01*
X181897619Y-36414285D01*
X181992857Y-36366666D01*
X182135714Y-36366666D01*
X182230952Y-36414285D01*
X182278571Y-36461904D01*
X182326190Y-36557142D01*
X182326190Y-36938095D01*
X181802380Y-35509523D02*
X181802380Y-35700000D01*
X181850000Y-35795238D01*
X181897619Y-35842857D01*
X182040476Y-35938095D01*
X182230952Y-35985714D01*
X182611904Y-35985714D01*
X182707142Y-35938095D01*
X182754761Y-35890476D01*
X182802380Y-35795238D01*
X182802380Y-35604761D01*
X182754761Y-35509523D01*
X182707142Y-35461904D01*
X182611904Y-35414285D01*
X182373809Y-35414285D01*
X182278571Y-35461904D01*
X182230952Y-35509523D01*
X182183333Y-35604761D01*
X182183333Y-35795238D01*
X182230952Y-35890476D01*
X182278571Y-35938095D01*
X182373809Y-35985714D01*
%TO.C,C6*%
X186257142Y-37456666D02*
X186304761Y-37504285D01*
X186352380Y-37647142D01*
X186352380Y-37742380D01*
X186304761Y-37885238D01*
X186209523Y-37980476D01*
X186114285Y-38028095D01*
X185923809Y-38075714D01*
X185780952Y-38075714D01*
X185590476Y-38028095D01*
X185495238Y-37980476D01*
X185400000Y-37885238D01*
X185352380Y-37742380D01*
X185352380Y-37647142D01*
X185400000Y-37504285D01*
X185447619Y-37456666D01*
X185352380Y-36599523D02*
X185352380Y-36790000D01*
X185400000Y-36885238D01*
X185447619Y-36932857D01*
X185590476Y-37028095D01*
X185780952Y-37075714D01*
X186161904Y-37075714D01*
X186257142Y-37028095D01*
X186304761Y-36980476D01*
X186352380Y-36885238D01*
X186352380Y-36694761D01*
X186304761Y-36599523D01*
X186257142Y-36551904D01*
X186161904Y-36504285D01*
X185923809Y-36504285D01*
X185828571Y-36551904D01*
X185780952Y-36599523D01*
X185733333Y-36694761D01*
X185733333Y-36885238D01*
X185780952Y-36980476D01*
X185828571Y-37028095D01*
X185923809Y-37075714D01*
%TO.C,C5*%
X219437142Y-35696666D02*
X219484761Y-35744285D01*
X219532380Y-35887142D01*
X219532380Y-35982380D01*
X219484761Y-36125238D01*
X219389523Y-36220476D01*
X219294285Y-36268095D01*
X219103809Y-36315714D01*
X218960952Y-36315714D01*
X218770476Y-36268095D01*
X218675238Y-36220476D01*
X218580000Y-36125238D01*
X218532380Y-35982380D01*
X218532380Y-35887142D01*
X218580000Y-35744285D01*
X218627619Y-35696666D01*
X218532380Y-34791904D02*
X218532380Y-35268095D01*
X219008571Y-35315714D01*
X218960952Y-35268095D01*
X218913333Y-35172857D01*
X218913333Y-34934761D01*
X218960952Y-34839523D01*
X219008571Y-34791904D01*
X219103809Y-34744285D01*
X219341904Y-34744285D01*
X219437142Y-34791904D01*
X219484761Y-34839523D01*
X219532380Y-34934761D01*
X219532380Y-35172857D01*
X219484761Y-35268095D01*
X219437142Y-35315714D01*
%TO.C,U12*%
X193022380Y-38538095D02*
X193831904Y-38538095D01*
X193927142Y-38490476D01*
X193974761Y-38442857D01*
X194022380Y-38347619D01*
X194022380Y-38157142D01*
X193974761Y-38061904D01*
X193927142Y-38014285D01*
X193831904Y-37966666D01*
X193022380Y-37966666D01*
X194022380Y-36966666D02*
X194022380Y-37538095D01*
X194022380Y-37252380D02*
X193022380Y-37252380D01*
X193165238Y-37347619D01*
X193260476Y-37442857D01*
X193308095Y-37538095D01*
X193117619Y-36585714D02*
X193070000Y-36538095D01*
X193022380Y-36442857D01*
X193022380Y-36204761D01*
X193070000Y-36109523D01*
X193117619Y-36061904D01*
X193212857Y-36014285D01*
X193308095Y-36014285D01*
X193450952Y-36061904D01*
X194022380Y-36633333D01*
X194022380Y-36014285D01*
%TO.C,C2*%
X186237142Y-27996666D02*
X186284761Y-28044285D01*
X186332380Y-28187142D01*
X186332380Y-28282380D01*
X186284761Y-28425238D01*
X186189523Y-28520476D01*
X186094285Y-28568095D01*
X185903809Y-28615714D01*
X185760952Y-28615714D01*
X185570476Y-28568095D01*
X185475238Y-28520476D01*
X185380000Y-28425238D01*
X185332380Y-28282380D01*
X185332380Y-28187142D01*
X185380000Y-28044285D01*
X185427619Y-27996666D01*
X185427619Y-27615714D02*
X185380000Y-27568095D01*
X185332380Y-27472857D01*
X185332380Y-27234761D01*
X185380000Y-27139523D01*
X185427619Y-27091904D01*
X185522857Y-27044285D01*
X185618095Y-27044285D01*
X185760952Y-27091904D01*
X186332380Y-27663333D01*
X186332380Y-27044285D01*
%TO.C,R25*%
X188822380Y-28452857D02*
X188346190Y-28786190D01*
X188822380Y-29024285D02*
X187822380Y-29024285D01*
X187822380Y-28643333D01*
X187870000Y-28548095D01*
X187917619Y-28500476D01*
X188012857Y-28452857D01*
X188155714Y-28452857D01*
X188250952Y-28500476D01*
X188298571Y-28548095D01*
X188346190Y-28643333D01*
X188346190Y-29024285D01*
X187917619Y-28071904D02*
X187870000Y-28024285D01*
X187822380Y-27929047D01*
X187822380Y-27690952D01*
X187870000Y-27595714D01*
X187917619Y-27548095D01*
X188012857Y-27500476D01*
X188108095Y-27500476D01*
X188250952Y-27548095D01*
X188822380Y-28119523D01*
X188822380Y-27500476D01*
X187822380Y-26595714D02*
X187822380Y-27071904D01*
X188298571Y-27119523D01*
X188250952Y-27071904D01*
X188203333Y-26976666D01*
X188203333Y-26738571D01*
X188250952Y-26643333D01*
X188298571Y-26595714D01*
X188393809Y-26548095D01*
X188631904Y-26548095D01*
X188727142Y-26595714D01*
X188774761Y-26643333D01*
X188822380Y-26738571D01*
X188822380Y-26976666D01*
X188774761Y-27071904D01*
X188727142Y-27119523D01*
%TO.C,C1*%
X219417142Y-26896666D02*
X219464761Y-26944285D01*
X219512380Y-27087142D01*
X219512380Y-27182380D01*
X219464761Y-27325238D01*
X219369523Y-27420476D01*
X219274285Y-27468095D01*
X219083809Y-27515714D01*
X218940952Y-27515714D01*
X218750476Y-27468095D01*
X218655238Y-27420476D01*
X218560000Y-27325238D01*
X218512380Y-27182380D01*
X218512380Y-27087142D01*
X218560000Y-26944285D01*
X218607619Y-26896666D01*
X219512380Y-25944285D02*
X219512380Y-26515714D01*
X219512380Y-26230000D02*
X218512380Y-26230000D01*
X218655238Y-26325238D01*
X218750476Y-26420476D01*
X218798095Y-26515714D01*
%TO.C,U3*%
X198152380Y-27871904D02*
X198961904Y-27871904D01*
X199057142Y-27824285D01*
X199104761Y-27776666D01*
X199152380Y-27681428D01*
X199152380Y-27490952D01*
X199104761Y-27395714D01*
X199057142Y-27348095D01*
X198961904Y-27300476D01*
X198152380Y-27300476D01*
X198152380Y-26919523D02*
X198152380Y-26300476D01*
X198533333Y-26633809D01*
X198533333Y-26490952D01*
X198580952Y-26395714D01*
X198628571Y-26348095D01*
X198723809Y-26300476D01*
X198961904Y-26300476D01*
X199057142Y-26348095D01*
X199104761Y-26395714D01*
X199152380Y-26490952D01*
X199152380Y-26776666D01*
X199104761Y-26871904D01*
X199057142Y-26919523D01*
%TO.C,U95*%
X222332380Y-156258095D02*
X223141904Y-156258095D01*
X223237142Y-156210476D01*
X223284761Y-156162857D01*
X223332380Y-156067619D01*
X223332380Y-155877142D01*
X223284761Y-155781904D01*
X223237142Y-155734285D01*
X223141904Y-155686666D01*
X222332380Y-155686666D01*
X223332380Y-155162857D02*
X223332380Y-154972380D01*
X223284761Y-154877142D01*
X223237142Y-154829523D01*
X223094285Y-154734285D01*
X222903809Y-154686666D01*
X222522857Y-154686666D01*
X222427619Y-154734285D01*
X222380000Y-154781904D01*
X222332380Y-154877142D01*
X222332380Y-155067619D01*
X222380000Y-155162857D01*
X222427619Y-155210476D01*
X222522857Y-155258095D01*
X222760952Y-155258095D01*
X222856190Y-155210476D01*
X222903809Y-155162857D01*
X222951428Y-155067619D01*
X222951428Y-154877142D01*
X222903809Y-154781904D01*
X222856190Y-154734285D01*
X222760952Y-154686666D01*
X222332380Y-153781904D02*
X222332380Y-154258095D01*
X222808571Y-154305714D01*
X222760952Y-154258095D01*
X222713333Y-154162857D01*
X222713333Y-153924761D01*
X222760952Y-153829523D01*
X222808571Y-153781904D01*
X222903809Y-153734285D01*
X223141904Y-153734285D01*
X223237142Y-153781904D01*
X223284761Y-153829523D01*
X223332380Y-153924761D01*
X223332380Y-154162857D01*
X223284761Y-154258095D01*
X223237142Y-154305714D01*
%TO.C,U90*%
X234012380Y-146188095D02*
X234821904Y-146188095D01*
X234917142Y-146140476D01*
X234964761Y-146092857D01*
X235012380Y-145997619D01*
X235012380Y-145807142D01*
X234964761Y-145711904D01*
X234917142Y-145664285D01*
X234821904Y-145616666D01*
X234012380Y-145616666D01*
X235012380Y-145092857D02*
X235012380Y-144902380D01*
X234964761Y-144807142D01*
X234917142Y-144759523D01*
X234774285Y-144664285D01*
X234583809Y-144616666D01*
X234202857Y-144616666D01*
X234107619Y-144664285D01*
X234060000Y-144711904D01*
X234012380Y-144807142D01*
X234012380Y-144997619D01*
X234060000Y-145092857D01*
X234107619Y-145140476D01*
X234202857Y-145188095D01*
X234440952Y-145188095D01*
X234536190Y-145140476D01*
X234583809Y-145092857D01*
X234631428Y-144997619D01*
X234631428Y-144807142D01*
X234583809Y-144711904D01*
X234536190Y-144664285D01*
X234440952Y-144616666D01*
X234012380Y-143997619D02*
X234012380Y-143902380D01*
X234060000Y-143807142D01*
X234107619Y-143759523D01*
X234202857Y-143711904D01*
X234393333Y-143664285D01*
X234631428Y-143664285D01*
X234821904Y-143711904D01*
X234917142Y-143759523D01*
X234964761Y-143807142D01*
X235012380Y-143902380D01*
X235012380Y-143997619D01*
X234964761Y-144092857D01*
X234917142Y-144140476D01*
X234821904Y-144188095D01*
X234631428Y-144235714D01*
X234393333Y-144235714D01*
X234202857Y-144188095D01*
X234107619Y-144140476D01*
X234060000Y-144092857D01*
X234012380Y-143997619D01*
%TO.C,U83*%
X223852380Y-132998095D02*
X224661904Y-132998095D01*
X224757142Y-132950476D01*
X224804761Y-132902857D01*
X224852380Y-132807619D01*
X224852380Y-132617142D01*
X224804761Y-132521904D01*
X224757142Y-132474285D01*
X224661904Y-132426666D01*
X223852380Y-132426666D01*
X224280952Y-131807619D02*
X224233333Y-131902857D01*
X224185714Y-131950476D01*
X224090476Y-131998095D01*
X224042857Y-131998095D01*
X223947619Y-131950476D01*
X223900000Y-131902857D01*
X223852380Y-131807619D01*
X223852380Y-131617142D01*
X223900000Y-131521904D01*
X223947619Y-131474285D01*
X224042857Y-131426666D01*
X224090476Y-131426666D01*
X224185714Y-131474285D01*
X224233333Y-131521904D01*
X224280952Y-131617142D01*
X224280952Y-131807619D01*
X224328571Y-131902857D01*
X224376190Y-131950476D01*
X224471428Y-131998095D01*
X224661904Y-131998095D01*
X224757142Y-131950476D01*
X224804761Y-131902857D01*
X224852380Y-131807619D01*
X224852380Y-131617142D01*
X224804761Y-131521904D01*
X224757142Y-131474285D01*
X224661904Y-131426666D01*
X224471428Y-131426666D01*
X224376190Y-131474285D01*
X224328571Y-131521904D01*
X224280952Y-131617142D01*
X223852380Y-131093333D02*
X223852380Y-130474285D01*
X224233333Y-130807619D01*
X224233333Y-130664761D01*
X224280952Y-130569523D01*
X224328571Y-130521904D01*
X224423809Y-130474285D01*
X224661904Y-130474285D01*
X224757142Y-130521904D01*
X224804761Y-130569523D01*
X224852380Y-130664761D01*
X224852380Y-130950476D01*
X224804761Y-131045714D01*
X224757142Y-131093333D01*
%TO.C,U64*%
X236532380Y-111908095D02*
X237341904Y-111908095D01*
X237437142Y-111860476D01*
X237484761Y-111812857D01*
X237532380Y-111717619D01*
X237532380Y-111527142D01*
X237484761Y-111431904D01*
X237437142Y-111384285D01*
X237341904Y-111336666D01*
X236532380Y-111336666D01*
X236532380Y-110431904D02*
X236532380Y-110622380D01*
X236580000Y-110717619D01*
X236627619Y-110765238D01*
X236770476Y-110860476D01*
X236960952Y-110908095D01*
X237341904Y-110908095D01*
X237437142Y-110860476D01*
X237484761Y-110812857D01*
X237532380Y-110717619D01*
X237532380Y-110527142D01*
X237484761Y-110431904D01*
X237437142Y-110384285D01*
X237341904Y-110336666D01*
X237103809Y-110336666D01*
X237008571Y-110384285D01*
X236960952Y-110431904D01*
X236913333Y-110527142D01*
X236913333Y-110717619D01*
X236960952Y-110812857D01*
X237008571Y-110860476D01*
X237103809Y-110908095D01*
X236865714Y-109479523D02*
X237532380Y-109479523D01*
X236484761Y-109717619D02*
X237199047Y-109955714D01*
X237199047Y-109336666D01*
%TO.C,U54*%
X231362380Y-99618095D02*
X232171904Y-99618095D01*
X232267142Y-99570476D01*
X232314761Y-99522857D01*
X232362380Y-99427619D01*
X232362380Y-99237142D01*
X232314761Y-99141904D01*
X232267142Y-99094285D01*
X232171904Y-99046666D01*
X231362380Y-99046666D01*
X231362380Y-98094285D02*
X231362380Y-98570476D01*
X231838571Y-98618095D01*
X231790952Y-98570476D01*
X231743333Y-98475238D01*
X231743333Y-98237142D01*
X231790952Y-98141904D01*
X231838571Y-98094285D01*
X231933809Y-98046666D01*
X232171904Y-98046666D01*
X232267142Y-98094285D01*
X232314761Y-98141904D01*
X232362380Y-98237142D01*
X232362380Y-98475238D01*
X232314761Y-98570476D01*
X232267142Y-98618095D01*
X231695714Y-97189523D02*
X232362380Y-97189523D01*
X231314761Y-97427619D02*
X232029047Y-97665714D01*
X232029047Y-97046666D01*
%TO.C,U46*%
X231362380Y-88928095D02*
X232171904Y-88928095D01*
X232267142Y-88880476D01*
X232314761Y-88832857D01*
X232362380Y-88737619D01*
X232362380Y-88547142D01*
X232314761Y-88451904D01*
X232267142Y-88404285D01*
X232171904Y-88356666D01*
X231362380Y-88356666D01*
X231695714Y-87451904D02*
X232362380Y-87451904D01*
X231314761Y-87690000D02*
X232029047Y-87928095D01*
X232029047Y-87309047D01*
X231362380Y-86499523D02*
X231362380Y-86690000D01*
X231410000Y-86785238D01*
X231457619Y-86832857D01*
X231600476Y-86928095D01*
X231790952Y-86975714D01*
X232171904Y-86975714D01*
X232267142Y-86928095D01*
X232314761Y-86880476D01*
X232362380Y-86785238D01*
X232362380Y-86594761D01*
X232314761Y-86499523D01*
X232267142Y-86451904D01*
X232171904Y-86404285D01*
X231933809Y-86404285D01*
X231838571Y-86451904D01*
X231790952Y-86499523D01*
X231743333Y-86594761D01*
X231743333Y-86785238D01*
X231790952Y-86880476D01*
X231838571Y-86928095D01*
X231933809Y-86975714D01*
%TO.C,U39*%
X226242380Y-79118095D02*
X227051904Y-79118095D01*
X227147142Y-79070476D01*
X227194761Y-79022857D01*
X227242380Y-78927619D01*
X227242380Y-78737142D01*
X227194761Y-78641904D01*
X227147142Y-78594285D01*
X227051904Y-78546666D01*
X226242380Y-78546666D01*
X226242380Y-78165714D02*
X226242380Y-77546666D01*
X226623333Y-77880000D01*
X226623333Y-77737142D01*
X226670952Y-77641904D01*
X226718571Y-77594285D01*
X226813809Y-77546666D01*
X227051904Y-77546666D01*
X227147142Y-77594285D01*
X227194761Y-77641904D01*
X227242380Y-77737142D01*
X227242380Y-78022857D01*
X227194761Y-78118095D01*
X227147142Y-78165714D01*
X227242380Y-77070476D02*
X227242380Y-76880000D01*
X227194761Y-76784761D01*
X227147142Y-76737142D01*
X227004285Y-76641904D01*
X226813809Y-76594285D01*
X226432857Y-76594285D01*
X226337619Y-76641904D01*
X226290000Y-76689523D01*
X226242380Y-76784761D01*
X226242380Y-76975238D01*
X226290000Y-77070476D01*
X226337619Y-77118095D01*
X226432857Y-77165714D01*
X226670952Y-77165714D01*
X226766190Y-77118095D01*
X226813809Y-77070476D01*
X226861428Y-76975238D01*
X226861428Y-76784761D01*
X226813809Y-76689523D01*
X226766190Y-76641904D01*
X226670952Y-76594285D01*
%TO.C,U37*%
X226572380Y-68728095D02*
X227381904Y-68728095D01*
X227477142Y-68680476D01*
X227524761Y-68632857D01*
X227572380Y-68537619D01*
X227572380Y-68347142D01*
X227524761Y-68251904D01*
X227477142Y-68204285D01*
X227381904Y-68156666D01*
X226572380Y-68156666D01*
X226572380Y-67775714D02*
X226572380Y-67156666D01*
X226953333Y-67490000D01*
X226953333Y-67347142D01*
X227000952Y-67251904D01*
X227048571Y-67204285D01*
X227143809Y-67156666D01*
X227381904Y-67156666D01*
X227477142Y-67204285D01*
X227524761Y-67251904D01*
X227572380Y-67347142D01*
X227572380Y-67632857D01*
X227524761Y-67728095D01*
X227477142Y-67775714D01*
X226572380Y-66823333D02*
X226572380Y-66156666D01*
X227572380Y-66585238D01*
%TO.C,U29*%
X228862380Y-58568095D02*
X229671904Y-58568095D01*
X229767142Y-58520476D01*
X229814761Y-58472857D01*
X229862380Y-58377619D01*
X229862380Y-58187142D01*
X229814761Y-58091904D01*
X229767142Y-58044285D01*
X229671904Y-57996666D01*
X228862380Y-57996666D01*
X228957619Y-57568095D02*
X228910000Y-57520476D01*
X228862380Y-57425238D01*
X228862380Y-57187142D01*
X228910000Y-57091904D01*
X228957619Y-57044285D01*
X229052857Y-56996666D01*
X229148095Y-56996666D01*
X229290952Y-57044285D01*
X229862380Y-57615714D01*
X229862380Y-56996666D01*
X229862380Y-56520476D02*
X229862380Y-56330000D01*
X229814761Y-56234761D01*
X229767142Y-56187142D01*
X229624285Y-56091904D01*
X229433809Y-56044285D01*
X229052857Y-56044285D01*
X228957619Y-56091904D01*
X228910000Y-56139523D01*
X228862380Y-56234761D01*
X228862380Y-56425238D01*
X228910000Y-56520476D01*
X228957619Y-56568095D01*
X229052857Y-56615714D01*
X229290952Y-56615714D01*
X229386190Y-56568095D01*
X229433809Y-56520476D01*
X229481428Y-56425238D01*
X229481428Y-56234761D01*
X229433809Y-56139523D01*
X229386190Y-56091904D01*
X229290952Y-56044285D01*
%TO.C,U20*%
X226182380Y-48588095D02*
X226991904Y-48588095D01*
X227087142Y-48540476D01*
X227134761Y-48492857D01*
X227182380Y-48397619D01*
X227182380Y-48207142D01*
X227134761Y-48111904D01*
X227087142Y-48064285D01*
X226991904Y-48016666D01*
X226182380Y-48016666D01*
X226277619Y-47588095D02*
X226230000Y-47540476D01*
X226182380Y-47445238D01*
X226182380Y-47207142D01*
X226230000Y-47111904D01*
X226277619Y-47064285D01*
X226372857Y-47016666D01*
X226468095Y-47016666D01*
X226610952Y-47064285D01*
X227182380Y-47635714D01*
X227182380Y-47016666D01*
X226182380Y-46397619D02*
X226182380Y-46302380D01*
X226230000Y-46207142D01*
X226277619Y-46159523D01*
X226372857Y-46111904D01*
X226563333Y-46064285D01*
X226801428Y-46064285D01*
X226991904Y-46111904D01*
X227087142Y-46159523D01*
X227134761Y-46207142D01*
X227182380Y-46302380D01*
X227182380Y-46397619D01*
X227134761Y-46492857D01*
X227087142Y-46540476D01*
X226991904Y-46588095D01*
X226801428Y-46635714D01*
X226563333Y-46635714D01*
X226372857Y-46588095D01*
X226277619Y-46540476D01*
X226230000Y-46492857D01*
X226182380Y-46397619D01*
%TO.C,U11*%
X226122380Y-38458095D02*
X226931904Y-38458095D01*
X227027142Y-38410476D01*
X227074761Y-38362857D01*
X227122380Y-38267619D01*
X227122380Y-38077142D01*
X227074761Y-37981904D01*
X227027142Y-37934285D01*
X226931904Y-37886666D01*
X226122380Y-37886666D01*
X227122380Y-36886666D02*
X227122380Y-37458095D01*
X227122380Y-37172380D02*
X226122380Y-37172380D01*
X226265238Y-37267619D01*
X226360476Y-37362857D01*
X226408095Y-37458095D01*
X227122380Y-35934285D02*
X227122380Y-36505714D01*
X227122380Y-36220000D02*
X226122380Y-36220000D01*
X226265238Y-36315238D01*
X226360476Y-36410476D01*
X226408095Y-36505714D01*
%TO.C,U2*%
X226192380Y-27221904D02*
X227001904Y-27221904D01*
X227097142Y-27174285D01*
X227144761Y-27126666D01*
X227192380Y-27031428D01*
X227192380Y-26840952D01*
X227144761Y-26745714D01*
X227097142Y-26698095D01*
X227001904Y-26650476D01*
X226192380Y-26650476D01*
X226287619Y-26221904D02*
X226240000Y-26174285D01*
X226192380Y-26079047D01*
X226192380Y-25840952D01*
X226240000Y-25745714D01*
X226287619Y-25698095D01*
X226382857Y-25650476D01*
X226478095Y-25650476D01*
X226620952Y-25698095D01*
X227192380Y-26269523D01*
X227192380Y-25650476D01*
%TO.C,U94*%
X259612380Y-155958095D02*
X260421904Y-155958095D01*
X260517142Y-155910476D01*
X260564761Y-155862857D01*
X260612380Y-155767619D01*
X260612380Y-155577142D01*
X260564761Y-155481904D01*
X260517142Y-155434285D01*
X260421904Y-155386666D01*
X259612380Y-155386666D01*
X260612380Y-154862857D02*
X260612380Y-154672380D01*
X260564761Y-154577142D01*
X260517142Y-154529523D01*
X260374285Y-154434285D01*
X260183809Y-154386666D01*
X259802857Y-154386666D01*
X259707619Y-154434285D01*
X259660000Y-154481904D01*
X259612380Y-154577142D01*
X259612380Y-154767619D01*
X259660000Y-154862857D01*
X259707619Y-154910476D01*
X259802857Y-154958095D01*
X260040952Y-154958095D01*
X260136190Y-154910476D01*
X260183809Y-154862857D01*
X260231428Y-154767619D01*
X260231428Y-154577142D01*
X260183809Y-154481904D01*
X260136190Y-154434285D01*
X260040952Y-154386666D01*
X259945714Y-153529523D02*
X260612380Y-153529523D01*
X259564761Y-153767619D02*
X260279047Y-154005714D01*
X260279047Y-153386666D01*
%TO.C,C48*%
X242637142Y-132412857D02*
X242684761Y-132460476D01*
X242732380Y-132603333D01*
X242732380Y-132698571D01*
X242684761Y-132841428D01*
X242589523Y-132936666D01*
X242494285Y-132984285D01*
X242303809Y-133031904D01*
X242160952Y-133031904D01*
X241970476Y-132984285D01*
X241875238Y-132936666D01*
X241780000Y-132841428D01*
X241732380Y-132698571D01*
X241732380Y-132603333D01*
X241780000Y-132460476D01*
X241827619Y-132412857D01*
X242065714Y-131555714D02*
X242732380Y-131555714D01*
X241684761Y-131793809D02*
X242399047Y-132031904D01*
X242399047Y-131412857D01*
X242160952Y-130889047D02*
X242113333Y-130984285D01*
X242065714Y-131031904D01*
X241970476Y-131079523D01*
X241922857Y-131079523D01*
X241827619Y-131031904D01*
X241780000Y-130984285D01*
X241732380Y-130889047D01*
X241732380Y-130698571D01*
X241780000Y-130603333D01*
X241827619Y-130555714D01*
X241922857Y-130508095D01*
X241970476Y-130508095D01*
X242065714Y-130555714D01*
X242113333Y-130603333D01*
X242160952Y-130698571D01*
X242160952Y-130889047D01*
X242208571Y-130984285D01*
X242256190Y-131031904D01*
X242351428Y-131079523D01*
X242541904Y-131079523D01*
X242637142Y-131031904D01*
X242684761Y-130984285D01*
X242732380Y-130889047D01*
X242732380Y-130698571D01*
X242684761Y-130603333D01*
X242637142Y-130555714D01*
X242541904Y-130508095D01*
X242351428Y-130508095D01*
X242256190Y-130555714D01*
X242208571Y-130603333D01*
X242160952Y-130698571D01*
%TO.C,C47*%
X247637142Y-132402857D02*
X247684761Y-132450476D01*
X247732380Y-132593333D01*
X247732380Y-132688571D01*
X247684761Y-132831428D01*
X247589523Y-132926666D01*
X247494285Y-132974285D01*
X247303809Y-133021904D01*
X247160952Y-133021904D01*
X246970476Y-132974285D01*
X246875238Y-132926666D01*
X246780000Y-132831428D01*
X246732380Y-132688571D01*
X246732380Y-132593333D01*
X246780000Y-132450476D01*
X246827619Y-132402857D01*
X247065714Y-131545714D02*
X247732380Y-131545714D01*
X246684761Y-131783809D02*
X247399047Y-132021904D01*
X247399047Y-131402857D01*
X246732380Y-131117142D02*
X246732380Y-130450476D01*
X247732380Y-130879047D01*
%TO.C,RN5*%
X270229523Y-138782380D02*
X269896190Y-138306190D01*
X269658095Y-138782380D02*
X269658095Y-137782380D01*
X270039047Y-137782380D01*
X270134285Y-137830000D01*
X270181904Y-137877619D01*
X270229523Y-137972857D01*
X270229523Y-138115714D01*
X270181904Y-138210952D01*
X270134285Y-138258571D01*
X270039047Y-138306190D01*
X269658095Y-138306190D01*
X270658095Y-138782380D02*
X270658095Y-137782380D01*
X271229523Y-138782380D01*
X271229523Y-137782380D01*
X272181904Y-137782380D02*
X271705714Y-137782380D01*
X271658095Y-138258571D01*
X271705714Y-138210952D01*
X271800952Y-138163333D01*
X272039047Y-138163333D01*
X272134285Y-138210952D01*
X272181904Y-138258571D01*
X272229523Y-138353809D01*
X272229523Y-138591904D01*
X272181904Y-138687142D01*
X272134285Y-138734761D01*
X272039047Y-138782380D01*
X271800952Y-138782380D01*
X271705714Y-138734761D01*
X271658095Y-138687142D01*
%TO.C,RN6*%
X270179523Y-130802380D02*
X269846190Y-130326190D01*
X269608095Y-130802380D02*
X269608095Y-129802380D01*
X269989047Y-129802380D01*
X270084285Y-129850000D01*
X270131904Y-129897619D01*
X270179523Y-129992857D01*
X270179523Y-130135714D01*
X270131904Y-130230952D01*
X270084285Y-130278571D01*
X269989047Y-130326190D01*
X269608095Y-130326190D01*
X270608095Y-130802380D02*
X270608095Y-129802380D01*
X271179523Y-130802380D01*
X271179523Y-129802380D01*
X272084285Y-129802380D02*
X271893809Y-129802380D01*
X271798571Y-129850000D01*
X271750952Y-129897619D01*
X271655714Y-130040476D01*
X271608095Y-130230952D01*
X271608095Y-130611904D01*
X271655714Y-130707142D01*
X271703333Y-130754761D01*
X271798571Y-130802380D01*
X271989047Y-130802380D01*
X272084285Y-130754761D01*
X272131904Y-130707142D01*
X272179523Y-130611904D01*
X272179523Y-130373809D01*
X272131904Y-130278571D01*
X272084285Y-130230952D01*
X271989047Y-130183333D01*
X271798571Y-130183333D01*
X271703333Y-130230952D01*
X271655714Y-130278571D01*
X271608095Y-130373809D01*
%TO.C,U74*%
X226202380Y-122628095D02*
X227011904Y-122628095D01*
X227107142Y-122580476D01*
X227154761Y-122532857D01*
X227202380Y-122437619D01*
X227202380Y-122247142D01*
X227154761Y-122151904D01*
X227107142Y-122104285D01*
X227011904Y-122056666D01*
X226202380Y-122056666D01*
X226202380Y-121675714D02*
X226202380Y-121009047D01*
X227202380Y-121437619D01*
X226535714Y-120199523D02*
X227202380Y-120199523D01*
X226154761Y-120437619D02*
X226869047Y-120675714D01*
X226869047Y-120056666D01*
%TO.C,U73*%
X254832380Y-122458095D02*
X255641904Y-122458095D01*
X255737142Y-122410476D01*
X255784761Y-122362857D01*
X255832380Y-122267619D01*
X255832380Y-122077142D01*
X255784761Y-121981904D01*
X255737142Y-121934285D01*
X255641904Y-121886666D01*
X254832380Y-121886666D01*
X254832380Y-121505714D02*
X254832380Y-120839047D01*
X255832380Y-121267619D01*
X254832380Y-120553333D02*
X254832380Y-119934285D01*
X255213333Y-120267619D01*
X255213333Y-120124761D01*
X255260952Y-120029523D01*
X255308571Y-119981904D01*
X255403809Y-119934285D01*
X255641904Y-119934285D01*
X255737142Y-119981904D01*
X255784761Y-120029523D01*
X255832380Y-120124761D01*
X255832380Y-120410476D01*
X255784761Y-120505714D01*
X255737142Y-120553333D01*
%TO.C,U63*%
X264692380Y-112738095D02*
X265501904Y-112738095D01*
X265597142Y-112690476D01*
X265644761Y-112642857D01*
X265692380Y-112547619D01*
X265692380Y-112357142D01*
X265644761Y-112261904D01*
X265597142Y-112214285D01*
X265501904Y-112166666D01*
X264692380Y-112166666D01*
X264692380Y-111261904D02*
X264692380Y-111452380D01*
X264740000Y-111547619D01*
X264787619Y-111595238D01*
X264930476Y-111690476D01*
X265120952Y-111738095D01*
X265501904Y-111738095D01*
X265597142Y-111690476D01*
X265644761Y-111642857D01*
X265692380Y-111547619D01*
X265692380Y-111357142D01*
X265644761Y-111261904D01*
X265597142Y-111214285D01*
X265501904Y-111166666D01*
X265263809Y-111166666D01*
X265168571Y-111214285D01*
X265120952Y-111261904D01*
X265073333Y-111357142D01*
X265073333Y-111547619D01*
X265120952Y-111642857D01*
X265168571Y-111690476D01*
X265263809Y-111738095D01*
X264692380Y-110833333D02*
X264692380Y-110214285D01*
X265073333Y-110547619D01*
X265073333Y-110404761D01*
X265120952Y-110309523D01*
X265168571Y-110261904D01*
X265263809Y-110214285D01*
X265501904Y-110214285D01*
X265597142Y-110261904D01*
X265644761Y-110309523D01*
X265692380Y-110404761D01*
X265692380Y-110690476D01*
X265644761Y-110785714D01*
X265597142Y-110833333D01*
%TO.C,C38*%
X245197142Y-112002857D02*
X245244761Y-112050476D01*
X245292380Y-112193333D01*
X245292380Y-112288571D01*
X245244761Y-112431428D01*
X245149523Y-112526666D01*
X245054285Y-112574285D01*
X244863809Y-112621904D01*
X244720952Y-112621904D01*
X244530476Y-112574285D01*
X244435238Y-112526666D01*
X244340000Y-112431428D01*
X244292380Y-112288571D01*
X244292380Y-112193333D01*
X244340000Y-112050476D01*
X244387619Y-112002857D01*
X244292380Y-111669523D02*
X244292380Y-111050476D01*
X244673333Y-111383809D01*
X244673333Y-111240952D01*
X244720952Y-111145714D01*
X244768571Y-111098095D01*
X244863809Y-111050476D01*
X245101904Y-111050476D01*
X245197142Y-111098095D01*
X245244761Y-111145714D01*
X245292380Y-111240952D01*
X245292380Y-111526666D01*
X245244761Y-111621904D01*
X245197142Y-111669523D01*
X244720952Y-110479047D02*
X244673333Y-110574285D01*
X244625714Y-110621904D01*
X244530476Y-110669523D01*
X244482857Y-110669523D01*
X244387619Y-110621904D01*
X244340000Y-110574285D01*
X244292380Y-110479047D01*
X244292380Y-110288571D01*
X244340000Y-110193333D01*
X244387619Y-110145714D01*
X244482857Y-110098095D01*
X244530476Y-110098095D01*
X244625714Y-110145714D01*
X244673333Y-110193333D01*
X244720952Y-110288571D01*
X244720952Y-110479047D01*
X244768571Y-110574285D01*
X244816190Y-110621904D01*
X244911428Y-110669523D01*
X245101904Y-110669523D01*
X245197142Y-110621904D01*
X245244761Y-110574285D01*
X245292380Y-110479047D01*
X245292380Y-110288571D01*
X245244761Y-110193333D01*
X245197142Y-110145714D01*
X245101904Y-110098095D01*
X244911428Y-110098095D01*
X244816190Y-110145714D01*
X244768571Y-110193333D01*
X244720952Y-110288571D01*
%TO.C,U53*%
X257122380Y-99948095D02*
X257931904Y-99948095D01*
X258027142Y-99900476D01*
X258074761Y-99852857D01*
X258122380Y-99757619D01*
X258122380Y-99567142D01*
X258074761Y-99471904D01*
X258027142Y-99424285D01*
X257931904Y-99376666D01*
X257122380Y-99376666D01*
X257122380Y-98424285D02*
X257122380Y-98900476D01*
X257598571Y-98948095D01*
X257550952Y-98900476D01*
X257503333Y-98805238D01*
X257503333Y-98567142D01*
X257550952Y-98471904D01*
X257598571Y-98424285D01*
X257693809Y-98376666D01*
X257931904Y-98376666D01*
X258027142Y-98424285D01*
X258074761Y-98471904D01*
X258122380Y-98567142D01*
X258122380Y-98805238D01*
X258074761Y-98900476D01*
X258027142Y-98948095D01*
X257122380Y-98043333D02*
X257122380Y-97424285D01*
X257503333Y-97757619D01*
X257503333Y-97614761D01*
X257550952Y-97519523D01*
X257598571Y-97471904D01*
X257693809Y-97424285D01*
X257931904Y-97424285D01*
X258027142Y-97471904D01*
X258074761Y-97519523D01*
X258122380Y-97614761D01*
X258122380Y-97900476D01*
X258074761Y-97995714D01*
X258027142Y-98043333D01*
%TO.C,C36*%
X247467142Y-99122857D02*
X247514761Y-99170476D01*
X247562380Y-99313333D01*
X247562380Y-99408571D01*
X247514761Y-99551428D01*
X247419523Y-99646666D01*
X247324285Y-99694285D01*
X247133809Y-99741904D01*
X246990952Y-99741904D01*
X246800476Y-99694285D01*
X246705238Y-99646666D01*
X246610000Y-99551428D01*
X246562380Y-99408571D01*
X246562380Y-99313333D01*
X246610000Y-99170476D01*
X246657619Y-99122857D01*
X246562380Y-98789523D02*
X246562380Y-98170476D01*
X246943333Y-98503809D01*
X246943333Y-98360952D01*
X246990952Y-98265714D01*
X247038571Y-98218095D01*
X247133809Y-98170476D01*
X247371904Y-98170476D01*
X247467142Y-98218095D01*
X247514761Y-98265714D01*
X247562380Y-98360952D01*
X247562380Y-98646666D01*
X247514761Y-98741904D01*
X247467142Y-98789523D01*
X246562380Y-97313333D02*
X246562380Y-97503809D01*
X246610000Y-97599047D01*
X246657619Y-97646666D01*
X246800476Y-97741904D01*
X246990952Y-97789523D01*
X247371904Y-97789523D01*
X247467142Y-97741904D01*
X247514761Y-97694285D01*
X247562380Y-97599047D01*
X247562380Y-97408571D01*
X247514761Y-97313333D01*
X247467142Y-97265714D01*
X247371904Y-97218095D01*
X247133809Y-97218095D01*
X247038571Y-97265714D01*
X246990952Y-97313333D01*
X246943333Y-97408571D01*
X246943333Y-97599047D01*
X246990952Y-97694285D01*
X247038571Y-97741904D01*
X247133809Y-97789523D01*
%TO.C,U45*%
X258282380Y-88818095D02*
X259091904Y-88818095D01*
X259187142Y-88770476D01*
X259234761Y-88722857D01*
X259282380Y-88627619D01*
X259282380Y-88437142D01*
X259234761Y-88341904D01*
X259187142Y-88294285D01*
X259091904Y-88246666D01*
X258282380Y-88246666D01*
X258615714Y-87341904D02*
X259282380Y-87341904D01*
X258234761Y-87580000D02*
X258949047Y-87818095D01*
X258949047Y-87199047D01*
X258282380Y-86341904D02*
X258282380Y-86818095D01*
X258758571Y-86865714D01*
X258710952Y-86818095D01*
X258663333Y-86722857D01*
X258663333Y-86484761D01*
X258710952Y-86389523D01*
X258758571Y-86341904D01*
X258853809Y-86294285D01*
X259091904Y-86294285D01*
X259187142Y-86341904D01*
X259234761Y-86389523D01*
X259282380Y-86484761D01*
X259282380Y-86722857D01*
X259234761Y-86818095D01*
X259187142Y-86865714D01*
%TO.C,C32*%
X247527142Y-87702857D02*
X247574761Y-87750476D01*
X247622380Y-87893333D01*
X247622380Y-87988571D01*
X247574761Y-88131428D01*
X247479523Y-88226666D01*
X247384285Y-88274285D01*
X247193809Y-88321904D01*
X247050952Y-88321904D01*
X246860476Y-88274285D01*
X246765238Y-88226666D01*
X246670000Y-88131428D01*
X246622380Y-87988571D01*
X246622380Y-87893333D01*
X246670000Y-87750476D01*
X246717619Y-87702857D01*
X246622380Y-87369523D02*
X246622380Y-86750476D01*
X247003333Y-87083809D01*
X247003333Y-86940952D01*
X247050952Y-86845714D01*
X247098571Y-86798095D01*
X247193809Y-86750476D01*
X247431904Y-86750476D01*
X247527142Y-86798095D01*
X247574761Y-86845714D01*
X247622380Y-86940952D01*
X247622380Y-87226666D01*
X247574761Y-87321904D01*
X247527142Y-87369523D01*
X246717619Y-86369523D02*
X246670000Y-86321904D01*
X246622380Y-86226666D01*
X246622380Y-85988571D01*
X246670000Y-85893333D01*
X246717619Y-85845714D01*
X246812857Y-85798095D01*
X246908095Y-85798095D01*
X247050952Y-85845714D01*
X247622380Y-86417142D01*
X247622380Y-85798095D01*
%TO.C,U38*%
X259622380Y-79318095D02*
X260431904Y-79318095D01*
X260527142Y-79270476D01*
X260574761Y-79222857D01*
X260622380Y-79127619D01*
X260622380Y-78937142D01*
X260574761Y-78841904D01*
X260527142Y-78794285D01*
X260431904Y-78746666D01*
X259622380Y-78746666D01*
X259622380Y-78365714D02*
X259622380Y-77746666D01*
X260003333Y-78080000D01*
X260003333Y-77937142D01*
X260050952Y-77841904D01*
X260098571Y-77794285D01*
X260193809Y-77746666D01*
X260431904Y-77746666D01*
X260527142Y-77794285D01*
X260574761Y-77841904D01*
X260622380Y-77937142D01*
X260622380Y-78222857D01*
X260574761Y-78318095D01*
X260527142Y-78365714D01*
X260050952Y-77175238D02*
X260003333Y-77270476D01*
X259955714Y-77318095D01*
X259860476Y-77365714D01*
X259812857Y-77365714D01*
X259717619Y-77318095D01*
X259670000Y-77270476D01*
X259622380Y-77175238D01*
X259622380Y-76984761D01*
X259670000Y-76889523D01*
X259717619Y-76841904D01*
X259812857Y-76794285D01*
X259860476Y-76794285D01*
X259955714Y-76841904D01*
X260003333Y-76889523D01*
X260050952Y-76984761D01*
X260050952Y-77175238D01*
X260098571Y-77270476D01*
X260146190Y-77318095D01*
X260241428Y-77365714D01*
X260431904Y-77365714D01*
X260527142Y-77318095D01*
X260574761Y-77270476D01*
X260622380Y-77175238D01*
X260622380Y-76984761D01*
X260574761Y-76889523D01*
X260527142Y-76841904D01*
X260431904Y-76794285D01*
X260241428Y-76794285D01*
X260146190Y-76841904D01*
X260098571Y-76889523D01*
X260050952Y-76984761D01*
%TO.C,C31*%
X247707142Y-77392857D02*
X247754761Y-77440476D01*
X247802380Y-77583333D01*
X247802380Y-77678571D01*
X247754761Y-77821428D01*
X247659523Y-77916666D01*
X247564285Y-77964285D01*
X247373809Y-78011904D01*
X247230952Y-78011904D01*
X247040476Y-77964285D01*
X246945238Y-77916666D01*
X246850000Y-77821428D01*
X246802380Y-77678571D01*
X246802380Y-77583333D01*
X246850000Y-77440476D01*
X246897619Y-77392857D01*
X246802380Y-77059523D02*
X246802380Y-76440476D01*
X247183333Y-76773809D01*
X247183333Y-76630952D01*
X247230952Y-76535714D01*
X247278571Y-76488095D01*
X247373809Y-76440476D01*
X247611904Y-76440476D01*
X247707142Y-76488095D01*
X247754761Y-76535714D01*
X247802380Y-76630952D01*
X247802380Y-76916666D01*
X247754761Y-77011904D01*
X247707142Y-77059523D01*
X247802380Y-75488095D02*
X247802380Y-76059523D01*
X247802380Y-75773809D02*
X246802380Y-75773809D01*
X246945238Y-75869047D01*
X247040476Y-75964285D01*
X247088095Y-76059523D01*
%TO.C,U36*%
X262142380Y-69948095D02*
X262951904Y-69948095D01*
X263047142Y-69900476D01*
X263094761Y-69852857D01*
X263142380Y-69757619D01*
X263142380Y-69567142D01*
X263094761Y-69471904D01*
X263047142Y-69424285D01*
X262951904Y-69376666D01*
X262142380Y-69376666D01*
X262142380Y-68995714D02*
X262142380Y-68376666D01*
X262523333Y-68710000D01*
X262523333Y-68567142D01*
X262570952Y-68471904D01*
X262618571Y-68424285D01*
X262713809Y-68376666D01*
X262951904Y-68376666D01*
X263047142Y-68424285D01*
X263094761Y-68471904D01*
X263142380Y-68567142D01*
X263142380Y-68852857D01*
X263094761Y-68948095D01*
X263047142Y-68995714D01*
X262142380Y-67519523D02*
X262142380Y-67710000D01*
X262190000Y-67805238D01*
X262237619Y-67852857D01*
X262380476Y-67948095D01*
X262570952Y-67995714D01*
X262951904Y-67995714D01*
X263047142Y-67948095D01*
X263094761Y-67900476D01*
X263142380Y-67805238D01*
X263142380Y-67614761D01*
X263094761Y-67519523D01*
X263047142Y-67471904D01*
X262951904Y-67424285D01*
X262713809Y-67424285D01*
X262618571Y-67471904D01*
X262570952Y-67519523D01*
X262523333Y-67614761D01*
X262523333Y-67805238D01*
X262570952Y-67900476D01*
X262618571Y-67948095D01*
X262713809Y-67995714D01*
%TO.C,C21*%
X247567142Y-68492857D02*
X247614761Y-68540476D01*
X247662380Y-68683333D01*
X247662380Y-68778571D01*
X247614761Y-68921428D01*
X247519523Y-69016666D01*
X247424285Y-69064285D01*
X247233809Y-69111904D01*
X247090952Y-69111904D01*
X246900476Y-69064285D01*
X246805238Y-69016666D01*
X246710000Y-68921428D01*
X246662380Y-68778571D01*
X246662380Y-68683333D01*
X246710000Y-68540476D01*
X246757619Y-68492857D01*
X246757619Y-68111904D02*
X246710000Y-68064285D01*
X246662380Y-67969047D01*
X246662380Y-67730952D01*
X246710000Y-67635714D01*
X246757619Y-67588095D01*
X246852857Y-67540476D01*
X246948095Y-67540476D01*
X247090952Y-67588095D01*
X247662380Y-68159523D01*
X247662380Y-67540476D01*
X247662380Y-66588095D02*
X247662380Y-67159523D01*
X247662380Y-66873809D02*
X246662380Y-66873809D01*
X246805238Y-66969047D01*
X246900476Y-67064285D01*
X246948095Y-67159523D01*
%TO.C,C13*%
X247617142Y-58282857D02*
X247664761Y-58330476D01*
X247712380Y-58473333D01*
X247712380Y-58568571D01*
X247664761Y-58711428D01*
X247569523Y-58806666D01*
X247474285Y-58854285D01*
X247283809Y-58901904D01*
X247140952Y-58901904D01*
X246950476Y-58854285D01*
X246855238Y-58806666D01*
X246760000Y-58711428D01*
X246712380Y-58568571D01*
X246712380Y-58473333D01*
X246760000Y-58330476D01*
X246807619Y-58282857D01*
X247712380Y-57330476D02*
X247712380Y-57901904D01*
X247712380Y-57616190D02*
X246712380Y-57616190D01*
X246855238Y-57711428D01*
X246950476Y-57806666D01*
X246998095Y-57901904D01*
X246712380Y-56997142D02*
X246712380Y-56378095D01*
X247093333Y-56711428D01*
X247093333Y-56568571D01*
X247140952Y-56473333D01*
X247188571Y-56425714D01*
X247283809Y-56378095D01*
X247521904Y-56378095D01*
X247617142Y-56425714D01*
X247664761Y-56473333D01*
X247712380Y-56568571D01*
X247712380Y-56854285D01*
X247664761Y-56949523D01*
X247617142Y-56997142D01*
%TO.C,C9*%
X247447142Y-45776666D02*
X247494761Y-45824285D01*
X247542380Y-45967142D01*
X247542380Y-46062380D01*
X247494761Y-46205238D01*
X247399523Y-46300476D01*
X247304285Y-46348095D01*
X247113809Y-46395714D01*
X246970952Y-46395714D01*
X246780476Y-46348095D01*
X246685238Y-46300476D01*
X246590000Y-46205238D01*
X246542380Y-46062380D01*
X246542380Y-45967142D01*
X246590000Y-45824285D01*
X246637619Y-45776666D01*
X247542380Y-45300476D02*
X247542380Y-45110000D01*
X247494761Y-45014761D01*
X247447142Y-44967142D01*
X247304285Y-44871904D01*
X247113809Y-44824285D01*
X246732857Y-44824285D01*
X246637619Y-44871904D01*
X246590000Y-44919523D01*
X246542380Y-45014761D01*
X246542380Y-45205238D01*
X246590000Y-45300476D01*
X246637619Y-45348095D01*
X246732857Y-45395714D01*
X246970952Y-45395714D01*
X247066190Y-45348095D01*
X247113809Y-45300476D01*
X247161428Y-45205238D01*
X247161428Y-45014761D01*
X247113809Y-44919523D01*
X247066190Y-44871904D01*
X246970952Y-44824285D01*
%TO.C,U28*%
X262122380Y-59018095D02*
X262931904Y-59018095D01*
X263027142Y-58970476D01*
X263074761Y-58922857D01*
X263122380Y-58827619D01*
X263122380Y-58637142D01*
X263074761Y-58541904D01*
X263027142Y-58494285D01*
X262931904Y-58446666D01*
X262122380Y-58446666D01*
X262217619Y-58018095D02*
X262170000Y-57970476D01*
X262122380Y-57875238D01*
X262122380Y-57637142D01*
X262170000Y-57541904D01*
X262217619Y-57494285D01*
X262312857Y-57446666D01*
X262408095Y-57446666D01*
X262550952Y-57494285D01*
X263122380Y-58065714D01*
X263122380Y-57446666D01*
X262550952Y-56875238D02*
X262503333Y-56970476D01*
X262455714Y-57018095D01*
X262360476Y-57065714D01*
X262312857Y-57065714D01*
X262217619Y-57018095D01*
X262170000Y-56970476D01*
X262122380Y-56875238D01*
X262122380Y-56684761D01*
X262170000Y-56589523D01*
X262217619Y-56541904D01*
X262312857Y-56494285D01*
X262360476Y-56494285D01*
X262455714Y-56541904D01*
X262503333Y-56589523D01*
X262550952Y-56684761D01*
X262550952Y-56875238D01*
X262598571Y-56970476D01*
X262646190Y-57018095D01*
X262741428Y-57065714D01*
X262931904Y-57065714D01*
X263027142Y-57018095D01*
X263074761Y-56970476D01*
X263122380Y-56875238D01*
X263122380Y-56684761D01*
X263074761Y-56589523D01*
X263027142Y-56541904D01*
X262931904Y-56494285D01*
X262741428Y-56494285D01*
X262646190Y-56541904D01*
X262598571Y-56589523D01*
X262550952Y-56684761D01*
%TO.C,C4*%
X247537142Y-37386666D02*
X247584761Y-37434285D01*
X247632380Y-37577142D01*
X247632380Y-37672380D01*
X247584761Y-37815238D01*
X247489523Y-37910476D01*
X247394285Y-37958095D01*
X247203809Y-38005714D01*
X247060952Y-38005714D01*
X246870476Y-37958095D01*
X246775238Y-37910476D01*
X246680000Y-37815238D01*
X246632380Y-37672380D01*
X246632380Y-37577142D01*
X246680000Y-37434285D01*
X246727619Y-37386666D01*
X246965714Y-36529523D02*
X247632380Y-36529523D01*
X246584761Y-36767619D02*
X247299047Y-37005714D01*
X247299047Y-36386666D01*
%TO.C,U19*%
X259552380Y-48888095D02*
X260361904Y-48888095D01*
X260457142Y-48840476D01*
X260504761Y-48792857D01*
X260552380Y-48697619D01*
X260552380Y-48507142D01*
X260504761Y-48411904D01*
X260457142Y-48364285D01*
X260361904Y-48316666D01*
X259552380Y-48316666D01*
X260552380Y-47316666D02*
X260552380Y-47888095D01*
X260552380Y-47602380D02*
X259552380Y-47602380D01*
X259695238Y-47697619D01*
X259790476Y-47792857D01*
X259838095Y-47888095D01*
X260552380Y-46840476D02*
X260552380Y-46650000D01*
X260504761Y-46554761D01*
X260457142Y-46507142D01*
X260314285Y-46411904D01*
X260123809Y-46364285D01*
X259742857Y-46364285D01*
X259647619Y-46411904D01*
X259600000Y-46459523D01*
X259552380Y-46554761D01*
X259552380Y-46745238D01*
X259600000Y-46840476D01*
X259647619Y-46888095D01*
X259742857Y-46935714D01*
X259980952Y-46935714D01*
X260076190Y-46888095D01*
X260123809Y-46840476D01*
X260171428Y-46745238D01*
X260171428Y-46554761D01*
X260123809Y-46459523D01*
X260076190Y-46411904D01*
X259980952Y-46364285D01*
%TO.C,U10*%
X259732380Y-38368095D02*
X260541904Y-38368095D01*
X260637142Y-38320476D01*
X260684761Y-38272857D01*
X260732380Y-38177619D01*
X260732380Y-37987142D01*
X260684761Y-37891904D01*
X260637142Y-37844285D01*
X260541904Y-37796666D01*
X259732380Y-37796666D01*
X260732380Y-36796666D02*
X260732380Y-37368095D01*
X260732380Y-37082380D02*
X259732380Y-37082380D01*
X259875238Y-37177619D01*
X259970476Y-37272857D01*
X260018095Y-37368095D01*
X259732380Y-36177619D02*
X259732380Y-36082380D01*
X259780000Y-35987142D01*
X259827619Y-35939523D01*
X259922857Y-35891904D01*
X260113333Y-35844285D01*
X260351428Y-35844285D01*
X260541904Y-35891904D01*
X260637142Y-35939523D01*
X260684761Y-35987142D01*
X260732380Y-36082380D01*
X260732380Y-36177619D01*
X260684761Y-36272857D01*
X260637142Y-36320476D01*
X260541904Y-36368095D01*
X260351428Y-36415714D01*
X260113333Y-36415714D01*
X259922857Y-36368095D01*
X259827619Y-36320476D01*
X259780000Y-36272857D01*
X259732380Y-36177619D01*
%TO.C,U1*%
X258322380Y-27771904D02*
X259131904Y-27771904D01*
X259227142Y-27724285D01*
X259274761Y-27676666D01*
X259322380Y-27581428D01*
X259322380Y-27390952D01*
X259274761Y-27295714D01*
X259227142Y-27248095D01*
X259131904Y-27200476D01*
X258322380Y-27200476D01*
X259322380Y-26200476D02*
X259322380Y-26771904D01*
X259322380Y-26486190D02*
X258322380Y-26486190D01*
X258465238Y-26581428D01*
X258560476Y-26676666D01*
X258608095Y-26771904D01*
%TO.C,R30*%
X191582380Y-63292857D02*
X191106190Y-63626190D01*
X191582380Y-63864285D02*
X190582380Y-63864285D01*
X190582380Y-63483333D01*
X190630000Y-63388095D01*
X190677619Y-63340476D01*
X190772857Y-63292857D01*
X190915714Y-63292857D01*
X191010952Y-63340476D01*
X191058571Y-63388095D01*
X191106190Y-63483333D01*
X191106190Y-63864285D01*
X190582380Y-62959523D02*
X190582380Y-62340476D01*
X190963333Y-62673809D01*
X190963333Y-62530952D01*
X191010952Y-62435714D01*
X191058571Y-62388095D01*
X191153809Y-62340476D01*
X191391904Y-62340476D01*
X191487142Y-62388095D01*
X191534761Y-62435714D01*
X191582380Y-62530952D01*
X191582380Y-62816666D01*
X191534761Y-62911904D01*
X191487142Y-62959523D01*
X190582380Y-61721428D02*
X190582380Y-61626190D01*
X190630000Y-61530952D01*
X190677619Y-61483333D01*
X190772857Y-61435714D01*
X190963333Y-61388095D01*
X191201428Y-61388095D01*
X191391904Y-61435714D01*
X191487142Y-61483333D01*
X191534761Y-61530952D01*
X191582380Y-61626190D01*
X191582380Y-61721428D01*
X191534761Y-61816666D01*
X191487142Y-61864285D01*
X191391904Y-61911904D01*
X191201428Y-61959523D01*
X190963333Y-61959523D01*
X190772857Y-61911904D01*
X190677619Y-61864285D01*
X190630000Y-61816666D01*
X190582380Y-61721428D01*
%TO.C,C15*%
X186017142Y-63462857D02*
X186064761Y-63510476D01*
X186112380Y-63653333D01*
X186112380Y-63748571D01*
X186064761Y-63891428D01*
X185969523Y-63986666D01*
X185874285Y-64034285D01*
X185683809Y-64081904D01*
X185540952Y-64081904D01*
X185350476Y-64034285D01*
X185255238Y-63986666D01*
X185160000Y-63891428D01*
X185112380Y-63748571D01*
X185112380Y-63653333D01*
X185160000Y-63510476D01*
X185207619Y-63462857D01*
X186112380Y-62510476D02*
X186112380Y-63081904D01*
X186112380Y-62796190D02*
X185112380Y-62796190D01*
X185255238Y-62891428D01*
X185350476Y-62986666D01*
X185398095Y-63081904D01*
X185112380Y-61605714D02*
X185112380Y-62081904D01*
X185588571Y-62129523D01*
X185540952Y-62081904D01*
X185493333Y-61986666D01*
X185493333Y-61748571D01*
X185540952Y-61653333D01*
X185588571Y-61605714D01*
X185683809Y-61558095D01*
X185921904Y-61558095D01*
X186017142Y-61605714D01*
X186064761Y-61653333D01*
X186112380Y-61748571D01*
X186112380Y-61986666D01*
X186064761Y-62081904D01*
X186017142Y-62129523D01*
%TO.C,Q3*%
X63707619Y-71885238D02*
X63660000Y-71980476D01*
X63564761Y-72075714D01*
X63421904Y-72218571D01*
X63374285Y-72313809D01*
X63374285Y-72409047D01*
X63612380Y-72361428D02*
X63564761Y-72456666D01*
X63469523Y-72551904D01*
X63279047Y-72599523D01*
X62945714Y-72599523D01*
X62755238Y-72551904D01*
X62660000Y-72456666D01*
X62612380Y-72361428D01*
X62612380Y-72170952D01*
X62660000Y-72075714D01*
X62755238Y-71980476D01*
X62945714Y-71932857D01*
X63279047Y-71932857D01*
X63469523Y-71980476D01*
X63564761Y-72075714D01*
X63612380Y-72170952D01*
X63612380Y-72361428D01*
X62612380Y-71599523D02*
X62612380Y-70980476D01*
X62993333Y-71313809D01*
X62993333Y-71170952D01*
X63040952Y-71075714D01*
X63088571Y-71028095D01*
X63183809Y-70980476D01*
X63421904Y-70980476D01*
X63517142Y-71028095D01*
X63564761Y-71075714D01*
X63612380Y-71170952D01*
X63612380Y-71456666D01*
X63564761Y-71551904D01*
X63517142Y-71599523D01*
%TO.C,Q2*%
X86667619Y-76565238D02*
X86620000Y-76660476D01*
X86524761Y-76755714D01*
X86381904Y-76898571D01*
X86334285Y-76993809D01*
X86334285Y-77089047D01*
X86572380Y-77041428D02*
X86524761Y-77136666D01*
X86429523Y-77231904D01*
X86239047Y-77279523D01*
X85905714Y-77279523D01*
X85715238Y-77231904D01*
X85620000Y-77136666D01*
X85572380Y-77041428D01*
X85572380Y-76850952D01*
X85620000Y-76755714D01*
X85715238Y-76660476D01*
X85905714Y-76612857D01*
X86239047Y-76612857D01*
X86429523Y-76660476D01*
X86524761Y-76755714D01*
X86572380Y-76850952D01*
X86572380Y-77041428D01*
X85667619Y-76231904D02*
X85620000Y-76184285D01*
X85572380Y-76089047D01*
X85572380Y-75850952D01*
X85620000Y-75755714D01*
X85667619Y-75708095D01*
X85762857Y-75660476D01*
X85858095Y-75660476D01*
X86000952Y-75708095D01*
X86572380Y-76279523D01*
X86572380Y-75660476D01*
%TO.C,Q1*%
X104697619Y-76585238D02*
X104650000Y-76680476D01*
X104554761Y-76775714D01*
X104411904Y-76918571D01*
X104364285Y-77013809D01*
X104364285Y-77109047D01*
X104602380Y-77061428D02*
X104554761Y-77156666D01*
X104459523Y-77251904D01*
X104269047Y-77299523D01*
X103935714Y-77299523D01*
X103745238Y-77251904D01*
X103650000Y-77156666D01*
X103602380Y-77061428D01*
X103602380Y-76870952D01*
X103650000Y-76775714D01*
X103745238Y-76680476D01*
X103935714Y-76632857D01*
X104269047Y-76632857D01*
X104459523Y-76680476D01*
X104554761Y-76775714D01*
X104602380Y-76870952D01*
X104602380Y-77061428D01*
X104602380Y-75680476D02*
X104602380Y-76251904D01*
X104602380Y-75966190D02*
X103602380Y-75966190D01*
X103745238Y-76061428D01*
X103840476Y-76156666D01*
X103888095Y-76251904D01*
%TD*%
M02*
